<svg width="402" height="548" viewBox="0 0 402 548" fill="none" xmlns="http://www.w3.org/2000/svg">
<path d="M193.389 45.0709C193.259 45.1892 193.152 45.3188 193.032 45.4416L188.838 180H401.604V86C387.38 86.2153 371.696 86.1203 357.925 83.361C347.978 81.368 337.897 77.9278 331.663 71.2887C326.081 65.3449 324.289 57.6158 319.867 51.0526C315.445 44.4894 306.052 38.7779 297.577 41.6411C290.797 43.9311 286.166 51.1725 278.925 50.2069C272.536 49.3545 269.903 42.5427 263.871 40.622C260.399 39.5157 256.402 40.2445 252.847 39.3303C244.521 37.1892 241.058 26.9201 232.329 27.0005C224.548 27.0727 221.209 35.2409 214.601 38.5992C208.095 41.9061 198.493 40.4031 193.389 45.0709Z" fill="#BEDB52"/>
<path d="M324.533 58C324.533 58 335.942 60.0866 335.243 73.0175C330.004 70.9272 320.872 66.4 324.533 58Z" fill="#BEDB52"/>
<path d="M329.668 62.1523C329.668 62.1523 340.722 65.2531 338.261 78.0409C333.339 75.4923 324.882 70.1707 329.668 62.1523Z" fill="#BEDB52"/>
<path d="M331.526 73.0523C331.526 73.0523 342.935 75.1382 342.235 88.0698C336.997 85.9787 327.864 81.4516 331.526 73.0523Z" fill="#BEDB52"/>
<path d="M362.471 76.6847C362.471 76.6847 373.88 78.7705 373.181 91.7022C367.942 89.6119 358.81 85.0847 362.471 76.6847Z" fill="#BEDB52"/>
<path d="M391.259 81.0683C391.259 81.0683 402.668 83.1549 401.969 96.0858C396.731 93.9955 387.599 89.4683 391.259 81.0683Z" fill="#BEDB52"/>
<path d="M343.482 86.1789C343.482 86.1789 354.994 86.2161 358.82 74.3449C353.14 75.3569 342.934 77.9242 343.482 86.1789Z" fill="#BEDB52"/>
<path d="M379.172 85.7786C379.172 85.7786 389.257 81.2708 385.5 69.3847C381.141 72.5094 373.755 78.7781 379.172 85.7786Z" fill="#BEDB52"/>
<path d="M377.704 82.5584C377.704 82.5584 383.163 74.3283 372.065 65.9998C370.491 70.5449 368.477 79.0649 377.704 82.5584Z" fill="#BEDB52"/>
<path d="M376.592 90.5657C376.592 90.5657 382.051 82.3356 370.952 74.0071C369.379 78.5522 367.364 87.0722 376.592 90.5657Z" fill="#BEDB52"/>
<path d="M385.576 87.3016C385.576 87.3016 397.087 87.3389 400.914 75.4677C395.234 76.4789 385.029 79.0462 385.576 87.3016Z" fill="#BEDB52"/>
<path d="M253.611 29.0515C253.611 29.0515 265.02 31.1381 264.321 44.069C259.082 41.9787 249.95 37.4515 253.611 29.0515Z" fill="#BEDB52"/>
<path d="M284.556 32.6847C284.556 32.6847 295.965 34.7713 295.266 47.7022C290.027 45.6118 280.895 41.0847 284.556 32.6847Z" fill="#BEDB52"/>
<path d="M313.345 37.0679C313.345 37.0679 324.754 39.1537 324.055 52.0854C318.816 49.9951 309.685 45.4679 313.345 37.0679Z" fill="#BEDB52"/>
<path d="M265.566 42.1785C265.566 42.1785 277.079 42.2157 280.904 30.3445C275.225 31.3565 265.019 33.9238 265.566 42.1785Z" fill="#BEDB52"/>
<path d="M301.257 41.7778C301.257 41.7778 311.343 37.27 307.586 25.3839C303.226 28.5085 295.841 34.778 301.257 41.7778Z" fill="#BEDB52"/>
<path d="M299.79 38.5584C299.79 38.5584 305.249 30.329 294.15 21.9998C292.577 26.5448 290.562 35.0648 299.79 38.5584Z" fill="#BEDB52"/>
<path d="M288.473 52.1073C288.473 52.1073 293.932 43.8772 282.833 35.5488C281.26 40.0938 279.246 48.6138 288.473 52.1073Z" fill="#BEDB52"/>
<path d="M307.661 43.3016C307.661 43.3016 319.174 43.3389 322.999 31.4677C317.32 32.4789 307.114 35.0462 307.661 43.3016Z" fill="#BEDB52"/>
<path d="M196.672 27.6088C196.672 27.6088 208.081 29.6947 207.381 42.6263C202.143 40.5353 193.011 36.0081 196.672 27.6088Z" fill="#BEDB52"/>
<path d="M229.779 23.7808C229.779 23.7808 241.188 25.8667 240.488 38.7983C235.25 36.7073 226.117 32.1801 229.779 23.7808Z" fill="#BEDB52"/>
<path d="M258.567 28.1633C258.567 28.1633 269.976 30.2491 269.277 43.1807C264.038 41.0904 254.906 36.5633 258.567 28.1633Z" fill="#BEDB52"/>
<path d="M209.084 43.0229C209.084 43.0229 218.312 37.4345 212.582 26.0798C208.793 29.6598 202.536 36.6923 209.084 43.0229Z" fill="#BEDB52"/>
<path d="M223.602 36.0912C223.602 36.0912 232.83 30.5029 227.1 19.1481C223.31 22.7281 217.053 29.7606 223.602 36.0912Z" fill="#BEDB52"/>
<path d="M246.415 33.8097C246.415 33.8097 256.501 29.302 252.743 17.4159C248.384 20.5405 240.998 26.8092 246.415 33.8097Z" fill="#BEDB52"/>
<path d="M245.012 29.6539C245.012 29.6539 250.471 21.4245 239.372 13.0953C237.798 17.6403 235.784 26.1603 245.012 29.6539Z" fill="#BEDB52"/>
<path d="M243.9 37.6615C243.9 37.6615 249.359 29.4321 238.26 21.1029C236.686 25.6479 234.672 34.1679 243.9 37.6615Z" fill="#BEDB52"/>
<path d="M248.936 38.1751C248.936 38.1751 260.448 38.2123 264.274 26.3411C258.594 27.3524 248.389 29.9196 248.936 38.1751Z" fill="#BEDB52"/>
<path d="M342.997 80.6569C342.997 80.6569 354.509 80.6941 358.335 68.8229C352.656 69.8349 342.449 72.4022 342.997 80.6569Z" fill="#BEDB52"/>
<path d="M332.987 81.209C332.987 81.209 344.5 81.2462 348.326 69.375C342.646 70.387 332.44 72.9535 332.987 81.209Z" fill="#BEDB52"/>
<path d="M346.378 55.4339C346.378 55.4339 357.787 57.5205 357.088 70.4514C351.849 68.3611 342.717 63.834 346.378 55.4339Z" fill="#BEDB52"/>
<path d="M333.489 52.6764C333.489 52.6764 344.899 54.763 344.199 67.6939C338.96 65.6036 329.828 61.0764 333.489 52.6764Z" fill="#BEDB52"/>
<path d="M335.513 52.5634C335.513 52.5634 344.631 58.2702 356.55 50.7257C351.282 48.7293 341.253 45.7358 335.513 52.5634Z" fill="#BEDB52"/>
<path d="M318.527 58.7949C318.527 58.7949 330.038 58.8321 333.865 46.9609C328.185 47.9729 317.98 50.5402 318.527 58.7949Z" fill="#BEDB52"/>
<path d="M319.97 58.0303C320.072 57.9677 330.338 51.7892 339.565 53.0456C343.366 53.5642 346.501 55.2805 348.883 58.1458L349.517 57.7985C347.013 54.7856 343.706 52.9807 339.69 52.433C330.137 51.1304 319.941 57.2717 319.511 57.534L319.97 58.0303Z" fill="#BEDB52"/>
<path d="M369.161 74.0111C369.161 74.0111 380.455 71.5482 387.246 83.2584C381.411 83.3873 370.733 82.8299 369.161 74.0111Z" fill="#BEDB52"/>
<path d="M356.172 76.4396C356.172 76.4396 367.466 73.9766 374.257 85.6869C368.422 85.8158 357.744 85.2576 356.172 76.4396Z" fill="#BEDB52"/>
<path d="M357.899 75.5739C357.899 75.5739 369.24 77.1813 375.467 66.0001C369.659 66.2229 359.067 67.3616 357.899 75.5739Z" fill="#BEDB52"/>
<path d="M346.433 87.5079C346.433 87.5079 356.644 83.1916 353.229 71.2384C348.782 74.2789 341.219 80.4068 346.433 87.5079Z" fill="#BEDB52"/>
<path d="M347.272 86.2854C347.327 86.1915 352.874 76.8444 361.762 74.4709C365.424 73.4939 369.182 73.8285 372.932 75.4657L373.295 74.9187C369.353 73.198 365.391 72.8493 361.522 73.8821C352.32 76.3376 346.813 85.6259 346.583 86.0201L347.272 86.2854Z" fill="#BEDB52"/>
<path d="M264.439 17.3407C264.439 17.3407 269.124 9.89609 257.949 2.99991C256.743 7.05535 255.375 14.6237 264.439 17.3407Z" fill="#BEDB52"/>
<path d="M259.481 25.9762C259.481 25.9762 264.166 18.5316 252.992 11.6354C251.785 15.6916 250.417 23.2592 259.481 25.9762Z" fill="#BEDB52"/>
<path d="M260.715 24.9276C260.715 24.9276 261.091 16.7035 274.091 14.4001C272.789 18.4205 269.639 25.6177 260.715 24.9276Z" fill="#BEDB52"/>
<path d="M245.956 30.7557C245.956 30.7557 252.406 24.4072 264.457 28.9888C260.416 31.5404 252.53 35.7046 245.956 30.7557Z" fill="#BEDB52"/>
<path d="M247.406 30.3933C247.517 30.3724 258.447 28.2091 262.594 22.43C264.301 20.049 264.636 17.3596 263.588 14.4376L264.234 14.2848C265.336 17.3566 264.979 20.1906 263.174 22.7064C258.883 28.6897 248.021 30.8367 247.561 30.9254L247.406 30.3933Z" fill="#BEDB52"/>
<path d="M217.588 25.2003C217.588 25.2003 222.273 17.7549 211.099 10.8587C209.892 14.9156 208.524 22.4832 217.588 25.2003Z" fill="#BEDB52"/>
<path d="M212.631 33.8359C212.631 33.8359 217.315 26.3905 206.141 19.495C204.934 23.5512 203.566 31.1188 212.631 33.8359Z" fill="#BEDB52"/>
<path d="M213.864 32.7881C213.864 32.7881 214.24 24.5639 227.24 22.2605C225.939 26.2802 222.788 33.4774 213.864 32.7881Z" fill="#BEDB52"/>
<path d="M199.105 38.6157C199.105 38.6157 205.555 32.2673 217.606 36.8488C213.566 39.3997 205.679 43.5639 199.105 38.6157Z" fill="#BEDB52"/>
<path d="M200.556 38.2529C200.665 38.2321 211.596 36.0687 215.743 30.2896C217.45 27.9087 217.785 25.2192 216.737 22.2972L217.383 22.1445C218.486 25.2162 218.128 28.0503 216.323 30.5661C212.032 36.5494 201.171 38.6963 200.71 38.785L200.556 38.2529Z" fill="#BEDB52"/>
<path d="M209.656 42.0709C209.786 42.1892 209.893 42.3188 210.014 42.4416L214.207 177H1.44104V83C15.6656 83.2153 31.3489 83.1203 45.1198 80.361C55.0675 78.368 65.1482 74.9278 71.3821 68.2887C76.9643 62.3449 78.756 54.6158 83.178 48.0526C87.6 41.4894 96.9936 35.7779 105.468 38.6411C112.248 40.9311 116.879 48.1725 124.12 47.2069C130.51 46.3545 133.143 39.5427 139.174 37.622C142.646 36.5157 146.643 37.2445 150.198 36.3303C158.524 34.1892 161.987 23.9201 170.716 24.0005C178.497 24.0727 181.836 32.2409 188.444 35.5992C194.95 38.9061 204.553 37.4031 209.656 42.0709Z" fill="#BEDB52"/>
<path d="M78.512 55C78.512 55 67.103 57.0866 67.8023 70.0175C73.0411 67.9272 82.1731 63.4 78.512 55Z" fill="#BEDB52"/>
<path d="M73.3775 59.1523C73.3775 59.1523 62.3235 62.2531 64.7841 75.0409C69.7063 72.4923 78.1629 67.1707 73.3775 59.1523Z" fill="#BEDB52"/>
<path d="M71.5196 70.0523C71.5196 70.0523 60.1105 72.1382 60.8099 85.0698C66.0487 82.9787 75.1807 78.4516 71.5196 70.0523Z" fill="#BEDB52"/>
<path d="M40.5742 73.6847C40.5742 73.6847 29.1651 75.7705 29.8644 88.7022C35.1032 86.6119 44.2353 82.0847 40.5742 73.6847Z" fill="#BEDB52"/>
<path d="M11.7858 78.0683C11.7858 78.0683 0.376693 80.1549 1.07605 93.0858C6.31391 90.9955 15.446 86.4683 11.7858 78.0683Z" fill="#BEDB52"/>
<path d="M59.5633 83.1789C59.5633 83.1789 48.0514 83.2161 44.2252 71.3449C49.9054 72.3569 60.1113 74.9242 59.5633 83.1789Z" fill="#BEDB52"/>
<path d="M23.8733 82.7786C23.8733 82.7786 13.7877 78.2708 17.5451 66.3847C21.9047 69.5094 29.2901 75.7781 23.8733 82.7786Z" fill="#BEDB52"/>
<path d="M25.3407 79.5584C25.3407 79.5584 19.8817 71.3283 30.9806 62.9998C32.5537 67.5449 34.5682 76.0649 25.3407 79.5584Z" fill="#BEDB52"/>
<path d="M26.4532 87.5657C26.4532 87.5657 20.9941 79.3356 32.093 71.0071C33.6661 75.5522 35.6807 84.0722 26.4532 87.5657Z" fill="#BEDB52"/>
<path d="M17.4696 84.3016C17.4696 84.3016 5.9577 84.3389 2.13141 72.4677C7.81073 73.4789 18.0166 76.0462 17.4696 84.3016Z" fill="#BEDB52"/>
<path d="M149.434 26.0515C149.434 26.0515 138.025 28.1381 138.724 41.069C143.963 38.9787 153.095 34.4515 149.434 26.0515Z" fill="#BEDB52"/>
<path d="M118.489 29.6847C118.489 29.6847 107.08 31.7713 107.779 44.7022C113.018 42.6118 122.15 38.0847 118.489 29.6847Z" fill="#BEDB52"/>
<path d="M89.7002 34.0679C89.7002 34.0679 78.2911 36.1537 78.9905 49.0854C84.2293 46.9951 93.3604 42.4679 89.7002 34.0679Z" fill="#BEDB52"/>
<path d="M137.479 39.1785C137.479 39.1785 125.966 39.2157 122.141 27.3445C127.82 28.3565 138.026 30.9238 137.479 39.1785Z" fill="#BEDB52"/>
<path d="M101.788 38.7778C101.788 38.7778 91.702 34.27 95.4595 22.3839C99.819 25.5085 107.205 31.778 101.788 38.7778Z" fill="#BEDB52"/>
<path d="M103.255 35.5584C103.255 35.5584 97.7962 27.329 108.895 18.9998C110.468 23.5448 112.483 32.0648 103.255 35.5584Z" fill="#BEDB52"/>
<path d="M114.572 49.1073C114.572 49.1073 109.113 40.8772 120.212 32.5488C121.785 37.0938 123.799 45.6138 114.572 49.1073Z" fill="#BEDB52"/>
<path d="M95.3839 40.3016C95.3839 40.3016 83.8711 40.3389 80.0458 28.4677C85.7251 29.4789 95.931 32.0462 95.3839 40.3016Z" fill="#BEDB52"/>
<path d="M206.373 24.6088C206.373 24.6088 194.964 26.6947 195.664 39.6263C200.902 37.5353 210.035 33.0081 206.373 24.6088Z" fill="#BEDB52"/>
<path d="M173.267 20.7808C173.267 20.7808 161.857 22.8667 162.557 35.7983C167.796 33.7073 176.928 29.1801 173.267 20.7808Z" fill="#BEDB52"/>
<path d="M144.478 25.1633C144.478 25.1633 133.069 27.2491 133.768 40.1807C139.007 38.0904 148.139 33.5633 144.478 25.1633Z" fill="#BEDB52"/>
<path d="M193.961 40.0229C193.961 40.0229 184.733 34.4345 190.463 23.0798C194.252 26.6598 200.509 33.6923 193.961 40.0229Z" fill="#BEDB52"/>
<path d="M179.444 33.0912C179.444 33.0912 170.215 27.5029 175.945 16.1481C179.735 19.7281 185.992 26.7606 179.444 33.0912Z" fill="#BEDB52"/>
<path d="M156.63 30.8097C156.63 30.8097 146.544 26.302 150.302 14.4159C154.661 17.5405 162.047 23.8092 156.63 30.8097Z" fill="#BEDB52"/>
<path d="M158.033 26.6539C158.033 26.6539 152.574 18.4245 163.673 10.0953C165.247 14.6403 167.261 23.1603 158.033 26.6539Z" fill="#BEDB52"/>
<path d="M159.146 34.6615C159.146 34.6615 153.686 26.4321 164.785 18.1029C166.359 22.6479 168.373 31.1679 159.146 34.6615Z" fill="#BEDB52"/>
<path d="M154.11 35.1751C154.11 35.1751 142.598 35.2123 138.771 23.3411C144.451 24.3524 154.657 26.9196 154.11 35.1751Z" fill="#BEDB52"/>
<path d="M60.0481 77.6569C60.0481 77.6569 48.5362 77.6941 44.71 65.8229C50.3893 66.8349 60.5961 69.4022 60.0481 77.6569Z" fill="#BEDB52"/>
<path d="M70.0577 78.209C70.0577 78.209 58.5449 78.2462 54.7195 66.375C60.3988 67.387 70.6047 69.9535 70.0577 78.209Z" fill="#BEDB52"/>
<path d="M56.6673 52.4339C56.6673 52.4339 45.2582 54.5205 45.9575 67.4514C51.1963 65.3611 60.3284 60.834 56.6673 52.4339Z" fill="#BEDB52"/>
<path d="M69.5557 49.6764C69.5557 49.6764 58.1466 51.763 58.846 64.6939C64.0847 62.6036 73.2168 58.0764 69.5557 49.6764Z" fill="#BEDB52"/>
<path d="M67.5319 49.5634C67.5319 49.5634 58.4136 55.2702 46.4951 47.7257C51.7633 45.7293 61.792 42.7358 67.5319 49.5634Z" fill="#BEDB52"/>
<path d="M84.5185 55.7949C84.5185 55.7949 73.0066 55.8321 69.1804 43.9609C74.8597 44.9729 85.0655 47.5402 84.5185 55.7949Z" fill="#BEDB52"/>
<path d="M83.075 55.0303C82.9731 54.9677 72.7076 48.7892 63.4801 50.0456C59.6795 50.5642 56.5442 52.2805 54.1626 55.1458L53.5284 54.7985C56.0321 51.7856 59.339 49.9807 63.3552 49.433C72.9077 48.1304 83.1043 54.2717 83.5339 54.534L83.075 55.0303Z" fill="#BEDB52"/>
<path d="M33.8842 71.0111C33.8842 71.0111 22.5898 68.5482 15.799 80.2584C21.6344 80.3873 32.312 79.8299 33.8842 71.0111Z" fill="#BEDB52"/>
<path d="M46.873 73.4396C46.873 73.4396 35.5787 70.9766 28.7879 82.6869C34.6232 82.8158 45.3009 82.2576 46.873 73.4396Z" fill="#BEDB52"/>
<path d="M45.1466 72.5739C45.1466 72.5739 33.8054 74.1813 27.5781 63.0001C33.3859 63.2229 43.9782 64.3616 45.1466 72.5739Z" fill="#BEDB52"/>
<path d="M56.6124 84.5079C56.6124 84.5079 46.401 80.1916 49.8161 68.2384C54.2628 71.2789 61.8264 77.4068 56.6124 84.5079Z" fill="#BEDB52"/>
<path d="M55.7727 83.2854C55.7176 83.1915 50.1714 73.8444 41.2835 71.4709C37.6214 70.4939 33.8631 70.8285 30.113 72.4657L29.7504 71.9187C33.6924 70.198 37.6545 69.8493 41.523 70.8821C50.7248 73.3376 56.2316 82.6259 56.4619 83.0201L55.7727 83.2854Z" fill="#BEDB52"/>
<path d="M138.606 14.3407C138.606 14.3407 133.921 6.89609 145.096 -9.15527e-05C146.303 4.05535 147.67 11.6237 138.606 14.3407Z" fill="#BEDB52"/>
<path d="M143.564 22.9762C143.564 22.9762 138.879 15.5316 150.054 8.63538C151.26 12.6916 152.628 20.2592 143.564 22.9762Z" fill="#BEDB52"/>
<path d="M142.33 21.9276C142.33 21.9276 141.954 13.7035 128.954 11.4001C130.256 15.4205 133.407 22.6177 142.33 21.9276Z" fill="#BEDB52"/>
<path d="M157.089 27.7557C157.089 27.7557 150.639 21.4072 138.589 25.9888C142.63 28.5404 150.515 32.7046 157.089 27.7557Z" fill="#BEDB52"/>
<path d="M155.639 27.3933C155.529 27.3724 144.599 25.2091 140.451 19.43C138.744 17.049 138.409 14.3596 139.457 11.4376L138.811 11.2848C137.709 14.3566 138.066 17.1906 139.871 19.7064C144.163 25.6897 155.024 27.8367 155.484 27.9254L155.639 27.3933Z" fill="#BEDB52"/>
<path d="M185.457 22.2003C185.457 22.2003 180.772 14.7549 191.946 7.8587C193.154 11.9156 194.521 19.4832 185.457 22.2003Z" fill="#BEDB52"/>
<path d="M190.415 30.8359C190.415 30.8359 185.73 23.3905 196.904 16.495C198.111 20.5512 199.479 28.1188 190.415 30.8359Z" fill="#BEDB52"/>
<path d="M189.181 29.7881C189.181 29.7881 188.805 21.5639 175.805 19.2605C177.107 23.2802 180.257 30.4774 189.181 29.7881Z" fill="#BEDB52"/>
<path d="M203.94 35.6157C203.94 35.6157 197.49 29.2673 185.439 33.8488C189.479 36.3997 197.366 40.5639 203.94 35.6157Z" fill="#BEDB52"/>
<path d="M202.489 35.2529C202.38 35.2321 191.449 33.0687 187.302 27.2896C185.595 24.9087 185.26 22.2192 186.308 19.2972L185.662 19.1445C184.559 22.2162 184.917 25.0503 186.722 27.5661C191.013 33.5494 201.875 35.6963 202.335 35.785L202.489 35.2529Z" fill="#BEDB52"/>
<path d="M0 158.147C0 158.147 1.69464 157.253 2.54351 156.81C126.804 91.9904 273.171 91.7311 397.609 156.032C398.958 156.73 401.65 158.147 401.65 158.147C401.65 310.394 401.65 395.753 401.65 548H0V158.147Z" fill="#9B3B11"/>
</svg>
