<svg width="68" height="62" viewBox="0 0 68 62" fill="none" xmlns="http://www.w3.org/2000/svg">
<path d="M57.265 52.2351C40.021 63.0513 38.5711 63.3485 20.4901 55.9126C15.3065 53.7808 11.2155 52.6861 12.0844 46.4871H11.2809C11.3157 44.8679 11.5296 43.9532 12.0844 42.3152C13.0804 39.7978 13.1802 38.3513 12.857 35.7328C10.6558 34.4705 9.44684 33.6148 7.44892 31.1592C3.21196 24.5435 1.56615 20.3817 0.773804 11.6283C1.69209 7.07683 2.85849 5.83837 5.81104 5.38589C12.0328 5.46265 16.2475 7.90144 25.2801 17.2527C32.3651 14.0498 36.0345 13.7298 41.7207 14.4714L40.2064 16.0166C41.8839 15.6851 42.8244 15.7145 44.502 16.0166C47.9823 9.82724 50.3863 7.11293 55.3181 3.34628C61.943 -0.698245 64.5176 0.389373 66.6905 7.3637C68.0949 14.8995 66.4333 20.3586 59.5828 32.4571C60.2626 36.0419 61.0371 37.6169 62.704 40.7082L62.055 40.3065C62.5929 45.4056 60.4841 47.8234 57.265 52.2351Z" fill="#FEFEFE"/>
<path d="M58.1921 7.3637C53.7377 10.144 52.3477 12.7051 51.1771 18.4579C54.9868 21.3679 56.8187 23.4087 58.6866 28.9341L59.5828 32.4571M59.5828 32.4571C60.2626 36.0419 61.0371 37.6169 62.704 40.7082L62.055 40.3065C62.5929 45.4056 60.4841 47.8234 57.265 52.2351C40.021 63.0513 38.5711 63.3485 20.4901 55.9126C15.3065 53.7808 11.2155 52.6861 12.0844 46.4871H11.2809C11.3157 44.8679 11.5296 43.9532 12.0844 42.3152C13.0804 39.7978 13.1802 38.3513 12.857 35.7328M59.5828 32.4571C66.4333 20.3586 68.0949 14.8995 66.6905 7.3637C64.5176 0.389373 61.943 -0.698245 55.3181 3.34628C50.3863 7.11292 47.9823 9.82724 44.502 16.0166M44.502 16.0166L46.6034 17.2527M44.502 16.0166C42.8244 15.7145 41.8839 15.6851 40.2064 16.0166L41.7207 14.4714C36.0345 13.7298 32.3651 14.0498 25.2801 17.2527M25.2801 17.2527L23.4568 18.8597M25.2801 17.2527C16.2475 7.90144 12.0328 5.46265 5.81104 5.38589C2.85849 5.83837 1.69209 7.07683 0.773804 11.6283C1.56615 20.3817 3.21196 24.5435 7.44891 31.1592C9.44684 33.6148 10.6558 34.4705 12.857 35.7328M12.857 35.7328C13.6827 28.4121 15.1838 25.5041 19.2231 21.8882C16.8096 15.7945 14.9162 13.8744 11.2809 11.1648" stroke="#793A30" stroke-linecap="round"/>
<path d="M62.3329 40.1211C62.3329 40.1211 62.0097 40.8358 61.9455 41.06C61.9638 41.0848 61.9695 41.1018 61.9621 41.11C61.9297 41.1455 61.9281 41.1208 61.9455 41.06C61.5912 40.5797 56.5459 37.1911 52.1967 39.1013C47.0667 38.9468 44.7391 36.4436 44.0382 32.2717C43.7488 25.7494 39.1246 16.4492 39.959 16.1711C42.3076 15.8003 44.3472 15.7076 46.3559 17.0481C45.7241 16.6048 45.4674 16.1902 44.5944 15.9239C48.1174 9.74323 51.1185 6.42484 56.6467 2.6355C56.2473 4.76087 56.3294 6.45463 56.3995 8.4144C53.5255 11.1957 52.4129 13.4016 51.0841 18.3961C56.3217 22.5632 57.9922 25.7641 59.4589 32.7352L62.3329 40.1211Z" fill="#FFAB4B"/>
<path d="M23.4259 43.1497C23.4259 43.4399 14.464 45.1583 13.4133 51.9262C11.6518 51.1227 12.1462 46.9319 12.1462 46.6418C12.1462 46.5032 11.5591 46.4564 11.3736 46.24C11.59 43.9223 12.9188 40.3066 13.0115 38.6688C13.4423 38.6688 11.7136 30.5412 16.5036 24.7623C17.2901 23.8134 18.3043 22.6175 19.1922 21.7956C19.5285 21.4843 15.1747 12.6482 11.0646 11.1649C11.2809 9.24888 11.0974 6.67321 11.2809 6.52943C11.6379 6.24972 16.2255 8.66176 19.1922 11.6594C20.3974 12.741 24.5676 15.9178 25.1874 17.3765C23.8895 18.1799 23.4173 18.78 23.5804 18.6744C23.4568 19.0452 23.1794 19.0629 23.5804 18.8289C24.5839 16.853 30.6573 15.1205 33.5313 14.657C33.6622 15.0236 31.1746 21.6227 30.75 27.3274C32.2643 35.5167 31.9147 36.9965 31.4608 38.0508C30.4101 42.0682 23.4259 43.077 23.4259 43.1497Z" fill="#FFAB4B"/>
<path d="M56.554 2.79C63.2973 -1.43019 65.0524 2.78999 66.474 7.17826C67.018 9.88287 67.3894 11.296 66.9994 13.9461C66.8456 17.6215 64.0495 25.6148 59.5826 32.2099C58.9299 29.4478 58.5432 27.9498 57.2957 25.3493C54.7523 21.4168 53.5816 20.3934 51.2696 18.427C52.7632 12.7782 53.4328 10.6703 58.2228 7.36368C57.897 7.36368 56.3686 8.44529 56.3686 8.44529C56.2335 6.3312 56.2935 4.7515 56.554 2.79Z" fill="#FF8D8D"/>
<path d="M19.223 21.7954C15.7159 24.9107 14.2785 27.5125 12.7024 35.7019C7.1707 31.8699 4.74431 28.354 2.10256 19.4777C0.0629389 11.7519 0.785663 9.41103 3.02966 6.37473C5.99369 5.09138 8.19115 5.18309 11.2808 6.37474C11.8405 8.03264 11.6386 9.15025 11.4972 10.8866C11.4972 10.8866 11.4972 11.154 11.353 11.1944C11.3845 11.2972 11.3426 11.3193 11.3426 11.3193C14.6445 13.4889 16.525 16.105 19.223 21.7954Z" fill="#FF8D8D"/>
<path d="M58.1921 7.3637C53.7377 10.144 52.3477 12.7051 51.1771 18.4579C54.9868 21.3679 56.8187 23.4087 58.6866 28.9341L59.5828 32.4571M59.5828 32.4571C60.2626 36.0419 61.0371 37.6169 62.704 40.7082L62.055 40.3065C62.5929 45.4056 60.4841 47.8234 57.265 52.2351C40.021 63.0513 38.5711 63.3485 20.4901 55.9126C15.3065 53.7808 11.2155 52.6861 12.0844 46.4871H11.2809C11.3157 44.8679 11.5296 43.9532 12.0844 42.3152C13.0804 39.7978 13.1802 38.3513 12.857 35.7328M59.5828 32.4571C66.4333 20.3586 68.0949 14.8995 66.6905 7.3637C64.5176 0.389373 61.943 -0.698245 55.3181 3.34628C50.3863 7.11292 47.9823 9.82724 44.502 16.0166M44.502 16.0166L46.6034 17.2527M44.502 16.0166C42.8244 15.7145 41.8839 15.6851 40.2064 16.0166L41.7207 14.4714C36.0345 13.7298 32.3651 14.0498 25.2801 17.2527M25.2801 17.2527L23.4568 18.8597M25.2801 17.2527C16.2475 7.90144 12.0328 5.46265 5.81104 5.38589C2.85849 5.83837 1.69209 7.07683 0.773804 11.6283C1.56615 20.3817 3.21196 24.5435 7.44891 31.1592C9.44684 33.6148 10.6558 34.4705 12.857 35.7328M12.857 35.7328C13.6827 28.4121 15.1838 25.5041 19.2231 21.8882C16.8096 15.7945 14.9162 13.8744 11.2809 11.1648" stroke="#793A30" stroke-linecap="round"/>
<path d="M57.265 52.2351C40.021 63.0513 38.5711 63.3485 20.4901 55.9126C15.3065 53.7808 11.2155 52.6861 12.0844 46.4871H11.2809C11.3157 44.8679 11.5296 43.9532 12.0844 42.3152C13.0804 39.7978 13.1802 38.3513 12.857 35.7328C10.6558 34.4705 9.44684 33.6148 7.44892 31.1592C3.21196 24.5435 1.56615 20.3817 0.773804 11.6283C1.69209 7.07683 2.85849 5.83837 5.81104 5.38589C12.0328 5.46265 16.2475 7.90144 25.2801 17.2527C32.3651 14.0498 36.0345 13.7298 41.7207 14.4714L40.2064 16.0166C41.8839 15.6851 42.8244 15.7145 44.502 16.0166C47.9823 9.82724 50.3863 7.11293 55.3181 3.34628C61.943 -0.698245 64.5176 0.389373 66.6905 7.3637C68.0949 14.8995 66.4333 20.3586 59.5828 32.4571C60.2626 36.0419 61.0371 37.6169 62.704 40.7082L62.055 40.3065C62.5929 45.4056 60.4841 47.8234 57.265 52.2351Z" fill="#FEFEFE"/>
<path d="M58.1921 7.3637C53.7377 10.144 52.3477 12.7051 51.1771 18.4579C54.9868 21.3679 56.8187 23.4087 58.6866 28.9341L59.5828 32.4571M59.5828 32.4571C60.2626 36.0419 61.0371 37.6169 62.704 40.7082L62.055 40.3065C62.5929 45.4056 60.4841 47.8234 57.265 52.2351C40.021 63.0513 38.5711 63.3485 20.4901 55.9126C15.3065 53.7808 11.2155 52.6861 12.0844 46.4871H11.2809C11.3157 44.8679 11.5296 43.9532 12.0844 42.3152C13.0804 39.7978 13.1802 38.3513 12.857 35.7328M59.5828 32.4571C66.4333 20.3586 68.0949 14.8995 66.6905 7.3637C64.5176 0.389373 61.943 -0.698245 55.3181 3.34628C50.3863 7.11292 47.9823 9.82724 44.502 16.0166M44.502 16.0166L46.6034 17.2527M44.502 16.0166C42.8244 15.7145 41.8839 15.6851 40.2064 16.0166L41.7207 14.4714C36.0345 13.7298 32.3651 14.0498 25.2801 17.2527M25.2801 17.2527L23.4568 18.8597M25.2801 17.2527C16.2475 7.90144 12.0328 5.46265 5.81104 5.38589C2.85849 5.83837 1.69209 7.07683 0.773804 11.6283C1.56615 20.3817 3.21196 24.5435 7.44891 31.1592C9.44684 33.6148 10.6558 34.4705 12.857 35.7328M12.857 35.7328C13.6827 28.4121 15.1838 25.5041 19.2231 21.8882C16.8096 15.7945 14.9162 13.8744 11.2809 11.1648" stroke="#793A30" stroke-linecap="round"/>
<path d="M62.3329 40.1211C62.3329 40.1211 62.0097 40.8358 61.9455 41.06C61.9638 41.0848 61.9695 41.1018 61.9621 41.11C61.9297 41.1455 61.9281 41.1208 61.9455 41.06C61.5912 40.5797 56.5459 37.1911 52.1967 39.1013C47.0667 38.9468 44.7391 36.4436 44.0382 32.2717C43.7488 25.7494 39.1246 16.4492 39.959 16.1711C42.3076 15.8003 44.3472 15.7076 46.3559 17.0481C45.7241 16.6048 45.4674 16.1902 44.5944 15.9239C48.1174 9.74323 51.1185 6.42484 56.6467 2.6355C56.2473 4.76087 56.3294 6.45463 56.3995 8.4144C53.5255 11.1957 52.4129 13.4016 51.0841 18.3961C56.3217 22.5632 57.9922 25.7641 59.4589 32.7352L62.3329 40.1211Z" fill="#FFAB4B"/>
<path d="M23.4259 43.1497C23.4259 43.4399 14.464 45.1583 13.4133 51.9262C11.6518 51.1227 12.1462 46.9319 12.1462 46.6418C12.1462 46.5032 11.5591 46.4564 11.3736 46.24C11.59 43.9223 12.9188 40.3066 13.0115 38.6688C13.4423 38.6688 11.7136 30.5412 16.5036 24.7623C17.2901 23.8134 18.3043 22.6175 19.1922 21.7956C19.5285 21.4843 15.1747 12.6482 11.0646 11.1649C11.2809 9.24888 11.0974 6.67321 11.2809 6.52943C11.6379 6.24972 16.2255 8.66176 19.1922 11.6594C20.3974 12.741 24.5676 15.9178 25.1874 17.3765C23.8895 18.1799 23.4173 18.78 23.5804 18.6744C23.4568 19.0452 23.1794 19.0629 23.5804 18.8289C24.5839 16.853 30.6573 15.1205 33.5313 14.657C33.6622 15.0236 31.1746 21.6227 30.75 27.3274C32.2643 35.5167 31.9147 36.9965 31.4608 38.0508C30.4101 42.0682 23.4259 43.077 23.4259 43.1497Z" fill="#FFAB4B"/>
<path d="M56.554 2.79C63.2973 -1.43019 65.0524 2.78999 66.474 7.17826C67.018 9.88287 67.3894 11.296 66.9994 13.9461C66.8456 17.6215 64.0495 25.6148 59.5826 32.2099C58.9299 29.4478 58.5432 27.9498 57.2957 25.3493C54.7523 21.4168 53.5816 20.3934 51.2696 18.427C52.7632 12.7782 53.4328 10.6703 58.2228 7.36368C57.897 7.36368 56.3686 8.44529 56.3686 8.44529C56.2335 6.3312 56.2935 4.7515 56.554 2.79Z" fill="#FF8D8D"/>
<path d="M19.223 21.7954C15.7159 24.9107 14.2785 27.5125 12.7024 35.7019C7.1707 31.8699 4.74431 28.354 2.10256 19.4777C0.0629389 11.7519 0.785663 9.41103 3.02966 6.37473C5.99369 5.09138 8.19115 5.18309 11.2808 6.37474C11.8405 8.03264 11.6386 9.15025 11.4972 10.8866C11.4972 10.8866 11.4972 11.154 11.353 11.1944C11.3845 11.2972 11.3426 11.3193 11.3426 11.3193C14.6445 13.4889 16.525 16.105 19.223 21.7954Z" fill="#FF8D8D"/>
<path d="M58.1921 7.3637C53.7377 10.144 52.3477 12.7051 51.1771 18.4579C54.9868 21.3679 56.8187 23.4087 58.6866 28.9341L59.5828 32.4571M59.5828 32.4571C60.2626 36.0419 61.0371 37.6169 62.704 40.7082L62.055 40.3065C62.5929 45.4056 60.4841 47.8234 57.265 52.2351C40.021 63.0513 38.5711 63.3485 20.4901 55.9126C15.3065 53.7808 11.2155 52.6861 12.0844 46.4871H11.2809C11.3157 44.8679 11.5296 43.9532 12.0844 42.3152C13.0804 39.7978 13.1802 38.3513 12.857 35.7328M59.5828 32.4571C66.4333 20.3586 68.0949 14.8995 66.6905 7.3637C64.5176 0.389373 61.943 -0.698245 55.3181 3.34628C50.3863 7.11292 47.9823 9.82724 44.502 16.0166M44.502 16.0166L46.6034 17.2527M44.502 16.0166C42.8244 15.7145 41.8839 15.6851 40.2064 16.0166L41.7207 14.4714C36.0345 13.7298 32.3651 14.0498 25.2801 17.2527M25.2801 17.2527L23.4568 18.8597M25.2801 17.2527C16.2475 7.90144 12.0328 5.46265 5.81104 5.38589C2.85849 5.83837 1.69209 7.07683 0.773804 11.6283C1.56615 20.3817 3.21196 24.5435 7.44891 31.1592C9.44684 33.6148 10.6558 34.4705 12.857 35.7328M12.857 35.7328C13.6827 28.4121 15.1838 25.5041 19.2231 21.8882C16.8096 15.7945 14.9162 13.8744 11.2809 11.1648" stroke="#793A30" stroke-linecap="round"/>
<path d="M30.2559 42.7195C32.2952 46.2605 34.4093 46.9047 40.2685 44.0174C46.6677 44.7147 47.6717 43.6914 48.9524 41.0198" stroke="#361814" stroke-linecap="round" stroke-linejoin="round"/>
<path d="M36.8072 48.2203C39.5445 48.7118 40.7727 48.6518 42.2152 47.7258" stroke="#361814" stroke-linecap="round" stroke-linejoin="round"/>
<path d="M43.1423 37.4042C43.1423 38.8038 41.7516 41.2362 39.2175 40.9272C36.9616 40.9272 35.3855 38.8038 35.3855 37.4042C35.3855 36.0047 36.7762 34.3757 39.2175 34.3757C41.6589 34.3757 43.1423 36.0047 43.1423 37.4042Z" fill="#361814"/>
<path d="M53.0311 33.1085C53.0311 34.3446 53.3092 36.7242 50.5897 37.1877C49.0537 37.1877 47.0049 35.7353 47.0049 33.5103C47.0049 32.0254 47.6539 29.6165 49.539 29.6165C51.5477 29.6165 53.0311 31.6237 53.0311 33.1085Z" fill="#361814"/>
<path d="M28.9212 36.2299C28.9212 36.9348 28.8241 37.6974 28.4744 38.3502C28.1424 38.9698 27.5626 39.5298 26.5123 39.8388C25.3021 39.7929 23.8332 38.4917 23.8332 36.5389C23.8332 35.8915 24.0611 35.018 24.502 34.3168C24.9425 33.6165 25.533 33.176 26.2381 33.176C27.053 33.176 27.7141 33.5912 28.1877 34.2024C28.668 34.8222 28.9212 35.604 28.9212 36.2299Z" fill="#361814" stroke="#361814"/>
<path d="M22.7768 34.901C25.0319 33.6988 25.8104 32.5607 26.8561 30.2037M47.7158 28.1641C49.884 30.1959 51.2853 30.6576 54.051 30.5127" stroke="#361814" stroke-linecap="round" stroke-linejoin="round"/>
<path d="M19.0068 25.5682C18.8523 28.2876 17.9252 32.954 17.4925 33.6339C15.6663 33.6339 11.59 28.6585 11.59 25.7536C11.59 24.8149 11.899 21.4271 14.9276 21.0254C16.7538 21.0254 19.1613 22.8487 19.0068 25.5682Z" fill="#48C6F8"/>
</svg>
