<svg width="26" height="22" viewBox="0 0 26 22" fill="none" xmlns="http://www.w3.org/2000/svg">
<path d="M6.47729 10.5396C6.47729 11.4543 6.26456 12.2284 5.87411 12.7601C5.49831 13.2719 4.93142 13.5985 4.10282 13.5985C2.41345 13.5985 1.04395 12.229 1.04395 10.5396C1.04395 9.63931 1.28405 8.86747 1.70538 8.33242C2.11609 7.81086 2.72312 7.48071 3.5553 7.48071C5.2193 7.48071 6.47729 8.82414 6.47729 10.5396Z" stroke="#9B3B11"/>
<path d="M11.8156 3.69575C11.8156 4.59111 11.543 5.62916 11.0522 6.43011C10.5592 7.23477 9.90784 7.71278 9.16736 7.71278C8.40289 7.71278 7.60898 7.20751 6.97904 6.38688C6.35408 5.57273 5.97161 4.54778 5.97161 3.69575C5.97161 1.9263 7.14115 0.5 8.75672 0.5C10.422 0.5 11.8156 1.98168 11.8156 3.69575Z" stroke="#9B3B11"/>
<path d="M20.0284 3.83271C20.0284 4.6953 19.6726 5.72341 19.082 6.53378C18.4866 7.35058 17.7285 7.84974 16.9695 7.84974C16.2225 7.84974 15.5357 7.36417 15.0088 6.55538C14.4853 5.75166 14.1844 4.71697 14.1844 3.83271C14.1844 2.14335 15.6908 0.636963 17.3802 0.636963C18.9703 0.636963 20.0284 2.03231 20.0284 3.83271Z" stroke="#9B3B11"/>
<path d="M17.5815 12.68C18.6162 13.6726 19.3259 15.1144 19.5939 16.5046C19.8666 17.919 19.6597 19.1346 19.0648 19.7835C18.7821 20.0918 18.0786 20.4792 17.0354 20.8129C16.0189 21.1379 14.7592 21.3872 13.4475 21.4702C10.853 21.6344 8.23272 21.1415 6.79163 19.5246C6.78935 19.3482 6.78431 19.1693 6.77919 18.9874C6.75545 18.1444 6.72987 17.2361 6.9681 16.2124C7.26821 14.9229 7.99748 13.4501 9.77332 11.8716C11.5427 10.2988 12.9015 10.0208 14.052 10.2983C15.2633 10.5904 16.372 11.5197 17.5815 12.68Z" stroke="#9B3B11"/>
<path d="M24.956 10.6765C24.956 11.5612 24.6904 12.2909 24.2451 12.7926C23.8056 13.2876 23.1586 13.5985 22.3078 13.5985C21.4571 13.5985 20.81 13.2876 20.3705 12.7926C19.9252 12.2909 19.6596 11.5612 19.6596 10.6765C19.6596 8.9871 21.166 7.48071 22.8553 7.48071C23.6584 7.48071 24.1472 7.81749 24.4633 8.34762C24.8011 8.91399 24.956 9.73288 24.956 10.6765Z" stroke="#9B3B11"/>
</svg>
