<svg width="69" height="62" viewBox="0 0 69 62" fill="none" xmlns="http://www.w3.org/2000/svg">
<path d="M57.652 52.2351C40.408 63.0512 38.9581 63.3485 20.8772 55.9126C15.6935 53.7808 11.6026 52.6861 12.4715 46.4871H11.668C11.7028 44.8679 11.9166 43.9532 12.4715 42.3152C13.4674 39.7978 13.5673 38.3513 13.2441 35.7328C11.0428 34.4705 9.83393 33.6148 7.83601 31.1591C3.59906 24.5435 1.95326 20.3817 1.16092 11.6283C2.0792 7.07683 3.2456 5.83837 6.19814 5.38589C12.4199 5.46265 16.6346 7.90144 25.6672 17.2527C32.7522 14.0498 36.4215 13.7298 42.1077 14.4714L40.5934 16.0166C42.2709 15.6851 43.2114 15.7145 44.8889 16.0166C48.3692 9.82724 50.7733 7.11292 55.7051 3.34628C62.3299 -0.698245 64.9045 0.389373 67.0774 7.3637C68.4818 14.8995 66.8202 20.3586 59.9697 32.4571C60.6496 36.0419 61.424 37.6169 63.0909 40.7082L62.442 40.3065C62.9798 45.4055 60.8711 47.8234 57.652 52.2351Z" fill="#FEFEFE"/>
<path d="M58.5791 7.3637C54.1246 10.144 52.7347 12.7051 51.564 18.4579C55.3737 21.3679 57.2056 23.4087 59.0735 28.9341L59.9697 32.4571M59.9697 32.4571C60.6496 36.0419 61.424 37.6169 63.0909 40.7082L62.442 40.3065C62.9798 45.4055 60.8711 47.8234 57.652 52.2351C40.408 63.0512 38.9581 63.3485 20.8772 55.9126C15.6935 53.7808 11.6026 52.6861 12.4715 46.4871H11.668C11.7028 44.8679 11.9166 43.9532 12.4715 42.3152C13.4674 39.7978 13.5673 38.3513 13.2441 35.7328M59.9697 32.4571C66.8202 20.3586 68.4818 14.8995 67.0774 7.3637C64.9045 0.389373 62.3299 -0.698245 55.7051 3.34628C50.7733 7.11292 48.3692 9.82724 44.8889 16.0166M44.8889 16.0166L46.9904 17.2527M44.8889 16.0166C43.2114 15.7145 42.2709 15.6851 40.5934 16.0166L42.1077 14.4714C36.4215 13.7298 32.7522 14.0498 25.6672 17.2527M25.6672 17.2527L23.8439 18.8597M25.6672 17.2527C16.6346 7.90144 12.4199 5.46265 6.19814 5.38589C3.2456 5.83837 2.0792 7.07683 1.16092 11.6283C1.95326 20.3817 3.59906 24.5435 7.83601 31.1591C9.83393 33.6148 11.0428 34.4705 13.2441 35.7328M13.2441 35.7328C14.0698 28.4121 15.5708 25.5041 19.6101 21.8882C17.1967 15.7945 15.3033 13.8744 11.668 11.1648" stroke="#793A30" stroke-linecap="round"/>
<path d="M62.7199 40.1211C62.7199 40.1211 62.3966 40.8358 62.3324 41.06C62.3507 41.0848 62.3565 41.1018 62.349 41.11C62.3166 41.1455 62.315 41.1208 62.3324 41.06C61.9782 40.5797 56.9328 37.1911 52.5836 39.1013C47.4537 38.9468 45.1261 36.4436 44.4252 32.2717C44.1358 25.7494 39.5116 16.4492 40.3459 16.1711C42.6946 15.8003 44.7342 15.7076 46.7429 17.0481C46.111 16.6048 45.8544 16.1902 44.9814 15.9239C48.5044 9.74323 51.5054 6.42484 57.0337 2.6355C56.6342 4.76087 56.7163 6.45463 56.7864 8.4144C53.9124 11.1957 52.7998 13.4016 51.4711 18.3961C56.7087 22.5632 58.3792 25.764 59.8459 32.7352L62.7199 40.1211Z" fill="#FFAB4B"/>
<path d="M23.8132 43.1497C23.8132 43.4399 14.8513 45.1583 13.8006 51.9262C12.0391 51.1227 12.5335 46.9319 12.5335 46.6418C12.5335 46.5032 11.9464 46.4564 11.761 46.24C11.9773 43.9223 13.3061 40.3066 13.3988 38.6688C13.8296 38.6688 12.1009 30.5412 16.8909 24.7623C17.6775 23.8134 18.6916 22.6175 19.5795 21.7956C19.9158 21.4843 15.5621 12.6482 11.4519 11.1649C11.6683 9.24888 11.4847 6.67321 11.6683 6.52943C12.0252 6.24972 16.6128 8.66176 19.5795 11.6594C20.7847 12.741 24.9549 15.9178 25.5747 17.3765C24.2768 18.1799 23.8046 18.78 23.9677 18.6744C23.8441 19.0452 23.5667 19.0629 23.9677 18.8289C24.9712 16.853 31.0446 15.1205 33.9186 14.657C34.0495 15.0236 31.5619 21.6227 31.1373 27.3274C32.6515 35.5167 32.302 36.9965 31.848 38.0507C30.7973 42.0682 23.8132 43.077 23.8132 43.1497Z" fill="#FFAB4B"/>
<path d="M56.9412 2.79C63.6845 -1.43019 65.4396 2.78999 66.8611 7.17826C67.4051 9.88287 67.7765 11.296 67.3865 13.9461C67.2327 17.6215 64.4367 25.6148 59.9697 32.2099C59.317 29.4478 58.9304 27.9498 57.6829 25.3493C55.1395 21.4168 53.9688 20.3934 51.6568 18.427C53.1503 12.7782 53.82 10.6703 58.61 7.36368C58.2841 7.36368 56.7558 8.44529 56.7558 8.44529C56.6206 6.3312 56.6807 4.7515 56.9412 2.79Z" fill="#FF8D8D"/>
<path d="M19.61 21.7954C16.1029 24.9107 14.6655 27.5125 13.0895 35.7019C7.55779 31.8699 5.13142 28.354 2.48967 19.4777C0.450057 11.7519 1.17278 9.41103 3.41676 6.37473C6.38078 5.09138 8.57825 5.18309 11.6679 6.37474C12.2276 8.03264 12.0257 9.15025 11.8842 10.8866C11.8842 10.8866 11.8842 11.154 11.7401 11.1944C11.7716 11.2972 11.7297 11.3193 11.7297 11.3193C15.0316 13.4889 16.9121 16.105 19.61 21.7954Z" fill="#FF8D8D"/>
<path d="M58.5791 7.3637C54.1246 10.144 52.7347 12.7051 51.564 18.4579C55.3737 21.3679 57.2056 23.4087 59.0735 28.9341L59.9697 32.4571M59.9697 32.4571C60.6496 36.0419 61.424 37.6169 63.0909 40.7082L62.442 40.3065C62.9798 45.4055 60.8711 47.8234 57.652 52.2351C40.408 63.0512 38.9581 63.3485 20.8772 55.9126C15.6935 53.7808 11.6026 52.6861 12.4715 46.4871H11.668C11.7028 44.8679 11.9166 43.9532 12.4715 42.3152C13.4674 39.7978 13.5673 38.3513 13.2441 35.7328M59.9697 32.4571C66.8202 20.3586 68.4818 14.8995 67.0774 7.3637C64.9045 0.389373 62.3299 -0.698245 55.7051 3.34628C50.7733 7.11292 48.3692 9.82724 44.8889 16.0166M44.8889 16.0166L46.9904 17.2527M44.8889 16.0166C43.2114 15.7145 42.2709 15.6851 40.5934 16.0166L42.1077 14.4714C36.4215 13.7298 32.7522 14.0498 25.6672 17.2527M25.6672 17.2527L23.8439 18.8597M25.6672 17.2527C16.6346 7.90144 12.4199 5.46265 6.19814 5.38589C3.2456 5.83837 2.0792 7.07683 1.16092 11.6283C1.95326 20.3817 3.59906 24.5435 7.83601 31.1591C9.83393 33.6148 11.0428 34.4705 13.2441 35.7328M13.2441 35.7328C14.0698 28.4121 15.5708 25.5041 19.6101 21.8882C17.1967 15.7945 15.3033 13.8744 11.668 11.1648" stroke="#793A30" stroke-linecap="round"/>
<path d="M57.652 52.2351C40.408 63.0512 38.9581 63.3485 20.8772 55.9126C15.6935 53.7808 11.6026 52.6861 12.4715 46.4871H11.668C11.7028 44.8679 11.9166 43.9532 12.4715 42.3152C13.4674 39.7978 13.5673 38.3513 13.2441 35.7328C11.0428 34.4705 9.83393 33.6148 7.83601 31.1591C3.59906 24.5435 1.95326 20.3817 1.16092 11.6283C2.0792 7.07683 3.2456 5.83837 6.19814 5.38589C12.4199 5.46265 16.6346 7.90144 25.6672 17.2527C32.7522 14.0498 36.4215 13.7298 42.1077 14.4714L40.5934 16.0166C42.2709 15.6851 43.2114 15.7145 44.8889 16.0166C48.3692 9.82724 50.7733 7.11292 55.7051 3.34628C62.3299 -0.698245 64.9045 0.389373 67.0774 7.3637C68.4818 14.8995 66.8202 20.3586 59.9697 32.4571C60.6496 36.0419 61.424 37.6169 63.0909 40.7082L62.442 40.3065C62.9798 45.4055 60.8711 47.8234 57.652 52.2351Z" fill="#FEFEFE"/>
<path d="M58.5791 7.3637C54.1246 10.144 52.7347 12.7051 51.564 18.4579C55.3737 21.3679 57.2056 23.4087 59.0735 28.9341L59.9697 32.4571M59.9697 32.4571C60.6496 36.0419 61.424 37.6169 63.0909 40.7082L62.442 40.3065C62.9798 45.4055 60.8711 47.8234 57.652 52.2351C40.408 63.0512 38.9581 63.3485 20.8772 55.9126C15.6935 53.7808 11.6026 52.6861 12.4715 46.4871H11.668C11.7028 44.8679 11.9166 43.9532 12.4715 42.3152C13.4674 39.7978 13.5673 38.3513 13.2441 35.7328M59.9697 32.4571C66.8202 20.3586 68.4818 14.8995 67.0774 7.3637C64.9045 0.389373 62.3299 -0.698245 55.7051 3.34628C50.7733 7.11292 48.3692 9.82724 44.8889 16.0166M44.8889 16.0166L46.9904 17.2527M44.8889 16.0166C43.2114 15.7145 42.2709 15.6851 40.5934 16.0166L42.1077 14.4714C36.4215 13.7298 32.7522 14.0498 25.6672 17.2527M25.6672 17.2527L23.8439 18.8597M25.6672 17.2527C16.6346 7.90144 12.4199 5.46265 6.19814 5.38589C3.2456 5.83837 2.0792 7.07683 1.16092 11.6283C1.95326 20.3817 3.59906 24.5435 7.83601 31.1591C9.83393 33.6148 11.0428 34.4705 13.2441 35.7328M13.2441 35.7328C14.0698 28.4121 15.5708 25.5041 19.6101 21.8882C17.1967 15.7945 15.3033 13.8744 11.668 11.1648" stroke="#793A30" stroke-linecap="round"/>
<path d="M62.7199 40.1211C62.7199 40.1211 62.3966 40.8358 62.3324 41.06C62.3507 41.0848 62.3565 41.1018 62.349 41.11C62.3166 41.1455 62.315 41.1208 62.3324 41.06C61.9782 40.5797 56.9328 37.1911 52.5836 39.1013C47.4537 38.9468 45.1261 36.4436 44.4252 32.2717C44.1358 25.7494 39.5116 16.4492 40.3459 16.1711C42.6946 15.8003 44.7342 15.7076 46.7429 17.0481C46.111 16.6048 45.8544 16.1902 44.9814 15.9239C48.5044 9.74323 51.5054 6.42484 57.0337 2.6355C56.6342 4.76087 56.7163 6.45463 56.7864 8.4144C53.9124 11.1957 52.7998 13.4016 51.4711 18.3961C56.7087 22.5632 58.3792 25.764 59.8459 32.7352L62.7199 40.1211Z" fill="#FFAB4B"/>
<path d="M23.8132 43.1497C23.8132 43.4399 14.8513 45.1583 13.8006 51.9262C12.0391 51.1227 12.5335 46.9319 12.5335 46.6418C12.5335 46.5032 11.9464 46.4564 11.761 46.24C11.9773 43.9223 13.3061 40.3066 13.3988 38.6688C13.8296 38.6688 12.1009 30.5412 16.8909 24.7623C17.6775 23.8134 18.6916 22.6175 19.5795 21.7956C19.9158 21.4843 15.5621 12.6482 11.4519 11.1649C11.6683 9.24888 11.4847 6.67321 11.6683 6.52943C12.0252 6.24972 16.6128 8.66176 19.5795 11.6594C20.7847 12.741 24.9549 15.9178 25.5747 17.3765C24.2768 18.1799 23.8046 18.78 23.9677 18.6744C23.8441 19.0452 23.5667 19.0629 23.9677 18.8289C24.9712 16.853 31.0446 15.1205 33.9186 14.657C34.0495 15.0236 31.5619 21.6227 31.1373 27.3274C32.6515 35.5167 32.302 36.9965 31.848 38.0507C30.7973 42.0682 23.8132 43.077 23.8132 43.1497Z" fill="#FFAB4B"/>
<path d="M56.9412 2.79C63.6845 -1.43019 65.4396 2.78999 66.8611 7.17826C67.4051 9.88287 67.7765 11.296 67.3865 13.9461C67.2327 17.6215 64.4367 25.6148 59.9697 32.2099C59.317 29.4478 58.9304 27.9498 57.6829 25.3493C55.1395 21.4168 53.9688 20.3934 51.6568 18.427C53.1503 12.7782 53.82 10.6703 58.61 7.36368C58.2841 7.36368 56.7558 8.44529 56.7558 8.44529C56.6206 6.3312 56.6807 4.7515 56.9412 2.79Z" fill="#FF8D8D"/>
<path d="M19.61 21.7954C16.1029 24.9107 14.6655 27.5125 13.0895 35.7019C7.55779 31.8699 5.13142 28.354 2.48967 19.4777C0.450057 11.7519 1.17278 9.41103 3.41676 6.37473C6.38078 5.09138 8.57825 5.18309 11.6679 6.37474C12.2276 8.03264 12.0257 9.15025 11.8842 10.8866C11.8842 10.8866 11.8842 11.154 11.7401 11.1944C11.7716 11.2972 11.7297 11.3193 11.7297 11.3193C15.0316 13.4889 16.9121 16.105 19.61 21.7954Z" fill="#FF8D8D"/>
<path d="M58.5791 7.3637C54.1246 10.144 52.7347 12.7051 51.564 18.4579C55.3737 21.3679 57.2056 23.4087 59.0735 28.9341L59.9697 32.4571M59.9697 32.4571C60.6496 36.0419 61.424 37.6169 63.0909 40.7082L62.442 40.3065C62.9798 45.4055 60.8711 47.8234 57.652 52.2351C40.408 63.0512 38.9581 63.3485 20.8772 55.9126C15.6935 53.7808 11.6026 52.6861 12.4715 46.4871H11.668C11.7028 44.8679 11.9166 43.9532 12.4715 42.3152C13.4674 39.7978 13.5673 38.3513 13.2441 35.7328M59.9697 32.4571C66.8202 20.3586 68.4818 14.8995 67.0774 7.3637C64.9045 0.389373 62.3299 -0.698245 55.7051 3.34628C50.7733 7.11292 48.3692 9.82724 44.8889 16.0166M44.8889 16.0166L46.9904 17.2527M44.8889 16.0166C43.2114 15.7145 42.2709 15.6851 40.5934 16.0166L42.1077 14.4714C36.4215 13.7298 32.7522 14.0498 25.6672 17.2527M25.6672 17.2527L23.8439 18.8597M25.6672 17.2527C16.6346 7.90144 12.4199 5.46265 6.19814 5.38589C3.2456 5.83837 2.0792 7.07683 1.16092 11.6283C1.95326 20.3817 3.59906 24.5435 7.83601 31.1591C9.83393 33.6148 11.0428 34.4705 13.2441 35.7328M13.2441 35.7328C14.0698 28.4121 15.5708 25.5041 19.6101 21.8882C17.1967 15.7945 15.3033 13.8744 11.668 11.1648" stroke="#793A30" stroke-linecap="round"/>
<path d="M33.1765 41.0482C35.0307 46.0236 39.419 42.0062 39.7898 42.0989C40.1607 42.1916 44.827 44.942 45.6614 39.3794" stroke="#361814" stroke-linecap="round"/>
<ellipse cx="26.7179" cy="36.4437" rx="3.05942" ry="4.01742" fill="#361814"/>
<path d="M53.3874 33.6623C53.3874 35.7616 52.4267 37.2471 50.8224 37.2471C49.2181 37.2471 47.3304 35.3599 47.3304 33.2606C47.3304 31.1613 48.6309 29.4595 50.2353 29.4595C51.8396 29.4595 53.3874 31.563 53.3874 33.6623Z" fill="#361814"/>
<path d="M39.728 40.9247C37.5092 40.9247 35.7106 39.0914 35.7106 37.4017C35.7106 35.712 37.5092 34.3423 39.728 34.3423C41.9467 34.3423 43.7454 35.712 43.7454 37.4017C43.7454 39.0914 41.9467 40.9247 39.728 40.9247Z" fill="#361814"/>
</svg>
