<svg width="47" height="45" viewBox="0 0 47 45" fill="none" xmlns="http://www.w3.org/2000/svg">
<path fill-rule="evenodd" clip-rule="evenodd" d="M32.7907 3.29268V7.00244L37.1628 10.5146V3.29268H32.7907ZM40.4419 13.1488V2.7439C40.4419 1.22927 39.2177 0 37.7093 0H32.2442C30.7358 0 29.5116 1.22927 29.5116 2.7439V4.36829L28.6219 3.65268C27.1682 2.48458 25.3618 1.84817 23.5 1.84817C21.6382 1.84817 19.8318 2.48458 18.3781 3.65268L0.616465 17.921C0.276717 18.1937 0.0587858 18.5908 0.0106152 19.0249C-0.0375555 19.459 0.0879798 19.8946 0.359605 20.2357C0.63123 20.5769 1.02669 20.7957 1.459 20.8441C1.89131 20.8925 2.32504 20.7664 2.66479 20.4937L4.37209 19.1195V41.7073H1.63953C1.2047 41.7073 0.787681 41.8808 0.480209 42.1895C0.172736 42.4983 0 42.917 0 43.3537C0 43.7903 0.172736 44.2091 0.480209 44.5178C0.787681 44.8265 1.2047 45 1.63953 45H45.3605C45.7953 45 46.2123 44.8265 46.5198 44.5178C46.8273 44.2091 47 43.7903 47 43.3537C47 42.917 46.8273 42.4983 46.5198 42.1895C46.2123 41.8808 45.7953 41.7073 45.3605 41.7073H42.6279V19.1195L44.3374 20.4937C44.6777 20.76 45.1088 20.8808 45.5373 20.8301C45.9658 20.7793 46.3571 20.561 46.6263 20.2225C46.8955 19.8839 47.021 19.4525 46.9756 19.0217C46.9302 18.5908 46.7174 18.1954 46.3835 17.921L40.4419 13.1488ZM39.3488 16.4854L26.5736 6.22317C25.7013 5.52209 24.6173 5.14011 23.5 5.14011C22.3827 5.14011 21.2987 5.52209 20.4264 6.22317L7.65116 16.4854V41.7073H15.3023V32.2683C15.3023 30.8107 15.3023 29.5529 15.4379 28.5454C15.5821 27.4654 15.9079 26.4315 16.7429 25.5929C17.578 24.7544 18.6098 24.4273 19.6832 24.2824C20.6866 24.1463 21.9392 24.1463 23.3929 24.1463H23.6071C25.0608 24.1463 26.3134 24.1463 27.3168 24.2824C28.3924 24.4273 29.422 24.7544 30.2571 25.5929C31.0921 26.4315 31.4179 27.4654 31.5621 28.5454C31.6977 29.5529 31.6977 30.8107 31.6977 32.2705V41.7073H39.3488V16.4854ZM28.4186 41.7073V32.378C28.4186 30.78 28.4142 29.7439 28.3137 28.9844C28.2175 28.271 28.0645 28.0471 27.9377 27.922C27.8109 27.7968 27.5901 27.641 26.8796 27.5444C26.1211 27.4434 25.0914 27.439 23.5 27.439C21.9086 27.439 20.8767 27.4434 20.1204 27.5444C19.4099 27.641 19.1869 27.7968 19.0623 27.922C18.9377 28.0471 18.7825 28.271 18.6863 28.9844C18.5858 29.7461 18.5814 30.78 18.5814 32.378V41.7073H28.4186ZM23.5 13.1707C23.1412 13.1707 22.7858 13.2417 22.4543 13.3796C22.1228 13.5175 21.8215 13.7196 21.5678 13.9744C21.314 14.2292 21.1128 14.5317 20.9754 14.8646C20.8381 15.1975 20.7674 15.5543 20.7674 15.9146C20.7674 16.275 20.8381 16.6318 20.9754 16.9647C21.1128 17.2976 21.314 17.6001 21.5678 17.8549C21.8215 18.1097 22.1228 18.3118 22.4543 18.4497C22.7858 18.5876 23.1412 18.6585 23.5 18.6585C24.2247 18.6585 24.9198 18.3694 25.4322 17.8549C25.9447 17.3403 26.2326 16.6424 26.2326 15.9146C26.2326 15.1869 25.9447 14.489 25.4322 13.9744C24.9198 13.4598 24.2247 13.1707 23.5 13.1707ZM17.4884 15.9146C17.4884 14.3136 18.1217 12.7782 19.2491 11.6461C20.3765 10.514 21.9056 9.87805 23.5 9.87805C25.0944 9.87805 26.6235 10.514 27.7509 11.6461C28.8783 12.7782 29.5116 14.3136 29.5116 15.9146C29.5116 17.5156 28.8783 19.0511 27.7509 20.1831C26.6235 21.3152 25.0944 21.9512 23.5 21.9512C21.9056 21.9512 20.3765 21.3152 19.2491 20.1831C18.1217 19.0511 17.4884 17.5156 17.4884 15.9146Z" fill="#9B3B11"/>
</svg>
