<svg width="45" height="45" viewBox="0 0 45 45" fill="none" xmlns="http://www.w3.org/2000/svg">
<path fill-rule="evenodd" clip-rule="evenodd" d="M35.5411 13.8479C35.8467 13.5934 36.2408 13.4707 36.6369 13.5067C37.0329 13.5427 37.3984 13.7345 37.6531 14.0399L43.9021 21.5399C44.1455 21.8467 44.2593 22.2365 44.2192 22.626C44.179 23.0155 43.9882 23.3739 43.6873 23.6246C43.3865 23.8753 42.9996 23.9984 42.6092 23.9676C42.2188 23.9369 41.8559 23.7547 41.5981 23.4599L35.3491 15.9599C35.0946 15.6544 34.9719 15.2602 35.0079 14.8642C35.0439 14.4682 35.2357 14.1026 35.5411 13.8479Z" fill="#9B3B11"/>
<path fill-rule="evenodd" clip-rule="evenodd" d="M35.5411 31.152C35.2357 30.8973 35.0439 30.5318 35.0079 30.1358C34.9719 29.7397 35.0946 29.3456 35.3491 29.04L41.5981 21.54C41.7224 21.3833 41.8768 21.2531 42.0522 21.157C42.2276 21.0608 42.4205 21.0007 42.6194 20.9802C42.8184 20.9598 43.0194 20.9793 43.2108 21.0376C43.4021 21.096 43.5798 21.192 43.7334 21.32C43.8871 21.4481 44.0136 21.6055 44.1055 21.7832C44.1974 21.9609 44.2528 22.1551 44.2685 22.3545C44.2842 22.5539 44.2599 22.7544 44.197 22.9443C44.1341 23.1341 44.0338 23.3095 43.9021 23.46L37.6531 30.96C37.3984 31.2654 37.0329 31.4572 36.6369 31.4932C36.2408 31.5292 35.8467 31.4065 35.5411 31.152Z" fill="#9B3B11"/>
<path fill-rule="evenodd" clip-rule="evenodd" d="M42 22.5C42 22.8978 41.842 23.2794 41.5607 23.5607C41.2794 23.842 40.8978 24 40.5 24H18C17.6022 24 17.2206 23.842 16.9393 23.5607C16.658 23.2794 16.5 22.8978 16.5 22.5C16.5 22.1022 16.658 21.7206 16.9393 21.4393C17.2206 21.158 17.6022 21 18 21H40.5C40.8978 21 41.2794 21.158 41.5607 21.4393C41.842 21.7206 42 22.1022 42 22.5ZM0 1.5C0 1.10218 0.158036 0.720645 0.43934 0.43934C0.720645 0.158036 1.10218 0 1.5 0H28.5C28.8978 0 29.2794 0.158036 29.5607 0.43934C29.842 0.720645 30 1.10218 30 1.5C30 1.89782 29.842 2.27936 29.5607 2.56066C29.2794 2.84196 28.8978 3 28.5 3H1.5C1.10218 3 0.720645 2.84196 0.43934 2.56066C0.158036 2.27936 0 1.89782 0 1.5ZM0 43.5C0 43.1022 0.158036 42.7206 0.43934 42.4393C0.720645 42.158 1.10218 42 1.5 42H28.5C28.8978 42 29.2794 42.158 29.5607 42.4393C29.842 42.7206 30 43.1022 30 43.5C30 43.8978 29.842 44.2794 29.5607 44.5607C29.2794 44.842 28.8978 45 28.5 45H1.5C1.10218 45 0.720645 44.842 0.43934 44.5607C0.158036 44.2794 0 43.8978 0 43.5Z" fill="#9B3B11"/>
<path fill-rule="evenodd" clip-rule="evenodd" d="M28.5 0C28.8978 0 29.2794 0.158036 29.5607 0.43934C29.842 0.720645 30 1.10218 30 1.5V13.5C30 13.8978 29.842 14.2794 29.5607 14.5607C29.2794 14.842 28.8978 15 28.5 15C28.1022 15 27.7206 14.842 27.4393 14.5607C27.158 14.2794 27 13.8978 27 13.5V1.5C27 1.10218 27.158 0.720645 27.4393 0.43934C27.7206 0.158036 28.1022 0 28.5 0ZM28.5 30C28.8978 30 29.2794 30.158 29.5607 30.4393C29.842 30.7206 30 31.1022 30 31.5V43.5C30 43.8978 29.842 44.2794 29.5607 44.5607C29.2794 44.842 28.8978 45 28.5 45C28.1022 45 27.7206 44.842 27.4393 44.5607C27.158 44.2794 27 43.8978 27 43.5V31.5C27 31.1022 27.158 30.7206 27.4393 30.4393C27.7206 30.158 28.1022 30 28.5 30ZM1.5 0C1.89782 0 2.27936 0.158036 2.56066 0.43934C2.84196 0.720645 3 1.10218 3 1.5V43.5C3 43.8978 2.84196 44.2794 2.56066 44.5607C2.27936 44.842 1.89782 45 1.5 45C1.10218 45 0.720645 44.842 0.43934 44.5607C0.158036 44.2794 0 43.8978 0 43.5V1.5C0 1.10218 0.158036 0.720645 0.43934 0.43934C0.720645 0.158036 1.10218 0 1.5 0Z" fill="#9B3B11"/>
</svg>
