<svg width="28" height="25" viewBox="0 0 28 25" fill="none" xmlns="http://www.w3.org/2000/svg">
<path d="M23.128 20.6401C16.3734 24.7863 15.8054 24.9003 8.723 22.0498C6.69254 21.2326 5.09009 20.813 5.43043 18.4367H5.1157C5.12934 17.816 5.2131 17.4654 5.43043 16.8375C5.82055 15.8725 5.85966 15.318 5.73306 14.3143C4.87082 13.8303 4.39728 13.5024 3.61468 12.561C1.95504 10.025 1.31037 8.42965 1 5.0742C1.3597 3.32945 1.81659 2.85471 2.97312 2.68126C5.41023 2.71068 7.06116 3.64555 10.5993 7.23021C13.3745 6.00242 14.8118 5.87974 17.0391 6.16405L16.446 6.75636C17.1031 6.6293 17.4715 6.64057 18.1286 6.75636C19.4918 4.38378 20.4335 3.34329 22.3653 1.89941C24.9603 0.349006 25.9688 0.765926 26.82 3.43942C27.3701 6.32816 26.7192 8.4208 24.0358 13.0585C24.3021 14.4327 24.6055 15.0365 25.2584 16.2215L25.0042 16.0675C25.2149 18.0221 24.3889 18.949 23.128 20.6401Z" fill="#FEFEFE"/>
<path d="M23.4911 3.43942C21.7463 4.5052 21.2018 5.48696 20.7433 7.69221C22.2355 8.80771 22.9531 9.58999 23.6848 11.7081L24.0358 13.0586M24.0358 13.0586C24.3021 14.4327 24.6055 15.0365 25.2584 16.2215L25.0042 16.0675C25.2149 18.0221 24.3889 18.949 23.128 20.6401C16.3734 24.7863 15.8054 24.9003 8.723 22.0498C6.69254 21.2326 5.09009 20.813 5.43043 18.4367H5.1157C5.12934 17.816 5.2131 17.4654 5.43043 16.8375C5.82055 15.8725 5.85966 15.318 5.73306 14.3143M24.0358 13.0586C26.7192 8.4208 27.3701 6.32816 26.82 3.43942C25.9688 0.765926 24.9603 0.349006 22.3653 1.89941C20.4335 3.34329 19.4918 4.38378 18.1286 6.75636M18.1286 6.75636L18.9517 7.23021M18.1286 6.75636C17.4715 6.64057 17.1031 6.6293 16.446 6.75636L17.0391 6.16405C14.8118 5.87974 13.3745 6.00242 10.5993 7.23021M10.5993 7.23021L9.88508 7.84621M10.5993 7.23021C7.06116 3.64555 5.41023 2.71068 2.97312 2.68126C1.81659 2.85471 1.3597 3.32945 1 5.0742C1.31037 8.42965 1.95504 10.025 3.61468 12.561C4.39728 13.5024 4.87082 13.8303 5.73306 14.3143M5.73306 14.3143C6.05651 11.508 6.64447 10.3932 8.22669 9.00714C7.28133 6.67121 6.53968 5.93519 5.1157 4.8965" stroke="#793A30" stroke-width="0.5" stroke-linecap="round"/>
</svg>
