<svg width="38" height="38" viewBox="0 0 38 38" fill="none" xmlns="http://www.w3.org/2000/svg">
<rect width="38" height="38" rx="19" fill="#FEFEFE"/>
<path d="M28.128 27.1401C21.3734 31.2863 20.8054 31.4003 13.723 28.5498C11.6925 27.7326 10.0901 27.313 10.4304 24.9367H10.1157C10.1293 24.316 10.2131 23.9654 10.4304 23.3375C10.8206 22.3725 10.8597 21.818 10.7331 20.8143C9.87082 20.3303 9.39728 20.0024 8.61468 19.061C6.95504 16.525 6.31037 14.9296 6 11.5742C6.3597 9.82945 6.81659 9.35471 7.97312 9.18126C10.4102 9.21068 12.0612 10.1456 15.5993 13.7302C18.3745 12.5024 19.8118 12.3797 22.0391 12.6641L21.446 13.2564C22.1031 13.1293 22.4715 13.1406 23.1286 13.2564C24.4918 10.8838 25.4335 9.84329 27.3653 8.39941C29.9603 6.84901 30.9688 7.26593 31.82 9.93942C32.3701 12.8282 31.7192 14.9208 29.0358 19.5585C29.3021 20.9327 29.6055 21.5365 30.2584 22.7215L30.0042 22.5675C30.2149 24.5221 29.3889 25.449 28.128 27.1401Z" fill="#FEFEFE"/>
<path d="M28.4911 9.93942C26.7463 11.0052 26.2018 11.987 25.7433 14.1922C27.2355 15.3077 27.9531 16.09 28.6848 18.2081L29.0358 19.5585M29.0358 19.5585C29.3021 20.9327 29.6055 21.5365 30.2584 22.7215L30.0042 22.5675C30.2149 24.5221 29.3889 25.449 28.128 27.1401C21.3734 31.2863 20.8054 31.4003 13.723 28.5498C11.6925 27.7326 10.0901 27.313 10.4304 24.9367H10.1157C10.1293 24.316 10.2131 23.9654 10.4304 23.3375C10.8206 22.3725 10.8597 21.818 10.7331 20.8143M29.0358 19.5585C31.7192 14.9208 32.3701 12.8282 31.82 9.93942C30.9688 7.26593 29.9603 6.84901 27.3653 8.39941C25.4335 9.84329 24.4918 10.8838 23.1286 13.2564M23.1286 13.2564L23.9517 13.7302M23.1286 13.2564C22.4715 13.1406 22.1031 13.1293 21.446 13.2564L22.0391 12.6641C19.8118 12.3797 18.3745 12.5024 15.5993 13.7302M15.5993 13.7302L14.8851 14.3462M15.5993 13.7302C12.0612 10.1456 10.4102 9.21068 7.97312 9.18126C6.81659 9.35471 6.3597 9.82945 6 11.5742C6.31037 14.9296 6.95504 16.525 8.61468 19.061C9.39728 20.0024 9.87082 20.3303 10.7331 20.8143M10.7331 20.8143C11.0565 18.008 11.6445 16.8932 13.2267 15.5071C12.2813 13.1712 11.5397 12.4352 10.1157 11.3965" stroke="#793A30" stroke-width="0.5" stroke-linecap="round"/>
</svg>
