<svg width="18" height="22" viewBox="0 0 18 22" fill="none" xmlns="http://www.w3.org/2000/svg">
<path d="M13.75 5.5C13.75 8.28576 11.6038 10.5 9 10.5C6.39625 10.5 4.25 8.28576 4.25 5.5C4.25 2.71424 6.39625 0.5 9 0.5C11.6038 0.5 13.75 2.71424 13.75 5.5ZM9 13.8571C10.1971 13.8571 11.3191 13.5616 12.3278 13.0714H12.6C15.2834 13.0714 17.5 15.3593 17.5 18.2286V19.6429C17.5 20.6902 16.6944 21.5 15.75 21.5H2.25C1.30562 21.5 0.5 20.6902 0.5 19.6429V18.2286C0.5 15.3593 2.71656 13.0714 5.4 13.0714H5.67262C6.68456 13.5612 7.80212 13.8571 9 13.8571Z" fill="#9B3B11" stroke="#9B3B11"/>
</svg>
