<svg width="180" height="153" viewBox="0 0 180 153" fill="none" xmlns="http://www.w3.org/2000/svg">
<path d="M24.9618 148.008L19.7206 88.1928L89.8484 14.2495L157.9 81.2493L153.113 148.008H24.9618Z" fill="#D18C65" stroke="#331914"/>
<path d="M56.4419 92.0444C56.4419 92.0444 67.4595 61.5647 94.2101 64.0164C120.961 66.468 126.545 92.0444 126.545 92.0444C126.545 92.0444 128.228 108.667 128.069 119.344C127.894 131.089 125.286 149.293 125.286 149.293H56.4419C54.7466 126.936 54.8248 114.401 56.4419 92.0444Z" fill="#361814"/>
<path d="M106.799 122.901C112.583 122.901 117.057 122.699 120.503 122.024C123.957 121.348 126.435 120.187 128.17 118.226C129.901 116.273 130.834 113.591 131.344 110.004C131.853 106.417 131.948 101.857 131.948 96.0959C131.948 84.5137 129.637 74.7942 124.348 67.9612C119.042 61.1048 110.797 57.2313 99.1127 57.2313C97.5677 57.2313 96.0739 57.2235 94.632 57.2161C90.6932 57.1957 87.1416 57.1774 83.9903 57.3238C79.6858 57.5238 76.0601 58.0325 73.1458 59.2963C70.2075 60.5704 68.0085 62.6052 66.5571 65.8033C65.1159 68.9787 64.4225 73.2769 64.4225 79.0715C64.4225 102.382 83.3727 122.901 106.799 122.901Z" fill="#757575" stroke="#361814"/>
<rect x="24.5037" y="139.496" width="129.075" height="9.1439" fill="#431807"/>
<path d="M92.3541 132.455C103.514 132.455 112.347 122.72 112.347 111.8C112.347 100.758 103.396 91.8069 92.3541 91.8069C81.3125 91.8069 72.3615 100.758 72.3615 111.8C72.3615 122.72 81.1939 132.455 92.3541 132.455Z" fill="#FB7A09" stroke="#361814" stroke-width="5"/>
<path d="M95.2696 112.028C95.0708 123.689 95.2654 124.84 92.2879 124.683C88.5111 124.485 89.7699 124.683 89.5048 112.028C89.5049 98.7757 89.8363 99.372 92.3542 99.372C94.8721 99.372 95.5067 98.1151 95.2696 112.028Z" fill="#431807"/>
<path d="M92.3173 109.158C103.979 109.357 105.13 109.162 104.973 112.14C104.774 115.917 104.973 114.658 92.3173 114.923C79.0653 114.923 79.6616 114.592 79.6616 112.074C79.6616 109.556 78.4047 108.921 92.3173 109.158Z" fill="#431807"/>
<mask id="path-8-outside-1_215_100" maskUnits="userSpaceOnUse" x="13.0742" y="7.31348" width="150" height="145" fill="black">
<rect fill="white" x="13.0742" y="7.31348" width="150" height="145"/>
<path fill-rule="evenodd" clip-rule="evenodd" d="M89.107 13.3135L18.0742 87.8054L23.405 148.313H56.2868C54.6651 126.417 54.7646 113.839 56.3605 91.6597C56.3605 91.6597 67.3963 60.9721 94.1909 63.4404C120.986 65.9088 126.579 91.6597 126.579 91.6597C126.579 91.6597 128.265 108.396 128.106 119.145C127.955 129.335 125.994 144.355 125.455 148.313H153.21L158.074 80.8466L89.107 13.3135Z"/>
</mask>
<path fill-rule="evenodd" clip-rule="evenodd" d="M89.107 13.3135L18.0742 87.8054L23.405 148.313H56.2868C54.6651 126.417 54.7646 113.839 56.3605 91.6597C56.3605 91.6597 67.3963 60.9721 94.1909 63.4404C120.986 65.9088 126.579 91.6597 126.579 91.6597C126.579 91.6597 128.265 108.396 128.106 119.145C127.955 129.335 125.994 144.355 125.455 148.313H153.21L158.074 80.8466L89.107 13.3135Z" fill="#D18C65"/>
<path d="M18.0742 87.8054L15.1793 85.045L13.9308 86.3543L14.0896 88.1564L18.0742 87.8054ZM89.107 13.3135L91.9056 10.4555L89.0094 7.61958L86.2122 10.5531L89.107 13.3135ZM23.405 148.313L19.4204 148.665L19.7419 152.313H23.405V148.313ZM56.2868 148.313V152.313H60.594L60.2759 148.018L56.2868 148.313ZM56.3605 91.6597L52.5965 90.3061L52.4103 90.8239L52.3708 91.3727L56.3605 91.6597ZM94.1909 63.4404L93.824 67.4236L94.1909 63.4404ZM126.579 91.6597L130.559 91.2588L130.536 91.0327L130.488 90.8107L126.579 91.6597ZM128.106 119.145L132.105 119.204L128.106 119.145ZM125.455 148.313L121.491 147.774L120.873 152.313H125.455V148.313ZM153.21 148.313V152.313H156.932L157.199 148.601L153.21 148.313ZM158.074 80.8466L162.064 81.1343L162.197 79.2855L160.873 77.9886L158.074 80.8466ZM20.969 90.5658L92.0018 16.0739L86.2122 10.5531L15.1793 85.045L20.969 90.5658ZM27.3895 147.962L22.0587 87.4543L14.0896 88.1564L19.4204 148.665L27.3895 147.962ZM56.2868 144.313H23.405V152.313H56.2868V144.313ZM60.2759 148.018C58.6699 126.334 58.7669 113.951 60.3502 91.9468L52.3708 91.3727C50.7624 113.726 50.6603 126.5 52.2977 148.609L60.2759 148.018ZM56.3605 91.6597C60.1245 93.0133 60.124 93.0147 60.1236 93.0159C60.1235 93.0162 60.1231 93.0173 60.1229 93.0178C60.1225 93.0189 60.1223 93.0194 60.1223 93.0196C60.1222 93.0198 60.1227 93.0182 60.124 93.0149C60.1264 93.0082 60.1315 92.9943 60.1393 92.9736C60.1548 92.9321 60.181 92.863 60.2179 92.7683C60.2917 92.5788 60.4085 92.2872 60.5691 91.9087C60.8907 91.1509 61.3864 90.0497 62.064 88.7263C63.425 86.068 65.4891 82.5744 68.3063 79.1783C73.9549 72.3691 82.2421 66.3566 93.824 67.4236L94.5579 59.4573C79.3451 58.0559 68.7171 66.1531 62.1491 74.0706C58.8581 78.0378 56.4885 82.0619 54.9431 85.0804C54.1674 86.5954 53.5915 87.8724 53.2049 88.7832C53.0115 89.239 52.865 89.6042 52.7641 89.8631C52.7136 89.9925 52.6745 90.0955 52.6467 90.17C52.6327 90.2072 52.6216 90.2373 52.6132 90.2601C52.6091 90.2715 52.6056 90.281 52.6028 90.2887C52.6014 90.2926 52.6002 90.2959 52.5991 90.2988C52.5986 90.3003 52.5979 90.3021 52.5977 90.3028C52.5971 90.3045 52.5965 90.3061 56.3605 91.6597ZM93.824 67.4236C105.793 68.5262 112.922 74.7536 117.162 80.7778C119.303 83.8206 120.697 86.8078 121.553 89.0331C121.979 90.1414 122.267 91.0481 122.444 91.6609C122.533 91.967 122.594 92.1986 122.63 92.3441C122.648 92.4168 122.661 92.4679 122.667 92.4958C122.67 92.5098 122.672 92.518 122.673 92.5202C122.673 92.5213 122.673 92.521 122.672 92.5191C122.672 92.5181 122.672 92.5168 122.672 92.5151C122.671 92.5142 122.671 92.5126 122.671 92.5122C122.671 92.5106 122.67 92.5088 126.579 91.6597C130.488 90.8107 130.488 90.8087 130.487 90.8066C130.487 90.8058 130.486 90.8037 130.486 90.802C130.485 90.7988 130.485 90.7951 130.484 90.791C130.482 90.7829 130.48 90.7732 130.477 90.7619C130.472 90.7393 130.465 90.7106 130.457 90.6757C130.441 90.6061 130.419 90.5123 130.389 90.3958C130.331 90.1628 130.245 89.8388 130.129 89.4359C129.895 88.6309 129.537 87.5065 129.02 86.162C127.989 83.4819 126.31 79.8771 123.704 76.1736C118.448 68.7053 109.383 60.8231 94.5579 59.4573L93.824 67.4236ZM126.579 91.6597C122.599 92.0606 122.599 92.0605 122.599 92.0605C122.599 92.0606 122.599 92.0607 122.599 92.0608C122.599 92.0611 122.599 92.0617 122.599 92.0625C122.6 92.0642 122.6 92.0668 122.6 92.0705C122.601 92.0778 122.602 92.0891 122.604 92.1043C122.607 92.1347 122.611 92.1807 122.617 92.2417C122.629 92.3635 122.647 92.5451 122.669 92.7808C122.714 93.2522 122.779 93.9398 122.856 94.7995C123.01 96.5196 123.214 98.9246 123.413 101.661C123.813 107.168 124.183 113.895 124.106 119.086L132.105 119.204C132.188 113.647 131.795 106.631 131.392 101.082C131.189 98.2907 130.981 95.8398 130.824 94.0859C130.746 93.2086 130.68 92.5048 130.633 92.019C130.61 91.776 130.591 91.5875 130.579 91.459C130.572 91.3947 130.568 91.3454 130.564 91.3118C130.563 91.2951 130.561 91.2822 130.56 91.2733C130.56 91.2689 130.56 91.2655 130.559 91.263C130.559 91.2618 130.559 91.2609 130.559 91.2602C130.559 91.2598 130.559 91.2595 130.559 91.2593C130.559 91.259 130.559 91.2588 126.579 91.6597ZM124.106 119.086C123.959 128.998 122.035 143.785 121.491 147.774L129.418 148.853C129.953 144.925 131.95 129.673 132.105 119.204L124.106 119.086ZM153.21 144.313H125.455V152.313H153.21V144.313ZM154.085 80.559L149.22 148.026L157.199 148.601L162.064 81.1343L154.085 80.559ZM86.3084 16.1715L155.276 83.7046L160.873 77.9886L91.9056 10.4555L86.3084 16.1715Z" fill="#331914" mask="url(#path-8-outside-1_215_100)"/>
<path d="M90.9065 20.2548L91.6439 19.4078V18.2849C91.6439 17.4373 91.8799 16.337 92.2923 14.9465C92.4144 14.5349 92.5665 14.0559 92.7264 13.5525C93.0247 12.6131 93.3501 11.5883 93.5584 10.7559C93.733 10.0582 93.8902 9.2709 93.925 8.48273C93.9589 7.71344 93.8893 6.69361 93.3803 5.70369C92.1287 3.26966 89.53 3.03038 87.6428 3.24469L86.8059 3.33973L86.1408 3.85642C83.7505 5.71333 79.7821 9.5708 74.7364 14.6807C70.6083 18.8614 65.6511 23.9928 60.0706 29.7694C58.758 31.1281 57.4109 32.5225 56.032 33.9487C41.5313 48.9463 23.4491 67.5183 4.61724 85.3483L4.16872 85.7729L3.92443 86.3402C2.611 89.3904 2.55485 93.1934 4.70388 95.8725C5.82372 97.2686 7.43388 98.1837 9.35763 98.416C11.2238 98.6413 13.215 98.2098 15.2341 97.2703L15.6694 97.0677L16.0198 96.7393C52.2592 62.7782 72.4087 41.502 90.9065 20.2548Z" fill="#643229" stroke="#331914" stroke-width="6"/>
<path d="M83.2698 10.5747L87.8169 6.71145L93.608 15.2489L90.4097 18.2313L83.5482 13.826L83.2698 10.5747Z" fill="#643229"/>
<rect x="82.8367" y="16.5477" width="4.96458" height="10.4691" transform="rotate(-78 82.8367 16.5477)" fill="#643229"/>
<path d="M131.506 63C130.811 70.5453 128.466 80.685 127.46 87.1445" stroke="#D59D7C" stroke-width="2" stroke-linecap="round"/>
<path d="M31.5698 87.6587C32.309 113.293 32.1005 120.295 36.2367 144.911" stroke="#D59D7C" stroke-width="2" stroke-linecap="round"/>
<path d="M144.377 77.8566C143.723 103.469 142.192 120.259 142.305 145.121" stroke="#D59D7C" stroke-width="2" stroke-linecap="round"/>
<path d="M49.5 70.5C47.3421 102.222 47.6066 113.955 50.8215 144.911" stroke="#D59D7C" stroke-width="2" stroke-linecap="round"/>
<path d="M68 51.5C65.4271 61.6583 66.4752 62.7104 66.4513 73.4574" stroke="#D59D7C" stroke-width="2" stroke-linecap="round"/>
<path d="M92.0001 29C91.9926 40.9347 90.9865 50.7959 90.9792 62.4097" stroke="#D59D7C" stroke-width="2" stroke-linecap="round"/>
<path d="M113.5 48C112.815 56.0709 111.987 61.0677 110.99 67.9766" stroke="#D59D7C" stroke-width="2" stroke-linecap="round"/>
<path d="M87.4119 20.1027L86.3061 19.2024V17.7764C86.3061 16.9226 86.0751 15.8377 85.6766 14.4837C85.5606 14.0896 85.4159 13.6306 85.2635 13.1473C84.9729 12.2254 84.6544 11.2153 84.4543 10.3987C84.2876 9.71809 84.1373 8.94045 84.114 8.15758C84.0912 7.38905 84.1818 6.36789 84.7291 5.38602C86.0344 3.04416 88.6061 2.85928 90.4398 3.06751L91.2905 3.16412L91.9621 3.69516C122.232 27.6308 148.815 56.3903 169.28 78.5311C171.229 80.6395 173.122 82.6878 174.958 84.6663L175.181 84.9074L175.348 85.1913C177.195 88.3473 177.899 92.4059 175.317 95.1965C172.715 98.0073 168.523 97.6525 164.801 95.9202L164.275 95.6756L163.878 95.2525C159.605 90.6959 155.651 86.4567 151.934 82.472C127.92 56.7247 113.813 41.6001 87.4119 20.1027Z" fill="#643229" stroke="#331914" stroke-width="6"/>
<path d="M86.2875 47.1138C86.2875 48.9066 85.8938 49.8967 84.101 49.8967C82.3081 49.8967 80.8542 48.3001 80.3241 46.0536C79.264 43.7282 80.9166 42.2768 82.7095 42.2768C84.5024 42.2768 86.2875 45.3209 86.2875 47.1138Z" fill="#361814"/>
<path d="M90.8595 39.6845C91.3896 42.7406 90.3995 44.1983 88.6066 44.1983C86.8138 44.1983 84.4323 41.4774 84.4323 39.6845C83.7034 37.241 85.2898 35.0544 87.0827 35.0544C88.8755 35.0544 90.8595 37.8916 90.8595 39.6845Z" fill="#361814"/>
<path d="M98.1481 39.0962C98.1481 40.8891 96.5766 43.8048 94.7837 43.8048C92.9909 43.8048 91.7872 41.4773 91.7872 39.6845C91.7872 37.8916 93.8374 34.458 95.6303 34.458C97.4231 34.458 98.1481 37.3034 98.1481 39.0962Z" fill="#361814"/>
<path d="M96.094 47.7764C98.0612 50.1888 101.064 55.2638 98.0818 56.854C95.1001 58.4442 93.1123 54.3361 86.8176 57.7154C82.9745 56.854 85.2674 49.7979 88.6385 46.8013C92.0097 43.8048 94.1746 45.4225 96.094 47.7764Z" fill="#361814"/>
<path d="M102.521 46.178C102.521 47.9709 101.2 49.5654 99.4071 49.5654C97.6142 49.5654 97.088 47.9709 97.088 46.178C97.088 44.3851 98.6743 42.078 100.467 42.078C102.26 42.078 102.521 44.3851 102.521 46.178Z" fill="#361814"/>
<rect x="82.7433" y="25.0052" width="9.70503" height="16.2926" transform="rotate(-136 82.7433 25.0052)" fill="#643229"/>
</svg>
