<svg width="68" height="62" viewBox="0 0 68 62" fill="none" xmlns="http://www.w3.org/2000/svg">
<path d="M57.4912 52.2351C40.2472 63.0513 38.7973 63.3485 20.7163 55.9126C15.5327 53.7808 11.4417 52.6861 12.3106 46.4871H11.5071C11.5419 44.8679 11.7558 43.9532 12.3106 42.3152C13.3066 39.7978 13.4064 38.3513 13.0832 35.7328C10.882 34.4705 9.67303 33.6148 7.67511 31.1592C3.43815 24.5435 1.79235 20.3817 1 11.6283C1.91829 7.07683 3.08469 5.83837 6.03724 5.38589C12.259 5.46265 16.4737 7.90144 25.5063 17.2527C32.5913 14.0498 36.2607 13.7298 41.9469 14.4714L40.4326 16.0166C42.1101 15.6851 43.0506 15.7145 44.7282 16.0166C48.2085 9.82724 50.6125 7.11293 55.5443 3.34628C62.1692 -0.698245 64.7438 0.389373 66.9167 7.3637C68.3211 14.8995 66.6595 20.3586 59.809 32.4571C60.4888 36.0419 61.2633 37.6169 62.9302 40.7082L62.2812 40.3065C62.8191 45.4056 60.7103 47.8234 57.4912 52.2351Z" fill="#FEFEFE"/>
<path d="M58.4183 7.3637C53.9639 10.144 52.5739 12.7051 51.4033 18.4579C55.213 21.3679 57.0449 23.4087 58.9128 28.9341L59.809 32.4571M59.809 32.4571C60.4888 36.0419 61.2633 37.6169 62.9302 40.7082L62.2812 40.3065C62.8191 45.4056 60.7103 47.8234 57.4912 52.2351C40.2472 63.0513 38.7973 63.3485 20.7163 55.9126C15.5327 53.7808 11.4417 52.6861 12.3106 46.4871H11.5071C11.5419 44.8679 11.7558 43.9532 12.3106 42.3152C13.3066 39.7978 13.4064 38.3513 13.0832 35.7328M59.809 32.4571C66.6595 20.3586 68.3211 14.8995 66.9167 7.3637C64.7438 0.389373 62.1692 -0.698245 55.5443 3.34628C50.6125 7.11292 48.2085 9.82724 44.7282 16.0166M44.7282 16.0166L46.8296 17.2527M44.7282 16.0166C43.0506 15.7145 42.1101 15.6851 40.4326 16.0166L41.9469 14.4714C36.2607 13.7298 32.5913 14.0498 25.5063 17.2527M25.5063 17.2527L23.683 18.8597M25.5063 17.2527C16.4737 7.90144 12.259 5.46265 6.03724 5.38589C3.08469 5.83837 1.91829 7.07683 1 11.6283C1.79235 20.3817 3.43815 24.5435 7.67511 31.1592C9.67303 33.6148 10.882 34.4705 13.0832 35.7328M13.0832 35.7328C13.9089 28.4121 15.41 25.5041 19.4493 21.8882C17.0358 15.7945 15.1424 13.8744 11.5071 11.1648" stroke="#793A30" stroke-linecap="round"/>
<path d="M62.5591 40.1211C62.5591 40.1211 62.2359 40.8358 62.1717 41.06C62.19 41.0848 62.1957 41.1018 62.1883 41.11C62.1559 41.1455 62.1542 41.1208 62.1717 41.06C61.8174 40.5797 56.7721 37.1911 52.4229 39.1013C47.2929 38.9468 44.9653 36.4436 44.2644 32.2717C43.975 25.7494 39.3508 16.4492 40.1851 16.1711C42.5338 15.8003 44.5734 15.7076 46.5821 17.0481C45.9503 16.6048 45.6936 16.1902 44.8206 15.9239C48.3436 9.74323 51.3447 6.42484 56.8729 2.6355C56.4735 4.76087 56.5555 6.45463 56.6257 8.4144C53.7517 11.1957 52.6391 13.4016 51.3103 18.3961C56.5479 22.5632 58.2184 25.7641 59.6851 32.7352L62.5591 40.1211Z" fill="#FFAB4B"/>
<path d="M23.6521 43.1497C23.6521 43.4399 14.6902 45.1583 13.6395 51.9262C11.878 51.1227 12.3724 46.9319 12.3724 46.6418C12.3724 46.5032 11.7853 46.4564 11.5998 46.24C11.8162 43.9223 13.145 40.3066 13.2377 38.6688C13.6685 38.6688 11.9398 30.5412 16.7298 24.7623C17.5163 23.8134 18.5305 22.6175 19.4184 21.7956C19.7547 21.4843 15.4009 12.6482 11.2908 11.1649C11.5071 9.24888 11.3236 6.67321 11.5071 6.52943C11.8641 6.24972 16.4517 8.66176 19.4184 11.6594C20.6236 12.741 24.7938 15.9178 25.4136 17.3765C24.1157 18.1799 23.6435 18.78 23.8066 18.6744C23.683 19.0452 23.4056 19.0629 23.8066 18.8289C24.8101 16.853 30.8835 15.1205 33.7575 14.657C33.8884 15.0236 31.4008 21.6227 30.9762 27.3274C32.4905 35.5167 32.1409 36.9965 31.687 38.0508C30.6363 42.0682 23.6521 43.077 23.6521 43.1497Z" fill="#FFAB4B"/>
<path d="M56.7802 2.79C63.5235 -1.43019 65.2786 2.78999 66.7002 7.17826C67.2442 9.88287 67.6155 11.296 67.2255 13.9461C67.0718 17.6215 64.2757 25.6148 59.8087 32.2099C59.156 29.4478 58.7694 27.9498 57.5219 25.3493C54.9785 21.4168 53.8078 20.3934 51.4958 18.427C52.9893 12.7782 53.659 10.6703 58.449 7.36368C58.1232 7.36368 56.5948 8.44529 56.5948 8.44529C56.4596 6.3312 56.5197 4.7515 56.7802 2.79Z" fill="#FF8D8D"/>
<path d="M19.4492 21.7957C15.9421 24.9109 14.5047 27.5128 12.9286 35.7021C7.39689 31.8701 4.97051 28.3543 2.32875 19.4779C0.289135 11.7521 1.01186 9.41128 3.25585 6.37497C6.21988 5.09162 8.41735 5.18333 11.507 6.37498C12.0667 8.03288 11.8648 9.1505 11.7234 10.8869C11.7234 10.8869 11.7234 11.1542 11.5792 11.1946C11.6107 11.2974 11.5688 11.3195 11.5688 11.3195C14.8707 13.4891 16.7512 16.1052 19.4492 21.7957Z" fill="#FF8D8D"/>
<path d="M58.4183 7.3637C53.9639 10.144 52.5739 12.7051 51.4033 18.4579C55.213 21.3679 57.0449 23.4087 58.9128 28.9341L59.809 32.4571M59.809 32.4571C60.4888 36.0419 61.2633 37.6169 62.9302 40.7082L62.2812 40.3065C62.8191 45.4056 60.7103 47.8234 57.4912 52.2351C40.2472 63.0513 38.7973 63.3485 20.7163 55.9126C15.5327 53.7808 11.4417 52.6861 12.3106 46.4871H11.5071C11.5419 44.8679 11.7558 43.9532 12.3106 42.3152C13.3066 39.7978 13.4064 38.3513 13.0832 35.7328M59.809 32.4571C66.6595 20.3586 68.3211 14.8995 66.9167 7.3637C64.7438 0.389373 62.1692 -0.698245 55.5443 3.34628C50.6125 7.11292 48.2085 9.82724 44.7282 16.0166M44.7282 16.0166L46.8296 17.2527M44.7282 16.0166C43.0506 15.7145 42.1101 15.6851 40.4326 16.0166L41.9469 14.4714C36.2607 13.7298 32.5913 14.0498 25.5063 17.2527M25.5063 17.2527L23.683 18.8597M25.5063 17.2527C16.4737 7.90144 12.259 5.46265 6.03724 5.38589C3.08469 5.83837 1.91829 7.07683 1 11.6283C1.79235 20.3817 3.43815 24.5435 7.67511 31.1592C9.67303 33.6148 10.882 34.4705 13.0832 35.7328M13.0832 35.7328C13.9089 28.4121 15.41 25.5041 19.4493 21.8882C17.0358 15.7945 15.1424 13.8744 11.5071 11.1648" stroke="#793A30" stroke-linecap="round"/>
<path d="M57.4912 52.2351C40.2472 63.0513 38.7973 63.3485 20.7163 55.9126C15.5327 53.7808 11.4417 52.6861 12.3106 46.4871H11.5071C11.5419 44.8679 11.7558 43.9532 12.3106 42.3152C13.3066 39.7978 13.4064 38.3513 13.0832 35.7328C10.882 34.4705 9.67303 33.6148 7.67511 31.1592C3.43815 24.5435 1.79235 20.3817 1 11.6283C1.91829 7.07683 3.08469 5.83837 6.03724 5.38589C12.259 5.46265 16.4737 7.90144 25.5063 17.2527C32.5913 14.0498 36.2607 13.7298 41.9469 14.4714L40.4326 16.0166C42.1101 15.6851 43.0506 15.7145 44.7282 16.0166C48.2085 9.82724 50.6125 7.11293 55.5443 3.34628C62.1692 -0.698245 64.7438 0.389373 66.9167 7.3637C68.3211 14.8995 66.6595 20.3586 59.809 32.4571C60.4888 36.0419 61.2633 37.6169 62.9302 40.7082L62.2812 40.3065C62.8191 45.4056 60.7103 47.8234 57.4912 52.2351Z" fill="#FEFEFE"/>
<path d="M58.4183 7.3637C53.9639 10.144 52.5739 12.7051 51.4033 18.4579C55.213 21.3679 57.0449 23.4087 58.9128 28.9341L59.809 32.4571M59.809 32.4571C60.4888 36.0419 61.2633 37.6169 62.9302 40.7082L62.2812 40.3065C62.8191 45.4056 60.7103 47.8234 57.4912 52.2351C40.2472 63.0513 38.7973 63.3485 20.7163 55.9126C15.5327 53.7808 11.4417 52.6861 12.3106 46.4871H11.5071C11.5419 44.8679 11.7558 43.9532 12.3106 42.3152C13.3066 39.7978 13.4064 38.3513 13.0832 35.7328M59.809 32.4571C66.6595 20.3586 68.3211 14.8995 66.9167 7.3637C64.7438 0.389373 62.1692 -0.698245 55.5443 3.34628C50.6125 7.11292 48.2085 9.82724 44.7282 16.0166M44.7282 16.0166L46.8296 17.2527M44.7282 16.0166C43.0506 15.7145 42.1101 15.6851 40.4326 16.0166L41.9469 14.4714C36.2607 13.7298 32.5913 14.0498 25.5063 17.2527M25.5063 17.2527L23.683 18.8597M25.5063 17.2527C16.4737 7.90144 12.259 5.46265 6.03724 5.38589C3.08469 5.83837 1.91829 7.07683 1 11.6283C1.79235 20.3817 3.43815 24.5435 7.67511 31.1592C9.67303 33.6148 10.882 34.4705 13.0832 35.7328M13.0832 35.7328C13.9089 28.4121 15.41 25.5041 19.4493 21.8882C17.0358 15.7945 15.1424 13.8744 11.5071 11.1648" stroke="#793A30" stroke-linecap="round"/>
<path d="M62.5591 40.1211C62.5591 40.1211 62.2359 40.8358 62.1717 41.06C62.19 41.0848 62.1957 41.1018 62.1883 41.11C62.1559 41.1455 62.1542 41.1208 62.1717 41.06C61.8174 40.5797 56.7721 37.1911 52.4229 39.1013C47.2929 38.9468 44.9653 36.4436 44.2644 32.2717C43.975 25.7494 39.3508 16.4492 40.1851 16.1711C42.5338 15.8003 44.5734 15.7076 46.5821 17.0481C45.9503 16.6048 45.6936 16.1902 44.8206 15.9239C48.3436 9.74323 51.3447 6.42484 56.8729 2.6355C56.4735 4.76087 56.5555 6.45463 56.6257 8.4144C53.7517 11.1957 52.6391 13.4016 51.3103 18.3961C56.5479 22.5632 58.2184 25.7641 59.6851 32.7352L62.5591 40.1211Z" fill="#FFAB4B"/>
<path d="M23.6521 43.1497C23.6521 43.4399 14.6902 45.1583 13.6395 51.9262C11.878 51.1227 12.3724 46.9319 12.3724 46.6418C12.3724 46.5032 11.7853 46.4564 11.5998 46.24C11.8162 43.9223 13.145 40.3066 13.2377 38.6688C13.6685 38.6688 11.9398 30.5412 16.7298 24.7623C17.5163 23.8134 18.5305 22.6175 19.4184 21.7956C19.7547 21.4843 15.4009 12.6482 11.2908 11.1649C11.5071 9.24888 11.3236 6.67321 11.5071 6.52943C11.8641 6.24972 16.4517 8.66176 19.4184 11.6594C20.6236 12.741 24.7938 15.9178 25.4136 17.3765C24.1157 18.1799 23.6435 18.78 23.8066 18.6744C23.683 19.0452 23.4056 19.0629 23.8066 18.8289C24.8101 16.853 30.8835 15.1205 33.7575 14.657C33.8884 15.0236 31.4008 21.6227 30.9762 27.3274C32.4905 35.5167 32.1409 36.9965 31.687 38.0508C30.6363 42.0682 23.6521 43.077 23.6521 43.1497Z" fill="#FFAB4B"/>
<path d="M56.7802 2.79C63.5235 -1.43019 65.2786 2.78999 66.7002 7.17826C67.2442 9.88287 67.6155 11.296 67.2255 13.9461C67.0718 17.6215 64.2757 25.6148 59.8087 32.2099C59.156 29.4478 58.7694 27.9498 57.5219 25.3493C54.9785 21.4168 53.8078 20.3934 51.4958 18.427C52.9893 12.7782 53.659 10.6703 58.449 7.36368C58.1232 7.36368 56.5948 8.44529 56.5948 8.44529C56.4596 6.3312 56.5197 4.7515 56.7802 2.79Z" fill="#FF8D8D"/>
<path d="M19.4492 21.7957C15.9421 24.9109 14.5047 27.5128 12.9286 35.7021C7.39689 31.8701 4.97051 28.3543 2.32875 19.4779C0.289135 11.7521 1.01186 9.41128 3.25585 6.37497C6.21988 5.09162 8.41735 5.18333 11.507 6.37498C12.0667 8.03288 11.8648 9.1505 11.7234 10.8869C11.7234 10.8869 11.7234 11.1542 11.5792 11.1946C11.6107 11.2974 11.5688 11.3195 11.5688 11.3195C14.8707 13.4891 16.7512 16.1052 19.4492 21.7957Z" fill="#FF8D8D"/>
<path d="M58.4183 7.3637C53.9639 10.144 52.5739 12.7051 51.4033 18.4579C55.213 21.3679 57.0449 23.4087 58.9128 28.9341L59.809 32.4571M59.809 32.4571C60.4888 36.0419 61.2633 37.6169 62.9302 40.7082L62.2812 40.3065C62.8191 45.4056 60.7103 47.8234 57.4912 52.2351C40.2472 63.0513 38.7973 63.3485 20.7163 55.9126C15.5327 53.7808 11.4417 52.6861 12.3106 46.4871H11.5071C11.5419 44.8679 11.7558 43.9532 12.3106 42.3152C13.3066 39.7978 13.4064 38.3513 13.0832 35.7328M59.809 32.4571C66.6595 20.3586 68.3211 14.8995 66.9167 7.3637C64.7438 0.389373 62.1692 -0.698245 55.5443 3.34628C50.6125 7.11292 48.2085 9.82724 44.7282 16.0166M44.7282 16.0166L46.8296 17.2527M44.7282 16.0166C43.0506 15.7145 42.1101 15.6851 40.4326 16.0166L41.9469 14.4714C36.2607 13.7298 32.5913 14.0498 25.5063 17.2527M25.5063 17.2527L23.683 18.8597M25.5063 17.2527C16.4737 7.90144 12.259 5.46265 6.03724 5.38589C3.08469 5.83837 1.91829 7.07683 1 11.6283C1.79235 20.3817 3.43815 24.5435 7.67511 31.1592C9.67303 33.6148 10.882 34.4705 13.0832 35.7328M13.0832 35.7328C13.9089 28.4121 15.41 25.5041 19.4493 21.8882C17.0358 15.7945 15.1424 13.8744 11.5071 11.1648" stroke="#793A30" stroke-linecap="round"/>
<path d="M44.7898 27.9168C46.3278 27.0337 47.3359 26.9876 49.0236 27.0206M29.8017 29.1839C28.0033 29.3694 27.1051 29.7922 25.6607 31.0072" stroke="#C6704B" stroke-linecap="round" stroke-linejoin="round"/>
<path d="M23.3431 36.1062C27.2312 37.6872 28.8832 37.0708 31.1616 34.0666M45.9334 32.4905C49.0033 34.6675 50.6104 34.7902 53.1029 31.4089M35.3954 49.1165C40.06 44.8344 42.7492 44.4333 47.6949 47.7567" stroke="#361814" stroke-linecap="round"/>
<path d="M43.3375 37.4039C43.3375 39.2131 41.8105 40.896 39.66 40.896C37.5095 40.896 35.5499 39.2131 35.5499 37.4039C35.5499 35.5948 37.2932 34.1282 39.4437 34.1282C41.5942 34.1282 43.3375 35.5948 43.3375 37.4039Z" fill="#361814"/>
</svg>
