<svg width="68" height="62" viewBox="0 0 68 62" fill="none" xmlns="http://www.w3.org/2000/svg">
<path d="M57.4262 52.2351C40.1822 63.0512 38.7323 63.3485 20.6514 55.9126C15.4678 53.7808 11.3768 52.6861 12.2457 46.4871H11.4422C11.4771 44.8679 11.6909 43.9532 12.2457 42.3152C13.2417 39.7978 13.3415 38.3513 13.0183 35.7328C10.8171 34.4705 9.60816 33.6148 7.61024 31.1591C3.3733 24.5435 1.7275 20.3817 0.93515 11.6283C1.85343 7.07683 3.01983 5.83837 5.97237 5.38589C12.1942 5.46265 16.4088 7.90144 25.4414 17.2527C32.5264 14.0498 36.1957 13.7298 41.8819 14.4714L40.3676 16.0166C42.0451 15.6851 42.9857 15.7145 44.6632 16.0166C48.1435 9.82724 50.5475 7.11292 55.4793 3.34628C62.1041 -0.698245 64.6787 0.389373 66.8517 7.3637C68.256 14.8995 66.5944 20.3586 59.7439 32.4571C60.4238 36.0419 61.1982 37.6169 62.8652 40.7082L62.2162 40.3065C62.7541 45.4055 60.6453 47.8234 57.4262 52.2351Z" fill="#FEFEFE"/>
<path d="M58.3533 7.3637C53.8989 10.144 52.5089 12.7051 51.3383 18.4579C55.1479 21.3679 56.9798 23.4087 58.8477 28.9341L59.7439 32.4571M59.7439 32.4571C60.4238 36.0419 61.1982 37.6169 62.8652 40.7082L62.2162 40.3065C62.7541 45.4055 60.6453 47.8234 57.4262 52.2351C40.1822 63.0512 38.7323 63.3485 20.6514 55.9126C15.4678 53.7808 11.3768 52.6861 12.2457 46.4871H11.4422C11.4771 44.8679 11.6909 43.9532 12.2457 42.3152C13.2417 39.7978 13.3415 38.3513 13.0183 35.7328M59.7439 32.4571C66.5944 20.3586 68.256 14.8995 66.8517 7.3637C64.6787 0.389373 62.1041 -0.698245 55.4793 3.34628C50.5475 7.11292 48.1435 9.82724 44.6632 16.0166M44.6632 16.0166L46.7646 17.2527M44.6632 16.0166C42.9857 15.7145 42.0451 15.6851 40.3676 16.0166L41.8819 14.4714C36.1957 13.7298 32.5264 14.0498 25.4414 17.2527M25.4414 17.2527L23.6181 18.8597M25.4414 17.2527C16.4088 7.90144 12.1942 5.46265 5.97237 5.38589C3.01983 5.83837 1.85343 7.07683 0.93515 11.6283C1.7275 20.3817 3.3733 24.5435 7.61024 31.1591C9.60816 33.6148 10.8171 34.4705 13.0183 35.7328M13.0183 35.7328C13.844 28.4121 15.3451 25.5041 19.3844 21.8882C16.9709 15.7945 15.0775 13.8744 11.4422 11.1648" stroke="#793A30" stroke-linecap="round"/>
<path d="M62.4942 40.1211C62.4942 40.1211 62.1709 40.8358 62.1067 41.06C62.125 41.0848 62.1308 41.1018 62.1234 41.11C62.091 41.1455 62.0893 41.1208 62.1067 41.06C61.7525 40.5797 56.7072 37.1911 52.358 39.1013C47.228 38.9468 44.9004 36.4436 44.1995 32.2717C43.9101 25.7494 39.2859 16.4492 40.1203 16.1711C42.4689 15.8003 44.5086 15.7076 46.5173 17.0481C45.8854 16.6048 45.6287 16.1902 44.7558 15.9239C48.2787 9.74323 51.2798 6.42484 56.808 2.6355C56.4086 4.76087 56.4906 6.45463 56.5608 8.4144C53.6868 11.1957 52.5742 13.4016 51.2454 18.3961C56.483 22.5632 58.1535 25.764 59.6202 32.7352L62.4942 40.1211Z" fill="#FFAB4B"/>
<path d="M23.5872 43.1497C23.5872 43.4399 14.6253 45.1583 13.5746 51.9262C11.8131 51.1227 12.3075 46.9319 12.3075 46.6418C12.3075 46.5032 11.7204 46.4564 11.535 46.24C11.7513 43.9223 13.0801 40.3066 13.1728 38.6688C13.6036 38.6688 11.8749 30.5412 16.6649 24.7623C17.4514 23.8134 18.4656 22.6175 19.3535 21.7956C19.6898 21.4843 15.336 12.6482 11.2259 11.1649C11.4422 9.24888 11.2587 6.67321 11.4422 6.52943C11.7992 6.24972 16.3868 8.66176 19.3535 11.6594C20.5587 12.741 24.7289 15.9178 25.3487 17.3765C24.0507 18.1799 23.5786 18.78 23.7417 18.6744C23.6181 19.0452 23.3407 19.0629 23.7417 18.8289C24.7452 16.853 30.8186 15.1205 33.6925 14.657C33.8235 15.0236 31.3359 21.6227 30.9113 27.3274C32.4255 35.5167 32.076 36.9965 31.622 38.0507C30.5713 42.0682 23.5872 43.077 23.5872 43.1497Z" fill="#FFAB4B"/>
<path d="M56.7153 2.79C63.4586 -1.43019 65.2137 2.78999 66.6353 7.17826C67.1792 9.88287 67.5506 11.296 67.1606 13.9461C67.0068 17.6215 64.2108 25.6148 59.7438 32.2099C59.0911 29.4478 58.7045 27.9498 57.457 25.3493C54.9136 21.4168 53.7429 20.3934 51.4309 18.427C52.9245 12.7782 53.5941 10.6703 58.3841 7.36368C58.0582 7.36368 56.5299 8.44529 56.5299 8.44529C56.3947 6.3312 56.4548 4.7515 56.7153 2.79Z" fill="#FF8D8D"/>
<path d="M19.3844 21.7954C15.8773 24.9107 14.4399 27.5125 12.8638 35.7019C7.33215 31.8699 4.90577 28.354 2.26402 19.4777C0.22441 11.7519 0.947132 9.41103 3.19112 6.37473C6.15514 5.09138 8.3526 5.18309 11.4423 6.37474C12.0019 8.03264 11.8001 9.15025 11.6586 10.8866C11.6586 10.8866 11.6586 11.154 11.5144 11.1944C11.5459 11.2972 11.5041 11.3193 11.5041 11.3193C14.806 13.4889 16.6865 16.105 19.3844 21.7954Z" fill="#FF8D8D"/>
<path d="M58.3533 7.3637C53.8989 10.144 52.5089 12.7051 51.3383 18.4579C55.1479 21.3679 56.9798 23.4087 58.8477 28.9341L59.7439 32.4571M59.7439 32.4571C60.4238 36.0419 61.1982 37.6169 62.8652 40.7082L62.2162 40.3065C62.7541 45.4055 60.6453 47.8234 57.4262 52.2351C40.1822 63.0512 38.7323 63.3485 20.6514 55.9126C15.4678 53.7808 11.3768 52.6861 12.2457 46.4871H11.4422C11.4771 44.8679 11.6909 43.9532 12.2457 42.3152C13.2417 39.7978 13.3415 38.3513 13.0183 35.7328M59.7439 32.4571C66.5944 20.3586 68.256 14.8995 66.8517 7.3637C64.6787 0.389373 62.1041 -0.698245 55.4793 3.34628C50.5475 7.11292 48.1435 9.82724 44.6632 16.0166M44.6632 16.0166L46.7646 17.2527M44.6632 16.0166C42.9857 15.7145 42.0451 15.6851 40.3676 16.0166L41.8819 14.4714C36.1957 13.7298 32.5264 14.0498 25.4414 17.2527M25.4414 17.2527L23.6181 18.8597M25.4414 17.2527C16.4088 7.90144 12.1942 5.46265 5.97237 5.38589C3.01983 5.83837 1.85343 7.07683 0.93515 11.6283C1.7275 20.3817 3.3733 24.5435 7.61024 31.1591C9.60816 33.6148 10.8171 34.4705 13.0183 35.7328M13.0183 35.7328C13.844 28.4121 15.3451 25.5041 19.3844 21.8882C16.9709 15.7945 15.0775 13.8744 11.4422 11.1648" stroke="#793A30" stroke-linecap="round"/>
<path d="M57.4262 52.2351C40.1822 63.0512 38.7323 63.3485 20.6514 55.9126C15.4678 53.7808 11.3768 52.6861 12.2457 46.4871H11.4422C11.4771 44.8679 11.6909 43.9532 12.2457 42.3152C13.2417 39.7978 13.3415 38.3513 13.0183 35.7328C10.8171 34.4705 9.60816 33.6148 7.61024 31.1591C3.3733 24.5435 1.7275 20.3817 0.93515 11.6283C1.85343 7.07683 3.01983 5.83837 5.97237 5.38589C12.1942 5.46265 16.4088 7.90144 25.4414 17.2527C32.5264 14.0498 36.1957 13.7298 41.8819 14.4714L40.3676 16.0166C42.0451 15.6851 42.9857 15.7145 44.6632 16.0166C48.1435 9.82724 50.5475 7.11292 55.4793 3.34628C62.1041 -0.698245 64.6787 0.389373 66.8517 7.3637C68.256 14.8995 66.5944 20.3586 59.7439 32.4571C60.4238 36.0419 61.1982 37.6169 62.8652 40.7082L62.2162 40.3065C62.7541 45.4055 60.6453 47.8234 57.4262 52.2351Z" fill="#FEFEFE"/>
<path d="M58.3533 7.3637C53.8989 10.144 52.5089 12.7051 51.3383 18.4579C55.1479 21.3679 56.9798 23.4087 58.8477 28.9341L59.7439 32.4571M59.7439 32.4571C60.4238 36.0419 61.1982 37.6169 62.8652 40.7082L62.2162 40.3065C62.7541 45.4055 60.6453 47.8234 57.4262 52.2351C40.1822 63.0512 38.7323 63.3485 20.6514 55.9126C15.4678 53.7808 11.3768 52.6861 12.2457 46.4871H11.4422C11.4771 44.8679 11.6909 43.9532 12.2457 42.3152C13.2417 39.7978 13.3415 38.3513 13.0183 35.7328M59.7439 32.4571C66.5944 20.3586 68.256 14.8995 66.8517 7.3637C64.6787 0.389373 62.1041 -0.698245 55.4793 3.34628C50.5475 7.11292 48.1435 9.82724 44.6632 16.0166M44.6632 16.0166L46.7646 17.2527M44.6632 16.0166C42.9857 15.7145 42.0451 15.6851 40.3676 16.0166L41.8819 14.4714C36.1957 13.7298 32.5264 14.0498 25.4414 17.2527M25.4414 17.2527L23.6181 18.8597M25.4414 17.2527C16.4088 7.90144 12.1942 5.46265 5.97237 5.38589C3.01983 5.83837 1.85343 7.07683 0.93515 11.6283C1.7275 20.3817 3.3733 24.5435 7.61024 31.1591C9.60816 33.6148 10.8171 34.4705 13.0183 35.7328M13.0183 35.7328C13.844 28.4121 15.3451 25.5041 19.3844 21.8882C16.9709 15.7945 15.0775 13.8744 11.4422 11.1648" stroke="#793A30" stroke-linecap="round"/>
<path d="M62.4942 40.1211C62.4942 40.1211 62.1709 40.8358 62.1067 41.06C62.125 41.0848 62.1308 41.1018 62.1234 41.11C62.091 41.1455 62.0893 41.1208 62.1067 41.06C61.7525 40.5797 56.7072 37.1911 52.358 39.1013C47.228 38.9468 44.9004 36.4436 44.1995 32.2717C43.9101 25.7494 39.2859 16.4492 40.1203 16.1711C42.4689 15.8003 44.5086 15.7076 46.5173 17.0481C45.8854 16.6048 45.6287 16.1902 44.7558 15.9239C48.2787 9.74323 51.2798 6.42484 56.808 2.6355C56.4086 4.76087 56.4906 6.45463 56.5608 8.4144C53.6868 11.1957 52.5742 13.4016 51.2454 18.3961C56.483 22.5632 58.1535 25.764 59.6202 32.7352L62.4942 40.1211Z" fill="#FFAB4B"/>
<path d="M23.5872 43.1497C23.5872 43.4399 14.6253 45.1583 13.5746 51.9262C11.8131 51.1227 12.3075 46.9319 12.3075 46.6418C12.3075 46.5032 11.7204 46.4564 11.535 46.24C11.7513 43.9223 13.0801 40.3066 13.1728 38.6688C13.6036 38.6688 11.8749 30.5412 16.6649 24.7623C17.4514 23.8134 18.4656 22.6175 19.3535 21.7956C19.6898 21.4843 15.336 12.6482 11.2259 11.1649C11.4422 9.24888 11.2587 6.67321 11.4422 6.52943C11.7992 6.24972 16.3868 8.66176 19.3535 11.6594C20.5587 12.741 24.7289 15.9178 25.3487 17.3765C24.0507 18.1799 23.5786 18.78 23.7417 18.6744C23.6181 19.0452 23.3407 19.0629 23.7417 18.8289C24.7452 16.853 30.8186 15.1205 33.6925 14.657C33.8235 15.0236 31.3359 21.6227 30.9113 27.3274C32.4255 35.5167 32.076 36.9965 31.622 38.0507C30.5713 42.0682 23.5872 43.077 23.5872 43.1497Z" fill="#FFAB4B"/>
<path d="M56.7153 2.79C63.4586 -1.43019 65.2137 2.78999 66.6353 7.17826C67.1792 9.88287 67.5506 11.296 67.1606 13.9461C67.0068 17.6215 64.2108 25.6148 59.7438 32.2099C59.0911 29.4478 58.7045 27.9498 57.457 25.3493C54.9136 21.4168 53.7429 20.3934 51.4309 18.427C52.9245 12.7782 53.5941 10.6703 58.3841 7.36368C58.0582 7.36368 56.5299 8.44529 56.5299 8.44529C56.3947 6.3312 56.4548 4.7515 56.7153 2.79Z" fill="#FF8D8D"/>
<path d="M19.3844 21.7954C15.8773 24.9107 14.4399 27.5125 12.8638 35.7019C7.33215 31.8699 4.90577 28.354 2.26402 19.4777C0.22441 11.7519 0.947132 9.41103 3.19112 6.37473C6.15514 5.09138 8.3526 5.18309 11.4423 6.37474C12.0019 8.03264 11.8001 9.15025 11.6586 10.8866C11.6586 10.8866 11.6586 11.154 11.5144 11.1944C11.5459 11.2972 11.5041 11.3193 11.5041 11.3193C14.806 13.4889 16.6865 16.105 19.3844 21.7954Z" fill="#FF8D8D"/>
<path d="M58.3533 7.3637C53.8989 10.144 52.5089 12.7051 51.3383 18.4579C55.1479 21.3679 56.9798 23.4087 58.8477 28.9341L59.7439 32.4571M59.7439 32.4571C60.4238 36.0419 61.1982 37.6169 62.8652 40.7082L62.2162 40.3065C62.7541 45.4055 60.6453 47.8234 57.4262 52.2351C40.1822 63.0512 38.7323 63.3485 20.6514 55.9126C15.4678 53.7808 11.3768 52.6861 12.2457 46.4871H11.4422C11.4771 44.8679 11.6909 43.9532 12.2457 42.3152C13.2417 39.7978 13.3415 38.3513 13.0183 35.7328M59.7439 32.4571C66.5944 20.3586 68.256 14.8995 66.8517 7.3637C64.6787 0.389373 62.1041 -0.698245 55.4793 3.34628C50.5475 7.11292 48.1435 9.82724 44.6632 16.0166M44.6632 16.0166L46.7646 17.2527M44.6632 16.0166C42.9857 15.7145 42.0451 15.6851 40.3676 16.0166L41.8819 14.4714C36.1957 13.7298 32.5264 14.0498 25.4414 17.2527M25.4414 17.2527L23.6181 18.8597M25.4414 17.2527C16.4088 7.90144 12.1942 5.46265 5.97237 5.38589C3.01983 5.83837 1.85343 7.07683 0.93515 11.6283C1.7275 20.3817 3.3733 24.5435 7.61024 31.1591C9.60816 33.6148 10.8171 34.4705 13.0183 35.7328M13.0183 35.7328C13.844 28.4121 15.3451 25.5041 19.3844 21.8882C16.9709 15.7945 15.0775 13.8744 11.4422 11.1648" stroke="#793A30" stroke-linecap="round"/>
<path d="M39.4683 40.3685L39.4392 40.3651H39.4099C38.4481 40.3651 37.5531 39.9152 36.8898 39.2914C36.2107 38.6527 35.8615 37.9177 35.8615 37.4348C35.8615 36.9482 36.2145 36.1886 36.8958 35.5262C37.5619 34.8786 38.4553 34.4119 39.4099 34.4119C41.8263 34.4119 42.9582 36.335 42.9582 37.4348C42.9582 37.9639 42.6644 38.7802 42.0547 39.4291C41.4626 40.0592 40.6013 40.5018 39.4683 40.3685Z" fill="#361814" stroke="#361814"/>
<path d="M46.3939 33.3248C48.5613 29.8096 49.5847 29.5797 52.3891 29.5237" stroke="#361814" stroke-linecap="round"/>
<path d="M30.2933 37.1567C27.5132 33.8254 26.3555 33.8338 23.2474 34.4991" stroke="#361814" stroke-linecap="round"/>
<path d="M40.9859 50.8777C43.3772 50.6083 44.7919 49.1332 45.9304 47.2002C46.5356 45.7623 46.6284 44.8855 46.7921 43.3404L46.7957 43.3064L47.7537 40.6178C47.6705 40.3995 47.5777 40.3518 47.321 40.4015C45.5068 43.1357 44.0092 43.8572 40.4605 42.472C38.3282 44.7588 36.2942 44.7492 33.5691 42.9664C33.3684 42.8051 32.9463 42.38 32.7347 42.1939C32.4805 42.1371 32.4145 42.2125 32.3639 42.4411C33.9247 43.8642 33.8977 44.6816 34.9597 47.7873C36.4815 49.7128 38.3577 51.1737 40.9859 50.8777Z" fill="#361814" stroke="#361814" stroke-linecap="round"/>
<path d="M45.9305 47.2002C42.1172 46.6836 39.9074 46.7876 35.6706 48.5908C35.6706 48.5908 37.8029 51.3999 41.295 50.8467C44.7871 50.2935 45.9305 47.2002 45.9305 47.2002Z" fill="#FF8D8D" stroke="#FF8D8D" stroke-linecap="round"/>
</svg>
