<svg width="22" height="23" viewBox="0 0 22 23" fill="none" xmlns="http://www.w3.org/2000/svg">
<path d="M13.2511 1.68491L13.2513 1.68508L19.5809 6.11852C20.1137 6.49192 20.6123 7.09916 20.978 7.80051C21.3437 8.50183 21.5569 9.25943 21.5569 9.91415V17.373C21.5569 19.9341 19.4801 22.0125 16.9231 22.0125H5.07692C2.52114 22.0125 0.443069 19.9243 0.443069 17.362V9.77113C0.443069 9.16264 0.63613 8.44327 0.969014 7.76643C1.30179 7.08981 1.75543 6.49406 2.23972 6.1159L2.23982 6.11582L7.74409 1.81529C7.7443 1.81513 7.7445 1.81497 7.74471 1.81481C9.25054 0.647236 11.6852 0.586556 13.2511 1.68491ZM11 19.3232C11.6957 19.3232 12.2672 18.7504 12.2672 18.0551V14.7547C12.2672 14.0594 11.6957 13.4865 11 13.4865C10.3043 13.4865 9.73275 14.0594 9.73275 14.7547V18.0551C9.73275 18.7504 10.3043 19.3232 11 19.3232Z" fill="#9A3F11" stroke="#9A3F11" stroke-width="0.886139"/>
</svg>
