<svg width="358" height="388" viewBox="0 0 358 388" fill="none" xmlns="http://www.w3.org/2000/svg">
<path d="M147.51 133.972C103.093 161.832 99.358 162.597 52.7851 143.444C39.4332 137.953 28.8957 135.133 31.1338 119.166H29.0642C29.1539 114.995 29.7046 112.639 31.1338 108.42C33.6991 101.935 33.9563 98.2095 33.1238 91.4649C27.4539 88.2133 24.3399 86.0093 19.1937 79.684C8.28018 62.6435 4.04092 51.9234 2 29.3765C4.36531 17.6527 7.36973 14.4627 14.9749 13.2972C31.001 13.4949 41.8571 19.7767 65.1232 43.8638C83.3727 35.6137 92.8241 34.7893 107.471 36.6997L103.57 40.6797C107.891 39.826 110.314 39.9017 114.635 40.6797C123.599 24.7372 129.792 17.7457 142.495 8.04356C159.559 -2.37434 166.191 0.427146 171.788 18.3916C175.405 37.8025 171.125 51.8639 153.48 83.0272C155.231 92.2608 157.226 96.3179 161.519 104.281L159.848 103.246C161.233 116.38 155.801 122.608 147.51 133.972Z" fill="#FEFEFE"/>
<path d="M149.898 18.3916C138.424 25.5532 134.844 32.15 131.828 46.9682C141.641 54.4637 146.36 59.7203 151.171 73.9527L153.48 83.0272M153.48 83.0272C155.231 92.2608 157.226 96.3179 161.519 104.281L159.848 103.246C161.233 116.38 155.801 122.608 147.51 133.972C103.093 161.832 99.358 162.597 52.7851 143.444C39.4332 137.953 28.8957 135.133 31.1338 119.166H29.0642C29.1539 114.995 29.7046 112.639 31.1338 108.42C33.6991 101.935 33.9563 98.2095 33.1238 91.4649M153.48 83.0272C171.125 51.8639 175.405 37.8025 171.788 18.3916C166.191 0.427146 159.559 -2.37434 142.495 8.04356C129.792 17.7457 123.599 24.7372 114.635 40.6797M114.635 40.6797L120.048 43.8638M114.635 40.6797C110.314 39.9017 107.891 39.826 103.57 40.6797L107.471 36.6997C92.8241 34.7893 83.3727 35.6137 65.1232 43.8638M65.1232 43.8638L60.4267 48.003M65.1232 43.8638C41.8571 19.7767 31.001 13.4949 14.9749 13.2972C7.36973 14.4627 4.36531 17.6527 2 29.3765C4.04092 51.9234 8.28018 62.6435 19.1937 79.684C24.3399 86.0093 27.4539 88.2133 33.1238 91.4649M33.1238 91.4649C35.2507 72.6082 39.1171 65.1176 49.5215 55.8038C43.305 40.1076 38.428 35.1619 29.0642 28.1825" stroke="#793A30" stroke-width="3" stroke-linecap="round"/>
<path d="M160.564 102.768C160.564 102.768 159.732 104.609 159.566 105.187C159.613 105.25 159.628 105.294 159.609 105.315C159.526 105.407 159.521 105.343 159.566 105.187C158.654 103.949 145.658 95.2212 134.455 100.141C121.242 99.7433 115.246 93.2957 113.441 82.5496C112.695 65.7496 100.784 41.7942 102.933 41.0778C108.983 40.1226 114.237 39.8838 119.411 43.3369C117.783 42.195 117.122 41.1269 114.874 40.441C123.948 24.5209 131.678 15.9734 145.918 6.21277C144.889 11.6873 145.1 16.0501 145.281 21.0981C137.878 28.2621 135.012 33.9442 131.59 46.809C145.081 57.5425 149.383 65.7873 153.161 83.7436L160.564 102.768Z" fill="#FFAB4B"/>
<path d="M60.3472 110.569C60.3472 111.316 37.263 115.743 34.5566 133.175C30.0194 131.106 31.293 120.311 31.293 119.564C31.293 119.207 29.7806 119.086 29.303 118.529C29.8602 112.559 33.283 103.246 33.5218 99.0269C34.6314 99.0269 30.1786 78.0919 42.5166 63.2066C44.5427 60.7624 47.1549 57.6821 49.4419 55.565C50.3082 54.763 39.0938 32.0032 28.507 28.1824C29.0642 23.2471 28.5915 16.6127 29.0642 16.2424C29.9837 15.5219 41.8002 21.7348 49.4419 29.456C52.5463 32.2421 63.2879 40.4248 64.8844 44.1821C61.5412 46.2517 60.325 47.7974 60.7452 47.5254C60.4268 48.4806 59.7123 48.5261 60.7452 47.9234C63.3298 42.8338 78.9737 38.3713 86.3765 37.1773C86.7138 38.1217 80.3061 55.1197 79.2125 69.8138C83.1129 90.9079 82.2125 94.7194 81.0433 97.435C78.3369 107.783 60.3472 110.382 60.3472 110.569Z" fill="#FFAB4B"/>
<path d="M145.679 6.61073C163.048 -4.25964 167.569 6.6107 171.231 17.914C172.632 24.8805 173.588 28.5204 172.584 35.3465C172.188 44.8137 164.986 65.4029 153.48 82.3904C151.798 75.276 150.803 71.4174 147.589 64.7191C141.038 54.5896 138.023 51.9537 132.067 46.8886C135.914 32.3383 137.639 26.9089 149.977 18.3916C149.138 18.3916 145.201 21.1776 145.201 21.1776C144.853 15.7321 145.008 11.6632 145.679 6.61073Z" fill="#FF8D8D"/>
<path d="M49.5215 55.5652C40.4879 63.5894 36.7854 70.2912 32.7258 91.3853C18.4773 81.5149 12.2274 72.4588 5.42282 49.5951C0.169188 29.695 2.03078 23.6654 7.81083 15.8445C15.4456 12.5388 21.1058 12.775 29.0642 15.8445C30.5058 20.1149 29.9858 22.9937 29.6214 27.4662C29.6214 27.4662 29.6214 28.1549 29.25 28.259C29.3311 28.5238 29.2234 28.5806 29.2234 28.5806C37.7284 34.1691 42.5722 40.9077 49.5215 55.5652Z" fill="#FF8D8D"/>
<path d="M149.898 18.3916C138.424 25.5532 134.844 32.15 131.828 46.9682C141.641 54.4637 146.36 59.7203 151.171 73.9527L153.48 83.0272M153.48 83.0272C155.231 92.2608 157.226 96.3179 161.519 104.281L159.848 103.246C161.233 116.38 155.801 122.608 147.51 133.972C103.093 161.832 99.358 162.597 52.7851 143.444C39.4332 137.953 28.8957 135.133 31.1338 119.166H29.0642C29.1539 114.995 29.7046 112.639 31.1338 108.42C33.6991 101.935 33.9563 98.2095 33.1238 91.4649M153.48 83.0272C171.125 51.8639 175.405 37.8025 171.788 18.3916C166.191 0.427146 159.559 -2.37434 142.495 8.04356C129.792 17.7457 123.599 24.7372 114.635 40.6797M114.635 40.6797L120.048 43.8638M114.635 40.6797C110.314 39.9017 107.891 39.826 103.57 40.6797L107.471 36.6997C92.8241 34.7893 83.3727 35.6137 65.1232 43.8638M65.1232 43.8638L60.4267 48.003M65.1232 43.8638C41.8571 19.7767 31.001 13.4949 14.9749 13.2972C7.36973 14.4627 4.36531 17.6527 2 29.3765C4.04092 51.9234 8.28018 62.6435 19.1937 79.684C24.3399 86.0093 27.4539 88.2133 33.1238 91.4649M33.1238 91.4649C35.2507 72.6082 39.1171 65.1176 49.5215 55.8038C43.305 40.1076 38.428 35.1619 29.0642 28.1825" stroke="#793A30" stroke-width="3" stroke-linecap="round"/>
<path d="M147.51 133.972C103.093 161.832 99.358 162.597 52.7851 143.444C39.4332 137.953 28.8957 135.133 31.1338 119.166H29.0642C29.1539 114.995 29.7046 112.639 31.1338 108.42C33.6991 101.935 33.9563 98.2095 33.1238 91.4649C27.4539 88.2133 24.3399 86.0093 19.1937 79.684C8.28018 62.6435 4.04092 51.9234 2 29.3765C4.36531 17.6527 7.36973 14.4627 14.9749 13.2972C31.001 13.4949 41.8571 19.7767 65.1232 43.8638C83.3727 35.6137 92.8241 34.7893 107.471 36.6997L103.57 40.6797C107.891 39.826 110.314 39.9017 114.635 40.6797C123.599 24.7372 129.792 17.7457 142.495 8.04356C159.559 -2.37434 166.191 0.427146 171.788 18.3916C175.405 37.8025 171.125 51.8639 153.48 83.0272C155.231 92.2608 157.226 96.3179 161.519 104.281L159.848 103.246C161.233 116.38 155.801 122.608 147.51 133.972Z" fill="#FEFEFE"/>
<path d="M149.898 18.3916C138.424 25.5532 134.844 32.15 131.828 46.9682C141.641 54.4637 146.36 59.7203 151.171 73.9527L153.48 83.0272M153.48 83.0272C155.231 92.2608 157.226 96.3179 161.519 104.281L159.848 103.246C161.233 116.38 155.801 122.608 147.51 133.972C103.093 161.832 99.358 162.597 52.7851 143.444C39.4332 137.953 28.8957 135.133 31.1338 119.166H29.0642C29.1539 114.995 29.7046 112.639 31.1338 108.42C33.6991 101.935 33.9563 98.2095 33.1238 91.4649M153.48 83.0272C171.125 51.8639 175.405 37.8025 171.788 18.3916C166.191 0.427146 159.559 -2.37434 142.495 8.04356C129.792 17.7457 123.599 24.7372 114.635 40.6797M114.635 40.6797L120.048 43.8638M114.635 40.6797C110.314 39.9017 107.891 39.826 103.57 40.6797L107.471 36.6997C92.8241 34.7893 83.3727 35.6137 65.1232 43.8638M65.1232 43.8638L60.4267 48.003M65.1232 43.8638C41.8571 19.7767 31.001 13.4949 14.9749 13.2972C7.36973 14.4627 4.36531 17.6527 2 29.3765C4.04092 51.9234 8.28018 62.6435 19.1937 79.684C24.3399 86.0093 27.4539 88.2133 33.1238 91.4649M33.1238 91.4649C35.2507 72.6082 39.1171 65.1176 49.5215 55.8038C43.305 40.1076 38.428 35.1619 29.0642 28.1825" stroke="#793A30" stroke-width="3" stroke-linecap="round"/>
<path d="M160.564 102.768C160.564 102.768 159.732 104.609 159.566 105.187C159.613 105.25 159.628 105.294 159.609 105.315C159.526 105.407 159.521 105.343 159.566 105.187C158.654 103.949 145.658 95.2212 134.455 100.141C121.242 99.7433 115.246 93.2957 113.441 82.5496C112.695 65.7496 100.784 41.7942 102.933 41.0778C108.983 40.1226 114.237 39.8838 119.411 43.3369C117.783 42.195 117.122 41.1269 114.874 40.441C123.948 24.5209 131.678 15.9734 145.918 6.21277C144.889 11.6873 145.1 16.0501 145.281 21.0981C137.878 28.2621 135.012 33.9442 131.59 46.809C145.081 57.5425 149.383 65.7873 153.161 83.7436L160.564 102.768Z" fill="#FFAB4B"/>
<path d="M60.3472 110.569C60.3472 111.316 37.263 115.743 34.5566 133.175C30.0194 131.106 31.293 120.311 31.293 119.564C31.293 119.207 29.7806 119.086 29.303 118.529C29.8602 112.559 33.283 103.246 33.5218 99.0269C34.6314 99.0269 30.1786 78.0919 42.5166 63.2066C44.5427 60.7624 47.1549 57.6821 49.4419 55.565C50.3082 54.763 39.0938 32.0032 28.507 28.1824C29.0642 23.2471 28.5915 16.6127 29.0642 16.2424C29.9837 15.5219 41.8002 21.7348 49.4419 29.456C52.5463 32.2421 63.2879 40.4248 64.8844 44.1821C61.5412 46.2517 60.325 47.7974 60.7452 47.5254C60.4268 48.4806 59.7123 48.5261 60.7452 47.9234C63.3298 42.8338 78.9737 38.3713 86.3765 37.1773C86.7138 38.1217 80.3061 55.1197 79.2125 69.8138C83.1129 90.9079 82.2125 94.7194 81.0433 97.435C78.3369 107.783 60.3472 110.382 60.3472 110.569Z" fill="#FFAB4B"/>
<path d="M145.679 6.61073C163.048 -4.25964 167.569 6.6107 171.231 17.914C172.632 24.8805 173.588 28.5204 172.584 35.3465C172.188 44.8137 164.986 65.4029 153.48 82.3904C151.798 75.276 150.803 71.4174 147.589 64.7191C141.038 54.5896 138.023 51.9537 132.067 46.8886C135.914 32.3383 137.639 26.9089 149.977 18.3916C149.138 18.3916 145.201 21.1776 145.201 21.1776C144.853 15.7321 145.008 11.6632 145.679 6.61073Z" fill="#FF8D8D"/>
<path d="M49.5215 55.5652C40.4879 63.5894 36.7854 70.2912 32.7258 91.3853C18.4773 81.5149 12.2274 72.4588 5.42282 49.5951C0.169188 29.695 2.03078 23.6654 7.81083 15.8445C15.4456 12.5388 21.1058 12.775 29.0642 15.8445C30.5058 20.1149 29.9858 22.9937 29.6214 27.4662C29.6214 27.4662 29.6214 28.1549 29.25 28.259C29.3311 28.5238 29.2234 28.5806 29.2234 28.5806C37.7284 34.1691 42.5722 40.9077 49.5215 55.5652Z" fill="#FF8D8D"/>
<path d="M149.898 18.3916C138.424 25.5532 134.844 32.15 131.828 46.9682C141.641 54.4637 146.36 59.7203 151.171 73.9527L153.48 83.0272M153.48 83.0272C155.231 92.2608 157.226 96.3179 161.519 104.281L159.848 103.246C161.233 116.38 155.801 122.608 147.51 133.972C103.093 161.832 99.358 162.597 52.7851 143.444C39.4332 137.953 28.8957 135.133 31.1338 119.166H29.0642C29.1539 114.995 29.7046 112.639 31.1338 108.42C33.6991 101.935 33.9563 98.2095 33.1238 91.4649M153.48 83.0272C171.125 51.8639 175.405 37.8025 171.788 18.3916C166.191 0.427146 159.559 -2.37434 142.495 8.04356C129.792 17.7457 123.599 24.7372 114.635 40.6797M114.635 40.6797L120.048 43.8638M114.635 40.6797C110.314 39.9017 107.891 39.826 103.57 40.6797L107.471 36.6997C92.8241 34.7893 83.3727 35.6137 65.1232 43.8638M65.1232 43.8638L60.4267 48.003M65.1232 43.8638C41.8571 19.7767 31.001 13.4949 14.9749 13.2972C7.36973 14.4627 4.36531 17.6527 2 29.3765C4.04092 51.9234 8.28018 62.6435 19.1937 79.684C24.3399 86.0093 27.4539 88.2133 33.1238 91.4649M33.1238 91.4649C35.2507 72.6082 39.1171 65.1176 49.5215 55.8038C43.305 40.1076 38.428 35.1619 29.0642 28.1825" stroke="#793A30" stroke-width="3" stroke-linecap="round"/>
<path d="M77.9389 109.461C83.1919 118.582 88.6373 120.241 103.729 112.804C120.212 114.6 122.798 111.964 126.097 105.083" stroke="#361814" stroke-width="3" stroke-linecap="round" stroke-linejoin="round"/>
<path d="M94.8141 123.63C101.865 124.896 105.029 124.741 108.744 122.356" stroke="#361814" stroke-width="3" stroke-linecap="round" stroke-linejoin="round"/>
<path d="M111.132 95.7694C111.132 99.3742 107.55 105.64 101.023 104.844C95.2122 104.844 91.1526 99.3742 91.1526 95.7694C91.1526 92.1645 94.7346 87.9685 101.023 87.9685C107.311 87.9685 111.132 92.1645 111.132 95.7694Z" fill="#361814"/>
<path d="M136.604 84.7049C136.604 87.889 137.321 94.0182 130.316 95.2122C126.359 95.2122 121.082 91.471 121.082 85.7397C121.082 81.915 122.754 75.7101 127.61 75.7101C132.784 75.7101 136.604 80.8802 136.604 84.7049Z" fill="#361814"/>
<path d="M74.2896 92.7445C74.2896 94.5447 74.041 96.4685 73.164 98.1057C72.3401 99.6437 70.9018 101.044 68.2707 101.827C65.2881 101.69 61.6083 98.4535 61.6083 93.5405C61.6083 91.9133 62.1838 89.7022 63.2985 87.9297C64.4117 86.1596 65.8751 85.0905 67.5908 85.0905C69.6093 85.0905 71.255 86.1166 72.4448 87.652C73.6547 89.2133 74.2896 91.1819 74.2896 92.7445Z" fill="#361814" stroke="#361814" stroke-width="3"/>
<path d="M58.6755 89.3217C64.4842 86.225 66.4892 83.2937 69.1828 77.2224M122.913 71.9688C128.498 77.2023 132.108 78.3915 139.231 78.0184" stroke="#361814" stroke-width="3" stroke-linecap="round" stroke-linejoin="round"/>
<path d="M48.9643 65.2823C48.5663 72.2872 46.1783 84.3068 45.0639 86.0581C40.3599 86.0581 29.8602 73.2424 29.8602 65.7599C29.8602 63.342 30.6562 54.6159 38.457 53.5811C43.161 53.5811 49.3623 58.2775 48.9643 65.2823Z" fill="#48C6F8"/>
<path d="M330.51 133.972C286.093 161.832 282.358 162.597 235.785 143.444C222.433 137.953 211.896 135.133 214.134 119.166H212.064C212.154 114.995 212.705 112.639 214.134 108.42C216.699 101.935 216.956 98.2095 216.124 91.4649C210.454 88.2133 207.34 86.0093 202.194 79.684C191.28 62.6435 187.041 51.9234 185 29.3765C187.365 17.6527 190.37 14.4627 197.975 13.2972C214.001 13.4949 224.857 19.7767 248.123 43.8638C266.373 35.6137 275.824 34.7893 290.471 36.6997L286.57 40.6797C290.891 39.826 293.314 39.9017 297.635 40.6797C306.599 24.7372 312.792 17.7457 325.495 8.04356C342.559 -2.37434 349.191 0.427146 354.788 18.3916C358.405 37.8025 354.125 51.8639 336.48 83.0272C338.231 92.2608 340.226 96.3179 344.519 104.281L342.848 103.246C344.233 116.38 338.801 122.608 330.51 133.972Z" fill="#FEFEFE"/>
<path d="M332.898 18.3916C321.424 25.5532 317.844 32.15 314.828 46.9682C324.641 54.4637 329.36 59.7203 334.171 73.9527L336.48 83.0272M336.48 83.0272C338.231 92.2608 340.226 96.3179 344.519 104.281L342.848 103.246C344.233 116.38 338.801 122.608 330.51 133.972C286.093 161.832 282.358 162.597 235.785 143.444C222.433 137.953 211.896 135.133 214.134 119.166H212.064C212.154 114.995 212.705 112.639 214.134 108.42C216.699 101.935 216.956 98.2095 216.124 91.4649M336.48 83.0272C354.125 51.8639 358.405 37.8025 354.788 18.3916C349.191 0.427146 342.559 -2.37434 325.495 8.04356C312.792 17.7457 306.599 24.7372 297.635 40.6797M297.635 40.6797L303.048 43.8638M297.635 40.6797C293.314 39.9017 290.891 39.826 286.57 40.6797L290.471 36.6997C275.824 34.7893 266.373 35.6137 248.123 43.8638M248.123 43.8638L243.427 48.003M248.123 43.8638C224.857 19.7767 214.001 13.4949 197.975 13.2972C190.37 14.4627 187.365 17.6527 185 29.3765C187.041 51.9234 191.28 62.6435 202.194 79.684C207.34 86.0093 210.454 88.2133 216.124 91.4649M216.124 91.4649C218.251 72.6082 222.117 65.1176 232.521 55.8038C226.305 40.1076 221.428 35.1619 212.064 28.1825" stroke="#793A30" stroke-width="3" stroke-linecap="round"/>
<path d="M343.564 102.768C343.564 102.768 342.732 104.609 342.566 105.187C342.613 105.25 342.628 105.294 342.609 105.315C342.526 105.407 342.521 105.343 342.566 105.187C341.654 103.949 328.658 95.2212 317.455 100.141C304.242 99.7433 298.246 93.2957 296.441 82.5496C295.695 65.7496 283.784 41.7942 285.933 41.0778C291.983 40.1226 297.237 39.8838 302.411 43.3369C300.783 42.195 300.122 41.1269 297.874 40.441C306.948 24.5209 314.678 15.9734 328.918 6.21277C327.889 11.6873 328.1 16.0501 328.281 21.0981C320.878 28.2621 318.012 33.9442 314.59 46.809C328.081 57.5425 332.383 65.7873 336.161 83.7436L343.564 102.768Z" fill="#FFAB4B"/>
<path d="M243.347 110.569C243.347 111.316 220.263 115.743 217.557 133.175C213.019 131.106 214.293 120.311 214.293 119.564C214.293 119.207 212.781 119.086 212.303 118.529C212.86 112.559 216.283 103.246 216.522 99.0269C217.631 99.0269 213.179 78.0919 225.517 63.2066C227.543 60.7624 230.155 57.6821 232.442 55.565C233.308 54.763 222.094 32.0032 211.507 28.1824C212.064 23.2471 211.591 16.6127 212.064 16.2424C212.984 15.5219 224.8 21.7348 232.442 29.456C235.546 32.2421 246.288 40.4248 247.884 44.1821C244.541 46.2517 243.325 47.7974 243.745 47.5254C243.427 48.4806 242.712 48.5261 243.745 47.9234C246.33 42.8338 261.974 38.3713 269.377 37.1773C269.714 38.1217 263.306 55.1197 262.212 69.8138C266.113 90.9079 265.212 94.7194 264.043 97.435C261.337 107.783 243.347 110.382 243.347 110.569Z" fill="#FFAB4B"/>
<path d="M328.679 6.61073C346.048 -4.25964 350.569 6.6107 354.231 17.914C355.632 24.8805 356.588 28.5204 355.584 35.3465C355.188 44.8137 347.986 65.4029 336.48 82.3904C334.798 75.276 333.803 71.4174 330.589 64.7191C324.038 54.5896 321.023 51.9537 315.067 46.8886C318.914 32.3383 320.639 26.9089 332.977 18.3916C332.138 18.3916 328.201 21.1776 328.201 21.1776C327.853 15.7321 328.008 11.6632 328.679 6.61073Z" fill="#FF8D8D"/>
<path d="M232.521 55.5652C223.488 63.5894 219.785 70.2912 215.726 91.3853C201.477 81.5149 195.227 72.4588 188.423 49.5951C183.169 29.695 185.031 23.6654 190.811 15.8445C198.446 12.5388 204.106 12.775 212.064 15.8445C213.506 20.1149 212.986 22.9937 212.621 27.4662C212.621 27.4662 212.621 28.1549 212.25 28.259C212.331 28.5238 212.223 28.5806 212.223 28.5806C220.728 34.1691 225.572 40.9077 232.521 55.5652Z" fill="#FF8D8D"/>
<path d="M332.898 18.3916C321.424 25.5532 317.844 32.15 314.828 46.9682C324.641 54.4637 329.36 59.7203 334.171 73.9527L336.48 83.0272M336.48 83.0272C338.231 92.2608 340.226 96.3179 344.519 104.281L342.848 103.246C344.233 116.38 338.801 122.608 330.51 133.972C286.093 161.832 282.358 162.597 235.785 143.444C222.433 137.953 211.896 135.133 214.134 119.166H212.064C212.154 114.995 212.705 112.639 214.134 108.42C216.699 101.935 216.956 98.2095 216.124 91.4649M336.48 83.0272C354.125 51.8639 358.405 37.8025 354.788 18.3916C349.191 0.427146 342.559 -2.37434 325.495 8.04356C312.792 17.7457 306.599 24.7372 297.635 40.6797M297.635 40.6797L303.048 43.8638M297.635 40.6797C293.314 39.9017 290.891 39.826 286.57 40.6797L290.471 36.6997C275.824 34.7893 266.373 35.6137 248.123 43.8638M248.123 43.8638L243.427 48.003M248.123 43.8638C224.857 19.7767 214.001 13.4949 197.975 13.2972C190.37 14.4627 187.365 17.6527 185 29.3765C187.041 51.9234 191.28 62.6435 202.194 79.684C207.34 86.0093 210.454 88.2133 216.124 91.4649M216.124 91.4649C218.251 72.6082 222.117 65.1176 232.521 55.8038C226.305 40.1076 221.428 35.1619 212.064 28.1825" stroke="#793A30" stroke-width="3" stroke-linecap="round"/>
<path d="M330.51 133.972C286.093 161.832 282.358 162.597 235.785 143.444C222.433 137.953 211.896 135.133 214.134 119.166H212.064C212.154 114.995 212.705 112.639 214.134 108.42C216.699 101.935 216.956 98.2095 216.124 91.4649C210.454 88.2133 207.34 86.0093 202.194 79.684C191.28 62.6435 187.041 51.9234 185 29.3765C187.365 17.6527 190.37 14.4627 197.975 13.2972C214.001 13.4949 224.857 19.7767 248.123 43.8638C266.373 35.6137 275.824 34.7893 290.471 36.6997L286.57 40.6797C290.891 39.826 293.314 39.9017 297.635 40.6797C306.599 24.7372 312.792 17.7457 325.495 8.04356C342.559 -2.37434 349.191 0.427146 354.788 18.3916C358.405 37.8025 354.125 51.8639 336.48 83.0272C338.231 92.2608 340.226 96.3179 344.519 104.281L342.848 103.246C344.233 116.38 338.801 122.608 330.51 133.972Z" fill="#FEFEFE"/>
<path d="M332.898 18.3916C321.424 25.5532 317.844 32.15 314.828 46.9682C324.641 54.4637 329.36 59.7203 334.171 73.9527L336.48 83.0272M336.48 83.0272C338.231 92.2608 340.226 96.3179 344.519 104.281L342.848 103.246C344.233 116.38 338.801 122.608 330.51 133.972C286.093 161.832 282.358 162.597 235.785 143.444C222.433 137.953 211.896 135.133 214.134 119.166H212.064C212.154 114.995 212.705 112.639 214.134 108.42C216.699 101.935 216.956 98.2095 216.124 91.4649M336.48 83.0272C354.125 51.8639 358.405 37.8025 354.788 18.3916C349.191 0.427146 342.559 -2.37434 325.495 8.04356C312.792 17.7457 306.599 24.7372 297.635 40.6797M297.635 40.6797L303.048 43.8638M297.635 40.6797C293.314 39.9017 290.891 39.826 286.57 40.6797L290.471 36.6997C275.824 34.7893 266.373 35.6137 248.123 43.8638M248.123 43.8638L243.427 48.003M248.123 43.8638C224.857 19.7767 214.001 13.4949 197.975 13.2972C190.37 14.4627 187.365 17.6527 185 29.3765C187.041 51.9234 191.28 62.6435 202.194 79.684C207.34 86.0093 210.454 88.2133 216.124 91.4649M216.124 91.4649C218.251 72.6082 222.117 65.1176 232.521 55.8038C226.305 40.1076 221.428 35.1619 212.064 28.1825" stroke="#793A30" stroke-width="3" stroke-linecap="round"/>
<path d="M343.564 102.768C343.564 102.768 342.732 104.609 342.566 105.187C342.613 105.25 342.628 105.294 342.609 105.315C342.526 105.407 342.521 105.343 342.566 105.187C341.654 103.949 328.658 95.2212 317.455 100.141C304.242 99.7433 298.246 93.2957 296.441 82.5496C295.695 65.7496 283.784 41.7942 285.933 41.0778C291.983 40.1226 297.237 39.8838 302.411 43.3369C300.783 42.195 300.122 41.1269 297.874 40.441C306.948 24.5209 314.678 15.9734 328.918 6.21277C327.889 11.6873 328.1 16.0501 328.281 21.0981C320.878 28.2621 318.012 33.9442 314.59 46.809C328.081 57.5425 332.383 65.7873 336.161 83.7436L343.564 102.768Z" fill="#FFAB4B"/>
<path d="M243.347 110.569C243.347 111.316 220.263 115.743 217.557 133.175C213.019 131.106 214.293 120.311 214.293 119.564C214.293 119.207 212.781 119.086 212.303 118.529C212.86 112.559 216.283 103.246 216.522 99.0269C217.631 99.0269 213.179 78.0919 225.517 63.2066C227.543 60.7624 230.155 57.6821 232.442 55.565C233.308 54.763 222.094 32.0032 211.507 28.1824C212.064 23.2471 211.591 16.6127 212.064 16.2424C212.984 15.5219 224.8 21.7348 232.442 29.456C235.546 32.2421 246.288 40.4248 247.884 44.1821C244.541 46.2517 243.325 47.7974 243.745 47.5254C243.427 48.4806 242.712 48.5261 243.745 47.9234C246.33 42.8338 261.974 38.3713 269.377 37.1773C269.714 38.1217 263.306 55.1197 262.212 69.8138C266.113 90.9079 265.212 94.7194 264.043 97.435C261.337 107.783 243.347 110.382 243.347 110.569Z" fill="#FFAB4B"/>
<path d="M328.679 6.61073C346.048 -4.25964 350.569 6.6107 354.231 17.914C355.632 24.8805 356.588 28.5204 355.584 35.3465C355.188 44.8137 347.986 65.4029 336.48 82.3904C334.798 75.276 333.803 71.4174 330.589 64.7191C324.038 54.5896 321.023 51.9537 315.067 46.8886C318.914 32.3383 320.639 26.9089 332.977 18.3916C332.138 18.3916 328.201 21.1776 328.201 21.1776C327.853 15.7321 328.008 11.6632 328.679 6.61073Z" fill="#FF8D8D"/>
<path d="M232.521 55.5652C223.488 63.5894 219.785 70.2912 215.726 91.3853C201.477 81.5149 195.227 72.4588 188.423 49.5951C183.169 29.695 185.031 23.6654 190.811 15.8445C198.446 12.5388 204.106 12.775 212.064 15.8445C213.506 20.1149 212.986 22.9937 212.621 27.4662C212.621 27.4662 212.621 28.1549 212.25 28.259C212.331 28.5238 212.223 28.5806 212.223 28.5806C220.728 34.1691 225.572 40.9077 232.521 55.5652Z" fill="#FF8D8D"/>
<path d="M332.898 18.3916C321.424 25.5532 317.844 32.15 314.828 46.9682C324.641 54.4637 329.36 59.7203 334.171 73.9527L336.48 83.0272M336.48 83.0272C338.231 92.2608 340.226 96.3179 344.519 104.281L342.848 103.246C344.233 116.38 338.801 122.608 330.51 133.972C286.093 161.832 282.358 162.597 235.785 143.444C222.433 137.953 211.896 135.133 214.134 119.166H212.064C212.154 114.995 212.705 112.639 214.134 108.42C216.699 101.935 216.956 98.2095 216.124 91.4649M336.48 83.0272C354.125 51.8639 358.405 37.8025 354.788 18.3916C349.191 0.427146 342.559 -2.37434 325.495 8.04356C312.792 17.7457 306.599 24.7372 297.635 40.6797M297.635 40.6797L303.048 43.8638M297.635 40.6797C293.314 39.9017 290.891 39.826 286.57 40.6797L290.471 36.6997C275.824 34.7893 266.373 35.6137 248.123 43.8638M248.123 43.8638L243.427 48.003M248.123 43.8638C224.857 19.7767 214.001 13.4949 197.975 13.2972C190.37 14.4627 187.365 17.6527 185 29.3765C187.041 51.9234 191.28 62.6435 202.194 79.684C207.34 86.0093 210.454 88.2133 216.124 91.4649M216.124 91.4649C218.251 72.6082 222.117 65.1176 232.521 55.8038C226.305 40.1076 221.428 35.1619 212.064 28.1825" stroke="#793A30" stroke-width="3" stroke-linecap="round"/>
<path d="M297.794 71.332C301.755 69.0571 304.352 68.9384 308.699 69.0236M259.188 74.5956C254.555 75.0736 252.242 76.1625 248.521 79.2921" stroke="#C6704B" stroke-width="6" stroke-linecap="round" stroke-linejoin="round"/>
<path d="M242.551 92.4262C252.566 96.4986 256.821 94.9107 262.69 87.1725M300.739 83.1129C308.647 88.7203 312.786 89.0363 319.206 80.3269M273.595 125.938C285.611 114.908 292.537 113.875 305.276 122.436" stroke="#361814" stroke-width="3" stroke-linecap="round"/>
<path d="M294.053 95.7694C294.053 100.429 290.119 104.764 284.58 104.764C279.041 104.764 273.993 100.429 273.993 95.7694C273.993 91.1095 278.484 87.3318 284.023 87.3318C289.562 87.3318 294.053 91.1095 294.053 95.7694Z" fill="#361814"/>
<path d="M147.51 363.52C103.093 391.38 99.358 392.146 52.7851 372.992C39.4332 367.501 28.8957 364.681 31.1338 348.714H29.0642C29.1539 344.543 29.7046 342.187 31.1338 337.968C33.6991 331.484 33.9563 327.758 33.1238 321.013C27.4539 317.761 24.3399 315.557 19.1937 309.232C8.28018 292.192 4.04092 281.471 2 258.925C4.36531 247.201 7.36973 244.011 14.9749 242.845C31.001 243.043 41.8571 249.325 65.1232 273.412C83.3727 265.162 92.8241 264.337 107.471 266.248L103.57 270.228C107.891 269.374 110.314 269.45 114.635 270.228C123.599 254.285 129.792 247.294 142.495 237.592C159.559 227.174 166.191 229.975 171.788 247.94C175.405 267.351 171.125 281.412 153.48 312.575C155.231 321.809 157.226 325.866 161.519 333.829L159.848 332.794C161.233 345.928 155.801 352.156 147.51 363.52Z" fill="#FEFEFE"/>
<path d="M149.898 247.94C138.424 255.101 134.844 261.698 131.828 276.516C141.641 284.012 146.36 289.268 151.171 303.501L153.48 312.575M153.48 312.575C155.231 321.809 157.226 325.866 161.519 333.829L159.848 332.794C161.233 345.928 155.801 352.156 147.51 363.52C103.093 391.38 99.358 392.146 52.7851 372.992C39.4332 367.501 28.8957 364.681 31.1338 348.714H29.0642C29.1539 344.543 29.7046 342.187 31.1338 337.968C33.6991 331.484 33.9563 327.758 33.1238 321.013M153.48 312.575C171.125 281.412 175.405 267.351 171.788 247.94C166.191 229.975 159.559 227.174 142.495 237.592C129.792 247.294 123.599 254.285 114.635 270.228M114.635 270.228L120.048 273.412M114.635 270.228C110.314 269.45 107.891 269.374 103.57 270.228L107.471 266.248C92.8241 264.337 83.3727 265.162 65.1232 273.412M65.1232 273.412L60.4267 277.551M65.1232 273.412C41.8571 249.325 31.001 243.043 14.9749 242.845C7.36973 244.011 4.36531 247.201 2 258.925C4.04092 281.471 8.28018 292.192 19.1937 309.232C24.3399 315.557 27.4539 317.761 33.1238 321.013M33.1238 321.013C35.2507 302.156 39.1171 294.666 49.5215 285.352C43.305 269.656 38.428 264.71 29.0642 257.731" stroke="#793A30" stroke-width="3" stroke-linecap="round"/>
<path d="M160.564 332.316C160.564 332.316 159.732 334.157 159.566 334.735C159.613 334.799 159.628 334.842 159.609 334.863C159.526 334.955 159.521 334.891 159.566 334.735C158.654 333.497 145.658 324.769 134.455 329.689C121.242 329.291 115.246 322.844 113.441 312.098C112.695 295.298 100.784 271.342 102.933 270.626C108.983 269.671 114.237 269.432 119.411 272.885C117.783 271.743 117.122 270.675 114.874 269.989C123.948 254.069 131.678 245.521 145.918 235.761C144.889 241.235 145.1 245.598 145.281 250.646C137.878 257.81 135.012 263.492 131.59 276.357C145.081 287.091 149.383 295.335 153.161 313.292L160.564 332.316Z" fill="#FFAB4B"/>
<path d="M60.3472 340.117C60.3472 340.864 37.263 345.291 34.5566 362.724C30.0194 360.654 31.293 349.859 31.293 349.112C31.293 348.755 29.7806 348.634 29.303 348.077C29.8602 342.107 33.283 332.794 33.5218 328.575C34.6314 328.575 30.1786 307.64 42.5166 292.755C44.5427 290.31 47.1549 287.23 49.4419 285.113C50.3082 284.311 39.0938 261.551 28.507 257.731C29.0642 252.795 28.5915 246.161 29.0642 245.79C29.9837 245.07 41.8002 251.283 49.4419 259.004C52.5463 261.79 63.2879 269.973 64.8844 273.73C61.5412 275.8 60.325 277.345 60.7452 277.073C60.4268 278.029 59.7123 278.074 60.7452 277.471C63.3298 272.382 78.9737 267.919 86.3765 266.725C86.7138 267.67 80.3061 284.668 79.2125 299.362C83.1129 320.456 82.2125 324.268 81.0433 326.983C78.3369 337.331 60.3472 339.93 60.3472 340.117Z" fill="#FFAB4B"/>
<path d="M145.679 236.159C163.048 225.288 167.569 236.159 171.231 247.462C172.632 254.429 173.588 258.068 172.584 264.895C172.188 274.362 164.986 294.951 153.48 311.938C151.798 304.824 150.803 300.965 147.589 294.267C141.038 284.138 138.023 281.502 132.067 276.437C135.914 261.886 137.639 256.457 149.977 247.94C149.138 247.94 145.201 250.726 145.201 250.726C144.853 245.28 145.008 241.211 145.679 236.159Z" fill="#FF8D8D"/>
<path d="M49.5215 285.113C40.4879 293.137 36.7854 299.839 32.7258 320.933C18.4773 311.063 12.2274 302.007 5.42282 279.143C0.169188 259.243 2.03078 253.213 7.81083 245.393C15.4456 242.087 21.1058 242.323 29.0642 245.393C30.5058 249.663 29.9858 252.542 29.6214 257.014C29.6214 257.014 29.6214 257.703 29.25 257.807C29.3311 258.072 29.2234 258.129 29.2234 258.129C37.7284 263.717 42.5722 270.456 49.5215 285.113Z" fill="#FF8D8D"/>
<path d="M149.898 247.94C138.424 255.101 134.844 261.698 131.828 276.516C141.641 284.012 146.36 289.268 151.171 303.501L153.48 312.575M153.48 312.575C155.231 321.809 157.226 325.866 161.519 333.829L159.848 332.794C161.233 345.928 155.801 352.156 147.51 363.52C103.093 391.38 99.358 392.146 52.7851 372.992C39.4332 367.501 28.8957 364.681 31.1338 348.714H29.0642C29.1539 344.543 29.7046 342.187 31.1338 337.968C33.6991 331.484 33.9563 327.758 33.1238 321.013M153.48 312.575C171.125 281.412 175.405 267.351 171.788 247.94C166.191 229.975 159.559 227.174 142.495 237.592C129.792 247.294 123.599 254.285 114.635 270.228M114.635 270.228L120.048 273.412M114.635 270.228C110.314 269.45 107.891 269.374 103.57 270.228L107.471 266.248C92.8241 264.337 83.3727 265.162 65.1232 273.412M65.1232 273.412L60.4267 277.551M65.1232 273.412C41.8571 249.325 31.001 243.043 14.9749 242.845C7.36973 244.011 4.36531 247.201 2 258.925C4.04092 281.471 8.28018 292.192 19.1937 309.232C24.3399 315.557 27.4539 317.761 33.1238 321.013M33.1238 321.013C35.2507 302.156 39.1171 294.666 49.5215 285.352C43.305 269.656 38.428 264.71 29.0642 257.731" stroke="#793A30" stroke-width="3" stroke-linecap="round"/>
<path d="M147.51 363.52C103.093 391.38 99.358 392.146 52.7851 372.992C39.4332 367.501 28.8957 364.681 31.1338 348.714H29.0642C29.1539 344.543 29.7046 342.187 31.1338 337.968C33.6991 331.484 33.9563 327.758 33.1238 321.013C27.4539 317.761 24.3399 315.557 19.1937 309.232C8.28018 292.192 4.04092 281.471 2 258.925C4.36531 247.201 7.36973 244.011 14.9749 242.845C31.001 243.043 41.8571 249.325 65.1232 273.412C83.3727 265.162 92.8241 264.337 107.471 266.248L103.57 270.228C107.891 269.374 110.314 269.45 114.635 270.228C123.599 254.285 129.792 247.294 142.495 237.592C159.559 227.174 166.191 229.975 171.788 247.94C175.405 267.351 171.125 281.412 153.48 312.575C155.231 321.809 157.226 325.866 161.519 333.829L159.848 332.794C161.233 345.928 155.801 352.156 147.51 363.52Z" fill="#FEFEFE"/>
<path d="M149.898 247.94C138.424 255.101 134.844 261.698 131.828 276.516C141.641 284.012 146.36 289.268 151.171 303.501L153.48 312.575M153.48 312.575C155.231 321.809 157.226 325.866 161.519 333.829L159.848 332.794C161.233 345.928 155.801 352.156 147.51 363.52C103.093 391.38 99.358 392.146 52.7851 372.992C39.4332 367.501 28.8957 364.681 31.1338 348.714H29.0642C29.1539 344.543 29.7046 342.187 31.1338 337.968C33.6991 331.484 33.9563 327.758 33.1238 321.013M153.48 312.575C171.125 281.412 175.405 267.351 171.788 247.94C166.191 229.975 159.559 227.174 142.495 237.592C129.792 247.294 123.599 254.285 114.635 270.228M114.635 270.228L120.048 273.412M114.635 270.228C110.314 269.45 107.891 269.374 103.57 270.228L107.471 266.248C92.8241 264.337 83.3727 265.162 65.1232 273.412M65.1232 273.412L60.4267 277.551M65.1232 273.412C41.8571 249.325 31.001 243.043 14.9749 242.845C7.36973 244.011 4.36531 247.201 2 258.925C4.04092 281.471 8.28018 292.192 19.1937 309.232C24.3399 315.557 27.4539 317.761 33.1238 321.013M33.1238 321.013C35.2507 302.156 39.1171 294.666 49.5215 285.352C43.305 269.656 38.428 264.71 29.0642 257.731" stroke="#793A30" stroke-width="3" stroke-linecap="round"/>
<path d="M160.564 332.316C160.564 332.316 159.732 334.157 159.566 334.735C159.613 334.799 159.628 334.842 159.609 334.863C159.526 334.955 159.521 334.891 159.566 334.735C158.654 333.497 145.658 324.769 134.455 329.689C121.242 329.291 115.246 322.844 113.441 312.098C112.695 295.298 100.784 271.342 102.933 270.626C108.983 269.671 114.237 269.432 119.411 272.885C117.783 271.743 117.122 270.675 114.874 269.989C123.948 254.069 131.678 245.521 145.918 235.761C144.889 241.235 145.1 245.598 145.281 250.646C137.878 257.81 135.012 263.492 131.59 276.357C145.081 287.091 149.383 295.335 153.161 313.292L160.564 332.316Z" fill="#FFAB4B"/>
<path d="M60.3472 340.117C60.3472 340.864 37.263 345.291 34.5566 362.724C30.0194 360.654 31.293 349.859 31.293 349.112C31.293 348.755 29.7806 348.634 29.303 348.077C29.8602 342.107 33.283 332.794 33.5218 328.575C34.6314 328.575 30.1786 307.64 42.5166 292.755C44.5427 290.31 47.1549 287.23 49.4419 285.113C50.3082 284.311 39.0938 261.551 28.507 257.731C29.0642 252.795 28.5915 246.161 29.0642 245.79C29.9837 245.07 41.8002 251.283 49.4419 259.004C52.5463 261.79 63.2879 269.973 64.8844 273.73C61.5412 275.8 60.325 277.345 60.7452 277.073C60.4268 278.029 59.7123 278.074 60.7452 277.471C63.3298 272.382 78.9737 267.919 86.3765 266.725C86.7138 267.67 80.3061 284.668 79.2125 299.362C83.1129 320.456 82.2125 324.268 81.0433 326.983C78.3369 337.331 60.3472 339.93 60.3472 340.117Z" fill="#FFAB4B"/>
<path d="M145.679 236.159C163.048 225.288 167.569 236.159 171.231 247.462C172.632 254.429 173.588 258.068 172.584 264.895C172.188 274.362 164.986 294.951 153.48 311.938C151.798 304.824 150.803 300.965 147.589 294.267C141.038 284.138 138.023 281.502 132.067 276.437C135.914 261.886 137.639 256.457 149.977 247.94C149.138 247.94 145.201 250.726 145.201 250.726C144.853 245.28 145.008 241.211 145.679 236.159Z" fill="#FF8D8D"/>
<path d="M49.5215 285.113C40.4879 293.137 36.7854 299.839 32.7258 320.933C18.4773 311.063 12.2274 302.007 5.42282 279.143C0.169188 259.243 2.03078 253.213 7.81083 245.393C15.4456 242.087 21.1058 242.323 29.0642 245.393C30.5058 249.663 29.9858 252.542 29.6214 257.014C29.6214 257.014 29.6214 257.703 29.25 257.807C29.3311 258.072 29.2234 258.129 29.2234 258.129C37.7284 263.717 42.5722 270.456 49.5215 285.113Z" fill="#FF8D8D"/>
<path d="M149.898 247.94C138.424 255.101 134.844 261.698 131.828 276.516C141.641 284.012 146.36 289.268 151.171 303.501L153.48 312.575M153.48 312.575C155.231 321.809 157.226 325.866 161.519 333.829L159.848 332.794C161.233 345.928 155.801 352.156 147.51 363.52C103.093 391.38 99.358 392.146 52.7851 372.992C39.4332 367.501 28.8957 364.681 31.1338 348.714H29.0642C29.1539 344.543 29.7046 342.187 31.1338 337.968C33.6991 331.484 33.9563 327.758 33.1238 321.013M153.48 312.575C171.125 281.412 175.405 267.351 171.788 247.94C166.191 229.975 159.559 227.174 142.495 237.592C129.792 247.294 123.599 254.285 114.635 270.228M114.635 270.228L120.048 273.412M114.635 270.228C110.314 269.45 107.891 269.374 103.57 270.228L107.471 266.248C92.8241 264.337 83.3727 265.162 65.1232 273.412M65.1232 273.412L60.4267 277.551M65.1232 273.412C41.8571 249.325 31.001 243.043 14.9749 242.845C7.36973 244.011 4.36531 247.201 2 258.925C4.04092 281.471 8.28018 292.192 19.1937 309.232C24.3399 315.557 27.4539 317.761 33.1238 321.013M33.1238 321.013C35.2507 302.156 39.1171 294.666 49.5215 285.352C43.305 269.656 38.428 264.71 29.0642 257.731" stroke="#793A30" stroke-width="3" stroke-linecap="round"/>
<path d="M101.161 333.736L101.132 333.733H101.103C98.3793 333.733 95.8894 332.463 94.0717 330.753C92.2382 329.029 91.175 326.942 91.175 325.397C91.175 323.848 92.242 321.701 94.0777 319.916C95.8983 318.146 98.3865 316.823 101.103 316.823C107.804 316.823 111.03 322.173 111.03 325.397C111.03 326.988 110.176 329.278 108.489 331.073C106.82 332.85 104.364 334.113 101.161 333.736Z" fill="#361814" stroke="#361814"/>
<path d="M119.092 314.81C124.675 305.756 127.311 305.164 134.535 305.019" stroke="#361814" stroke-width="6" stroke-linecap="round"/>
<path d="M77.6205 324.681C70.4596 316.1 67.4775 316.121 59.4716 317.835" stroke="#361814" stroke-width="6" stroke-linecap="round"/>
<path d="M105.162 360.023C111.322 359.329 114.966 355.53 117.898 350.551C119.457 346.847 119.696 344.589 120.118 340.609L120.127 340.521L122.595 333.596C122.381 333.034 122.141 332.911 121.48 333.039C116.807 340.082 112.95 341.94 103.809 338.372C98.3166 344.262 93.0775 344.238 86.0581 339.646C85.5412 339.23 84.4539 338.135 83.9089 337.656C83.254 337.509 83.0841 337.704 82.9537 338.292C86.974 341.958 86.9047 344.063 89.6401 352.063C93.5599 357.023 98.3927 360.786 105.162 360.023Z" fill="#361814" stroke="#361814" stroke-linecap="round"/>
<path d="M117.898 350.551C108.076 349.22 102.384 349.488 91.4709 354.133C91.4709 354.133 96.9634 361.369 105.958 359.944C114.953 358.519 117.898 350.551 117.898 350.551Z" fill="#FF8D8D" stroke="#FF8D8D" stroke-width="2" stroke-linecap="round"/>
<path d="M330.51 363.52C286.093 391.38 282.358 392.146 235.785 372.992C222.433 367.501 211.896 364.681 214.134 348.714H212.064C212.154 344.543 212.705 342.187 214.134 337.968C216.699 331.484 216.956 327.758 216.124 321.013C210.454 317.761 207.34 315.557 202.194 309.232C191.28 292.192 187.041 281.471 185 258.925C187.365 247.201 190.37 244.011 197.975 242.845C214.001 243.043 224.857 249.325 248.123 273.412C266.373 265.162 275.824 264.337 290.471 266.248L286.57 270.228C290.891 269.374 293.314 269.45 297.635 270.228C306.599 254.285 312.792 247.294 325.495 237.592C342.559 227.174 349.191 229.975 354.788 247.94C358.405 267.351 354.125 281.412 336.48 312.575C338.231 321.809 340.226 325.866 344.519 333.829L342.848 332.794C344.233 345.928 338.801 352.156 330.51 363.52Z" fill="#FEFEFE"/>
<path d="M332.898 247.94C321.424 255.101 317.844 261.698 314.828 276.516C324.641 284.012 329.36 289.268 334.171 303.501L336.48 312.575M336.48 312.575C338.231 321.809 340.226 325.866 344.519 333.829L342.848 332.794C344.233 345.928 338.801 352.156 330.51 363.52C286.093 391.38 282.358 392.146 235.785 372.992C222.433 367.501 211.896 364.681 214.134 348.714H212.064C212.154 344.543 212.705 342.187 214.134 337.968C216.699 331.484 216.956 327.758 216.124 321.013M336.48 312.575C354.125 281.412 358.405 267.351 354.788 247.94C349.191 229.975 342.559 227.174 325.495 237.592C312.792 247.294 306.599 254.285 297.635 270.228M297.635 270.228L303.048 273.412M297.635 270.228C293.314 269.45 290.891 269.374 286.57 270.228L290.471 266.248C275.824 264.337 266.373 265.162 248.123 273.412M248.123 273.412L243.427 277.551M248.123 273.412C224.857 249.325 214.001 243.043 197.975 242.845C190.37 244.011 187.365 247.201 185 258.925C187.041 281.471 191.28 292.192 202.194 309.232C207.34 315.557 210.454 317.761 216.124 321.013M216.124 321.013C218.251 302.156 222.117 294.666 232.521 285.352C226.305 269.656 221.428 264.71 212.064 257.731" stroke="#793A30" stroke-width="3" stroke-linecap="round"/>
<path d="M343.564 332.316C343.564 332.316 342.732 334.157 342.566 334.735C342.613 334.799 342.628 334.842 342.609 334.863C342.526 334.955 342.521 334.891 342.566 334.735C341.654 333.497 328.658 324.769 317.455 329.689C304.242 329.291 298.246 322.844 296.441 312.098C295.695 295.298 283.784 271.342 285.933 270.626C291.983 269.671 297.237 269.432 302.411 272.885C300.783 271.743 300.122 270.675 297.874 269.989C306.948 254.069 314.678 245.521 328.918 235.761C327.889 241.235 328.1 245.598 328.281 250.646C320.878 257.81 318.012 263.492 314.59 276.357C328.081 287.091 332.383 295.335 336.161 313.292L343.564 332.316Z" fill="#FFAB4B"/>
<path d="M243.347 340.117C243.347 340.864 220.263 345.291 217.557 362.724C213.019 360.654 214.293 349.859 214.293 349.112C214.293 348.755 212.781 348.634 212.303 348.077C212.86 342.107 216.283 332.794 216.522 328.575C217.631 328.575 213.179 307.64 225.517 292.755C227.543 290.31 230.155 287.23 232.442 285.113C233.308 284.311 222.094 261.551 211.507 257.731C212.064 252.795 211.591 246.161 212.064 245.79C212.984 245.07 224.8 251.283 232.442 259.004C235.546 261.79 246.288 269.973 247.884 273.73C244.541 275.8 243.325 277.345 243.745 277.073C243.427 278.029 242.712 278.074 243.745 277.471C246.33 272.382 261.974 267.919 269.377 266.725C269.714 267.67 263.306 284.668 262.212 299.362C266.113 320.456 265.212 324.268 264.043 326.983C261.337 337.331 243.347 339.93 243.347 340.117Z" fill="#FFAB4B"/>
<path d="M328.679 236.159C346.048 225.288 350.569 236.159 354.231 247.462C355.632 254.429 356.588 258.068 355.584 264.895C355.188 274.362 347.986 294.951 336.48 311.938C334.798 304.824 333.803 300.965 330.589 294.267C324.038 284.138 321.023 281.502 315.067 276.437C318.914 261.886 320.639 256.457 332.977 247.94C332.138 247.94 328.201 250.726 328.201 250.726C327.853 245.28 328.008 241.211 328.679 236.159Z" fill="#FF8D8D"/>
<path d="M232.521 285.113C223.488 293.137 219.785 299.839 215.726 320.933C201.477 311.063 195.227 302.007 188.423 279.143C183.169 259.243 185.031 253.213 190.811 245.393C198.446 242.087 204.106 242.323 212.064 245.393C213.506 249.663 212.986 252.542 212.621 257.014C212.621 257.014 212.621 257.703 212.25 257.807C212.331 258.072 212.223 258.129 212.223 258.129C220.728 263.717 225.572 270.456 232.521 285.113Z" fill="#FF8D8D"/>
<path d="M332.898 247.94C321.424 255.101 317.844 261.698 314.828 276.516C324.641 284.012 329.36 289.268 334.171 303.501L336.48 312.575M336.48 312.575C338.231 321.809 340.226 325.866 344.519 333.829L342.848 332.794C344.233 345.928 338.801 352.156 330.51 363.52C286.093 391.38 282.358 392.146 235.785 372.992C222.433 367.501 211.896 364.681 214.134 348.714H212.064C212.154 344.543 212.705 342.187 214.134 337.968C216.699 331.484 216.956 327.758 216.124 321.013M336.48 312.575C354.125 281.412 358.405 267.351 354.788 247.94C349.191 229.975 342.559 227.174 325.495 237.592C312.792 247.294 306.599 254.285 297.635 270.228M297.635 270.228L303.048 273.412M297.635 270.228C293.314 269.45 290.891 269.374 286.57 270.228L290.471 266.248C275.824 264.337 266.373 265.162 248.123 273.412M248.123 273.412L243.427 277.551M248.123 273.412C224.857 249.325 214.001 243.043 197.975 242.845C190.37 244.011 187.365 247.201 185 258.925C187.041 281.471 191.28 292.192 202.194 309.232C207.34 315.557 210.454 317.761 216.124 321.013M216.124 321.013C218.251 302.156 222.117 294.666 232.521 285.352C226.305 269.656 221.428 264.71 212.064 257.731" stroke="#793A30" stroke-width="3" stroke-linecap="round"/>
<path d="M330.51 363.52C286.093 391.38 282.358 392.146 235.785 372.992C222.433 367.501 211.896 364.681 214.134 348.714H212.064C212.154 344.543 212.705 342.187 214.134 337.968C216.699 331.484 216.956 327.758 216.124 321.013C210.454 317.761 207.34 315.557 202.194 309.232C191.28 292.192 187.041 281.471 185 258.925C187.365 247.201 190.37 244.011 197.975 242.845C214.001 243.043 224.857 249.325 248.123 273.412C266.373 265.162 275.824 264.337 290.471 266.248L286.57 270.228C290.891 269.374 293.314 269.45 297.635 270.228C306.599 254.285 312.792 247.294 325.495 237.592C342.559 227.174 349.191 229.975 354.788 247.94C358.405 267.351 354.125 281.412 336.48 312.575C338.231 321.809 340.226 325.866 344.519 333.829L342.848 332.794C344.233 345.928 338.801 352.156 330.51 363.52Z" fill="#FEFEFE"/>
<path d="M332.898 247.94C321.424 255.101 317.844 261.698 314.828 276.516C324.641 284.012 329.36 289.268 334.171 303.501L336.48 312.575M336.48 312.575C338.231 321.809 340.226 325.866 344.519 333.829L342.848 332.794C344.233 345.928 338.801 352.156 330.51 363.52C286.093 391.38 282.358 392.146 235.785 372.992C222.433 367.501 211.896 364.681 214.134 348.714H212.064C212.154 344.543 212.705 342.187 214.134 337.968C216.699 331.484 216.956 327.758 216.124 321.013M336.48 312.575C354.125 281.412 358.405 267.351 354.788 247.94C349.191 229.975 342.559 227.174 325.495 237.592C312.792 247.294 306.599 254.285 297.635 270.228M297.635 270.228L303.048 273.412M297.635 270.228C293.314 269.45 290.891 269.374 286.57 270.228L290.471 266.248C275.824 264.337 266.373 265.162 248.123 273.412M248.123 273.412L243.427 277.551M248.123 273.412C224.857 249.325 214.001 243.043 197.975 242.845C190.37 244.011 187.365 247.201 185 258.925C187.041 281.471 191.28 292.192 202.194 309.232C207.34 315.557 210.454 317.761 216.124 321.013M216.124 321.013C218.251 302.156 222.117 294.666 232.521 285.352C226.305 269.656 221.428 264.71 212.064 257.731" stroke="#793A30" stroke-width="3" stroke-linecap="round"/>
<path d="M343.564 332.316C343.564 332.316 342.732 334.157 342.566 334.735C342.613 334.799 342.628 334.842 342.609 334.863C342.526 334.955 342.521 334.891 342.566 334.735C341.654 333.497 328.658 324.769 317.455 329.689C304.242 329.291 298.246 322.844 296.441 312.098C295.695 295.298 283.784 271.342 285.933 270.626C291.983 269.671 297.237 269.432 302.411 272.885C300.783 271.743 300.122 270.675 297.874 269.989C306.948 254.069 314.678 245.521 328.918 235.761C327.889 241.235 328.1 245.598 328.281 250.646C320.878 257.81 318.012 263.492 314.59 276.357C328.081 287.091 332.383 295.335 336.161 313.292L343.564 332.316Z" fill="#FFAB4B"/>
<path d="M243.347 340.117C243.347 340.864 220.263 345.291 217.557 362.724C213.019 360.654 214.293 349.859 214.293 349.112C214.293 348.755 212.781 348.634 212.303 348.077C212.86 342.107 216.283 332.794 216.522 328.575C217.631 328.575 213.179 307.64 225.517 292.755C227.543 290.31 230.155 287.23 232.442 285.113C233.308 284.311 222.094 261.551 211.507 257.731C212.064 252.795 211.591 246.161 212.064 245.79C212.984 245.07 224.8 251.283 232.442 259.004C235.546 261.79 246.288 269.973 247.884 273.73C244.541 275.8 243.325 277.345 243.745 277.073C243.427 278.029 242.712 278.074 243.745 277.471C246.33 272.382 261.974 267.919 269.377 266.725C269.714 267.67 263.306 284.668 262.212 299.362C266.113 320.456 265.212 324.268 264.043 326.983C261.337 337.331 243.347 339.93 243.347 340.117Z" fill="#FFAB4B"/>
<path d="M328.679 236.159C346.048 225.288 350.569 236.159 354.231 247.462C355.632 254.429 356.588 258.068 355.584 264.895C355.188 274.362 347.986 294.951 336.48 311.938C334.798 304.824 333.803 300.965 330.589 294.267C324.038 284.138 321.023 281.502 315.067 276.437C318.914 261.886 320.639 256.457 332.977 247.94C332.138 247.94 328.201 250.726 328.201 250.726C327.853 245.28 328.008 241.211 328.679 236.159Z" fill="#FF8D8D"/>
<path d="M232.521 285.113C223.488 293.137 219.785 299.839 215.726 320.933C201.477 311.063 195.227 302.007 188.423 279.143C183.169 259.243 185.031 253.213 190.811 245.393C198.446 242.087 204.106 242.323 212.064 245.393C213.506 249.663 212.986 252.542 212.621 257.014C212.621 257.014 212.621 257.703 212.25 257.807C212.331 258.072 212.223 258.129 212.223 258.129C220.728 263.717 225.572 270.456 232.521 285.113Z" fill="#FF8D8D"/>
<path d="M332.898 247.94C321.424 255.101 317.844 261.698 314.828 276.516C324.641 284.012 329.36 289.268 334.171 303.501L336.48 312.575M336.48 312.575C338.231 321.809 340.226 325.866 344.519 333.829L342.848 332.794C344.233 345.928 338.801 352.156 330.51 363.52C286.093 391.38 282.358 392.146 235.785 372.992C222.433 367.501 211.896 364.681 214.134 348.714H212.064C212.154 344.543 212.705 342.187 214.134 337.968C216.699 331.484 216.956 327.758 216.124 321.013M336.48 312.575C354.125 281.412 358.405 267.351 354.788 247.94C349.191 229.975 342.559 227.174 325.495 237.592C312.792 247.294 306.599 254.285 297.635 270.228M297.635 270.228L303.048 273.412M297.635 270.228C293.314 269.45 290.891 269.374 286.57 270.228L290.471 266.248C275.824 264.337 266.373 265.162 248.123 273.412M248.123 273.412L243.427 277.551M248.123 273.412C224.857 249.325 214.001 243.043 197.975 242.845C190.37 244.011 187.365 247.201 185 258.925C187.041 281.471 191.28 292.192 202.194 309.232C207.34 315.557 210.454 317.761 216.124 321.013M216.124 321.013C218.251 302.156 222.117 294.666 232.521 285.352C226.305 269.656 221.428 264.71 212.064 257.731" stroke="#793A30" stroke-width="3" stroke-linecap="round"/>
<path d="M265.556 349.038C270.228 356.719 273.277 357.476 282.59 351.506C292.665 355.943 297.237 352.382 297.794 344.501" stroke="#361814" stroke-width="3" stroke-linecap="round"/>
<path d="M292.142 339.884C292.142 344.325 288.731 348.959 283.147 348.959C277.564 348.959 271.924 344.325 271.924 339.884C271.924 335.444 276.45 331.845 282.033 331.845C287.616 331.845 292.142 335.444 292.142 339.884Z" fill="#361814"/>
<path d="M213.258 321.178C210.359 317.06 209.944 314.802 212.303 310.91C234.287 301.601 246.415 298.979 267.307 303.985C275.609 300.336 280.164 299.787 288.083 301.995C296.244 297.374 302.337 295.457 312.042 293.955C324.28 292.062 340.38 293.477 342.927 295.706C345.475 297.935 346.317 301.012 346.191 303.746C346.065 306.48 342.609 307.487 342.609 307.487C344.142 313.918 342.99 317.803 340.141 324.84C333.628 337.306 326.908 339.717 312.042 339.725C300.033 339.061 285.071 315.962 285.695 311.786C286.318 307.609 287.048 309.557 286.809 308.203C286.57 306.85 271.924 307.646 271.526 309.875C271.128 312.104 273.516 313.298 273.516 313.298C270.017 334.865 257.261 348.812 242.949 348.959C227.248 347.626 221.493 340.784 214.93 321.178H213.258Z" fill="#FFC1C4" stroke="#783F31" stroke-width="3" stroke-linecap="round"/>
<path d="M337.992 311.785C337.992 314.818 337.984 321.214 335.365 326.034C332.138 331.976 325.619 336.143 318.41 336.143C311.85 336.143 303.595 333.343 298.272 327.705C293.001 322.124 290.63 313.721 290.63 310.353C290.63 306.865 292.682 304.05 299.545 301.039C306.007 298.205 317.173 296.502 323.505 296.502C336.562 296.502 337.992 305.015 337.992 311.785Z" fill="#361814"/>
<path d="M266.591 317.517C266.591 320.458 265.299 329.648 260.7 335.666C255.743 342.151 247.305 345.377 242.949 345.377C233.318 346.093 229.688 341.84 225.119 335.666C220.731 329.737 220.661 321.226 220.661 318.233C220.661 312.122 224.641 305.526 244.939 304.144C263.645 302.87 266.591 311.406 266.591 317.517Z" fill="#361814"/>
<path d="M239.51 248.972C195.093 276.832 191.358 277.597 144.785 258.444C131.433 252.953 120.896 250.133 123.134 234.166H121.064C121.154 229.995 121.705 227.639 123.134 223.42C125.699 216.935 125.956 213.209 125.124 206.465C119.454 203.213 116.34 201.009 111.194 194.684C100.28 177.643 96.0409 166.923 94 144.376C96.3653 132.653 99.3697 129.463 106.975 128.297C123.001 128.495 133.857 134.777 157.123 158.864C175.373 150.614 184.824 149.789 199.471 151.7L195.57 155.68C199.891 154.826 202.314 154.902 206.635 155.68C215.599 139.737 221.792 132.746 234.495 123.044C251.559 112.626 258.191 115.427 263.788 133.392C267.405 152.802 263.125 166.864 245.48 198.027C247.231 207.261 249.226 211.318 253.519 219.281L251.848 218.246C253.233 231.38 247.801 237.608 239.51 248.972Z" fill="#FEFEFE"/>
<path d="M241.898 133.392C230.424 140.553 226.844 147.15 223.828 161.968C233.641 169.464 238.36 174.72 243.171 188.953L245.48 198.027M245.48 198.027C247.231 207.261 249.226 211.318 253.519 219.281L251.848 218.246C253.233 231.38 247.801 237.608 239.51 248.972C195.093 276.832 191.358 277.597 144.785 258.444C131.433 252.953 120.896 250.133 123.134 234.166H121.064C121.154 229.995 121.705 227.639 123.134 223.42C125.699 216.935 125.956 213.209 125.124 206.465M245.48 198.027C263.125 166.864 267.405 152.802 263.788 133.392C258.191 115.427 251.559 112.626 234.495 123.044C221.792 132.746 215.599 139.737 206.635 155.68M206.635 155.68L212.048 158.864M206.635 155.68C202.314 154.902 199.891 154.826 195.57 155.68L199.471 151.7C184.824 149.789 175.373 150.614 157.123 158.864M157.123 158.864L152.427 163.003M157.123 158.864C133.857 134.777 123.001 128.495 106.975 128.297C99.3697 129.463 96.3653 132.653 94 144.376C96.0409 166.923 100.28 177.643 111.194 194.684C116.34 201.009 119.454 203.213 125.124 206.465M125.124 206.465C127.251 187.608 131.117 180.118 141.521 170.804C135.305 155.108 130.428 150.162 121.064 143.182" stroke="#793A30" stroke-width="4" stroke-linecap="round"/>
<path d="M252.564 217.768C252.564 217.768 251.732 219.609 251.566 220.187C251.613 220.25 251.628 220.294 251.609 220.315C251.526 220.407 251.521 220.343 251.566 220.187C250.654 218.949 237.658 210.221 226.455 215.141C213.242 214.743 207.246 208.296 205.441 197.55C204.695 180.75 192.784 156.794 194.933 156.078C200.983 155.123 206.237 154.884 211.411 158.337C209.783 157.195 209.122 156.127 206.874 155.441C215.948 139.521 223.678 130.973 237.918 121.213C236.889 126.687 237.1 131.05 237.281 136.098C229.878 143.262 227.012 148.944 223.59 161.809C237.081 172.543 241.383 180.787 245.161 198.744L252.564 217.768Z" fill="#FFAB4B"/>
<path d="M152.347 225.569C152.347 226.316 129.263 230.743 126.557 248.175C122.019 246.106 123.293 235.311 123.293 234.564C123.293 234.207 121.781 234.086 121.303 233.529C121.86 227.559 125.283 218.246 125.522 214.027C126.631 214.027 122.179 193.092 134.517 178.207C136.543 175.762 139.155 172.682 141.442 170.565C142.308 169.763 131.094 147.003 120.507 143.182C121.064 138.247 120.591 131.613 121.064 131.242C121.984 130.522 133.8 136.735 141.442 144.456C144.546 147.242 155.288 155.425 156.884 159.182C153.541 161.252 152.325 162.797 152.745 162.525C152.427 163.481 151.712 163.526 152.745 162.923C155.33 157.834 170.974 153.371 178.377 152.177C178.714 153.122 172.306 170.12 171.212 184.814C175.113 205.908 174.212 209.719 173.043 212.435C170.337 222.783 152.347 225.382 152.347 225.569Z" fill="#FFAB4B"/>
<path d="M237.679 121.611C255.048 110.74 259.569 121.611 263.231 132.914C264.632 139.881 265.588 143.52 264.584 150.347C264.188 159.814 256.986 180.403 245.48 197.39C243.798 190.276 242.803 186.417 239.589 179.719C233.038 169.59 230.023 166.954 224.067 161.889C227.914 147.338 229.639 141.909 241.977 133.392C241.138 133.392 237.201 136.178 237.201 136.178C236.853 130.732 237.008 126.663 237.679 121.611Z" fill="#FF8D8D"/>
<path d="M141.521 170.565C132.488 178.589 128.785 185.291 124.726 206.385C110.477 196.515 104.227 187.459 97.4228 164.595C92.1692 144.695 94.0308 138.665 99.8108 130.844C107.446 127.539 113.106 127.775 121.064 130.845C122.506 135.115 121.986 137.994 121.621 142.466C121.621 142.466 121.621 143.155 121.25 143.259C121.331 143.524 121.223 143.581 121.223 143.581C129.728 149.169 134.572 155.908 141.521 170.565Z" fill="#FF8D8D"/>
<path d="M241.898 133.392C230.424 140.553 226.844 147.15 223.828 161.968C233.641 169.464 238.36 174.72 243.171 188.953L245.48 198.027M245.48 198.027C247.231 207.261 249.226 211.318 253.519 219.281L251.848 218.246C253.233 231.38 247.801 237.608 239.51 248.972C195.093 276.832 191.358 277.597 144.785 258.444C131.433 252.953 120.896 250.133 123.134 234.166H121.064C121.154 229.995 121.705 227.639 123.134 223.42C125.699 216.935 125.956 213.209 125.124 206.465M245.48 198.027C263.125 166.864 267.405 152.802 263.788 133.392C258.191 115.427 251.559 112.626 234.495 123.044C221.792 132.746 215.599 139.737 206.635 155.68M206.635 155.68L212.048 158.864M206.635 155.68C202.314 154.902 199.891 154.826 195.57 155.68L199.471 151.7C184.824 149.789 175.373 150.614 157.123 158.864M157.123 158.864L152.427 163.003M157.123 158.864C133.857 134.777 123.001 128.495 106.975 128.297C99.3697 129.463 96.3653 132.653 94 144.376C96.0409 166.923 100.28 177.643 111.194 194.684C116.34 201.009 119.454 203.213 125.124 206.465M125.124 206.465C127.251 187.608 131.117 180.118 141.521 170.804C135.305 155.108 130.428 150.162 121.064 143.182" stroke="#793A30" stroke-width="3" stroke-linecap="round"/>
<path d="M239.51 248.972C195.093 276.832 191.358 277.597 144.785 258.444C131.433 252.953 120.896 250.133 123.134 234.166H121.064C121.154 229.995 121.705 227.639 123.134 223.42C125.699 216.935 125.956 213.209 125.124 206.465C119.454 203.213 116.34 201.009 111.194 194.684C100.28 177.643 96.0409 166.923 94 144.376C96.3653 132.653 99.3697 129.463 106.975 128.297C123.001 128.495 133.857 134.777 157.123 158.864C175.373 150.614 184.824 149.789 199.471 151.7L195.57 155.68C199.891 154.826 202.314 154.902 206.635 155.68C215.599 139.737 221.792 132.746 234.495 123.044C251.559 112.626 258.191 115.427 263.788 133.392C267.405 152.802 263.125 166.864 245.48 198.027C247.231 207.261 249.226 211.318 253.519 219.281L251.848 218.246C253.233 231.38 247.801 237.608 239.51 248.972Z" fill="#FEFEFE"/>
<path d="M241.898 133.392C230.424 140.553 226.844 147.15 223.828 161.968C233.641 169.464 238.36 174.72 243.171 188.953L245.48 198.027M245.48 198.027C247.231 207.261 249.226 211.318 253.519 219.281L251.848 218.246C253.233 231.38 247.801 237.608 239.51 248.972C195.093 276.832 191.358 277.597 144.785 258.444C131.433 252.953 120.896 250.133 123.134 234.166H121.064C121.154 229.995 121.705 227.639 123.134 223.42C125.699 216.935 125.956 213.209 125.124 206.465M245.48 198.027C263.125 166.864 267.405 152.802 263.788 133.392C258.191 115.427 251.559 112.626 234.495 123.044C221.792 132.746 215.599 139.737 206.635 155.68M206.635 155.68L212.048 158.864M206.635 155.68C202.314 154.902 199.891 154.826 195.57 155.68L199.471 151.7C184.824 149.789 175.373 150.614 157.123 158.864M157.123 158.864L152.427 163.003M157.123 158.864C133.857 134.777 123.001 128.495 106.975 128.297C99.3697 129.463 96.3653 132.653 94 144.376C96.0409 166.923 100.28 177.643 111.194 194.684C116.34 201.009 119.454 203.213 125.124 206.465M125.124 206.465C127.251 187.608 131.117 180.118 141.521 170.804C135.305 155.108 130.428 150.162 121.064 143.182" stroke="#793A30" stroke-width="4" stroke-linecap="round"/>
<path d="M252.564 217.768C252.564 217.768 251.732 219.609 251.566 220.187C251.613 220.25 251.628 220.294 251.609 220.315C251.526 220.407 251.521 220.343 251.566 220.187C250.654 218.949 237.658 210.221 226.455 215.141C213.242 214.743 207.246 208.296 205.441 197.55C204.695 180.75 192.784 156.794 194.933 156.078C200.983 155.123 206.237 154.884 211.411 158.337C209.783 157.195 209.122 156.127 206.874 155.441C215.948 139.521 223.678 130.973 237.918 121.213C236.889 126.687 237.1 131.05 237.281 136.098C229.878 143.262 227.012 148.944 223.59 161.809C237.081 172.543 241.383 180.787 245.161 198.744L252.564 217.768Z" fill="#FFAB4B"/>
<path d="M152.347 225.569C152.347 226.316 129.263 230.743 126.557 248.175C122.019 246.106 123.293 235.311 123.293 234.564C123.293 234.207 121.781 234.086 121.303 233.529C121.86 227.559 125.283 218.246 125.522 214.027C126.631 214.027 122.179 193.092 134.517 178.207C136.543 175.762 139.155 172.682 141.442 170.565C142.308 169.763 131.094 147.003 120.507 143.182C121.064 138.247 120.591 131.613 121.064 131.242C121.984 130.522 133.8 136.735 141.442 144.456C144.546 147.242 155.288 155.425 156.884 159.182C153.541 161.252 152.325 162.797 152.745 162.525C152.427 163.481 151.712 163.526 152.745 162.923C155.33 157.834 170.974 153.371 178.377 152.177C178.714 153.122 172.306 170.12 171.212 184.814C175.113 205.908 174.212 209.719 173.043 212.435C170.337 222.783 152.347 225.382 152.347 225.569Z" fill="#FFAB4B"/>
<path d="M237.679 121.611C255.048 110.74 259.569 121.611 263.231 132.914C264.632 139.881 265.588 143.52 264.584 150.347C264.188 159.814 256.986 180.403 245.48 197.39C243.798 190.276 242.803 186.417 239.589 179.719C233.038 169.59 230.023 166.954 224.067 161.889C227.914 147.338 229.639 141.909 241.977 133.392C241.138 133.392 237.201 136.178 237.201 136.178C236.853 130.732 237.008 126.663 237.679 121.611Z" fill="#FF8D8D"/>
<path d="M141.521 170.565C132.488 178.589 128.785 185.291 124.726 206.385C110.477 196.515 104.227 187.459 97.4228 164.595C92.1692 144.695 94.0308 138.665 99.8108 130.844C107.446 127.539 113.106 127.775 121.064 130.845C122.506 135.115 121.986 137.994 121.621 142.466C121.621 142.466 121.621 143.155 121.25 143.259C121.331 143.524 121.223 143.581 121.223 143.581C129.728 149.169 134.572 155.908 141.521 170.565Z" fill="#FF8D8D"/>
<path d="M241.898 133.392C230.424 140.553 226.844 147.15 223.828 161.968C233.641 169.464 238.36 174.72 243.171 188.953L245.48 198.027M245.48 198.027C247.231 207.261 249.226 211.318 253.519 219.281L251.848 218.246C253.233 231.38 247.801 237.608 239.51 248.972C195.093 276.832 191.358 277.597 144.785 258.444C131.433 252.953 120.896 250.133 123.134 234.166H121.064C121.154 229.995 121.705 227.639 123.134 223.42C125.699 216.935 125.956 213.209 125.124 206.465M245.48 198.027C263.125 166.864 267.405 152.802 263.788 133.392C258.191 115.427 251.559 112.626 234.495 123.044C221.792 132.746 215.599 139.737 206.635 155.68M206.635 155.68L212.048 158.864M206.635 155.68C202.314 154.902 199.891 154.826 195.57 155.68L199.471 151.7C184.824 149.789 175.373 150.614 157.123 158.864M157.123 158.864L152.427 163.003M157.123 158.864C133.857 134.777 123.001 128.495 106.975 128.297C99.3697 129.463 96.3653 132.653 94 144.376C96.0409 166.923 100.28 177.643 111.194 194.684C116.34 201.009 119.454 203.213 125.124 206.465M125.124 206.465C127.251 187.608 131.117 180.118 141.521 170.804C135.305 155.108 130.428 150.162 121.064 143.182" stroke="#793A30" stroke-width="2" stroke-linecap="round"/>
<path d="M176.466 220.156C181.242 232.972 192.545 222.624 193.501 222.863C194.456 223.101 206.475 230.186 208.625 215.858" stroke="#361814" stroke-width="4" stroke-linecap="round"/>
<ellipse cx="159.83" cy="208.296" rx="7.88045" ry="10.3481" fill="#361814"/>
<path d="M228.525 201.132C228.525 206.539 226.05 210.365 221.918 210.365C217.786 210.365 212.923 205.504 212.923 200.097C212.923 194.689 216.273 190.306 220.406 190.306C224.538 190.306 228.525 195.724 228.525 201.132Z" fill="#361814"/>
<path d="M193.341 219.838C187.626 219.838 182.993 215.116 182.993 210.763C182.993 206.411 187.626 202.883 193.341 202.883C199.056 202.883 203.689 206.411 203.689 210.763C203.689 215.116 199.056 219.838 193.341 219.838Z" fill="#361814"/>
</svg>
