<svg width="18" height="22" viewBox="0 0 18 22" fill="none" xmlns="http://www.w3.org/2000/svg">
<path d="M13.7626 5.5C13.7626 8.29218 11.6113 10.5126 9 10.5126C6.38873 10.5126 4.23738 8.29218 4.23738 5.5C4.23738 2.70782 6.38873 0.487376 9 0.487376C11.6113 0.487376 13.7626 2.70782 13.7626 5.5ZM9 13.8445C10.1961 13.8445 11.317 13.549 12.3249 13.0588H12.6C15.291 13.0588 17.5126 15.3529 17.5126 18.2286V19.6429C17.5126 20.6966 16.7019 21.5126 15.75 21.5126H2.25C1.2981 21.5126 0.487376 20.6966 0.487376 19.6429V18.2286C0.487376 15.3529 2.70904 13.0588 5.4 13.0588H5.67551C6.68664 13.5486 7.80322 13.8445 9 13.8445Z" stroke="#9A3F11" stroke-width="0.974752"/>
</svg>
