<svg width="161" height="175" viewBox="0 0 161 175" fill="none" xmlns="http://www.w3.org/2000/svg">
<path d="M142.521 105.522C135.946 115.176 127.215 119.28 115.363 115.409L111.313 100.162C111.313 100.162 119.354 95.6358 127.989 90.0968C136.625 84.5578 141.765 84.8884 150.8 87.8934C157.351 91.5924 160.924 95.0402 159.793 103.021C157.323 100.798 157.471 101.13 154.373 99.5665L154.79 102.127C147.402 101.791 144.796 101.019 139.007 105.105C140.918 104.859 141.798 104.867 142.521 105.522Z" fill="#FBFDFF" stroke="#7E4438" stroke-width="1.5"/>
<path d="M131.444 95.5762C130.789 97.8989 128.212 107.767 131.027 115.349C125.21 117.138 122.109 116.934 115.959 115.349L111.194 100.341L121.974 94.2064C127.082 93.7105 132.099 93.2535 131.444 95.5762Z" fill="#FFAB4B"/>
<path d="M142.521 105.522C135.946 115.176 127.215 119.28 115.363 115.409L111.313 100.162C111.313 100.162 119.354 95.6358 127.989 90.0968C136.625 84.5578 141.765 84.8884 150.8 87.8934C157.351 91.5924 160.924 95.0402 159.793 103.021C157.323 100.798 157.471 101.13 154.373 99.5665L154.79 102.127C147.402 101.791 144.796 101.019 139.007 105.105C140.918 104.859 141.798 104.867 142.521 105.522Z" stroke="#7E4438" stroke-width="1.5"/>
<path d="M2.50327 158.706C-0.38065 148.568 0.424987 139.078 8.99495 137.326C13.2805 136.449 17.0105 138.162 19.816 142.09L26.2069 136.492C28.0823 122.975 30.1258 115.011 35.0808 102.068C35.0808 102.068 65.5739 116.6 77.7235 115.23C89.8731 113.86 99.9004 107.98 112.147 99.4474C117.07 114.945 120.237 123.905 122.034 137.326C123.642 137.802 125.713 140.28 127.791 143.4L128.228 142.447C137.674 134.839 142.2 134.399 147.584 146.974C146.452 157.694 149.903 161.917 131.206 173.774C122.837 174.127 118.028 173.669 109.348 172.285C107.456 173.557 106.192 173.828 103.69 173.774H95.0545C90.7661 173.564 88.3779 172.916 84.1556 170.698C76.252 172.802 71.6456 172.688 63.1916 170.698C60.8904 172.525 58.3133 173.239 54.3772 173.774H45.2055C42.3172 173.569 40.7695 173.291 38.2374 172.285L23.6459 173.774C13.3285 173.159 8.75784 169.714 2.50327 158.706Z" fill="#FEFEFE"/>
<path d="M23.6459 150.904C22.7158 147.292 21.4163 144.331 19.816 142.09M38.2374 172.285L23.6459 173.774C13.3285 173.159 8.75784 169.714 2.50327 158.706C-0.38065 148.568 0.424987 139.078 8.99495 137.326C13.2805 136.449 17.0105 138.162 19.816 142.09M38.2374 172.285C35.4913 167.086 37.68 165.034 43.1806 161.744C38.1335 146.095 37.6036 137.18 37.2249 121.245M38.2374 172.285C40.7695 173.291 42.3172 173.569 45.2055 173.774M45.2055 173.774C43.9834 171.257 43.5536 169.704 44.193 166.151M45.2055 173.774H54.3772M54.3772 173.774C52.4144 171.196 51.8339 169.573 52.3523 166.151M54.3772 173.774C58.3133 173.239 60.8904 172.525 63.1916 170.698M66.5864 133.931C67.3892 146.236 67.6697 153.263 66.5864 166.985C65.433 168.582 64.3471 169.78 63.1916 170.698M63.1916 170.698C71.6456 172.688 76.252 172.802 84.1556 170.698M84.1556 170.698L81.5947 166.151L82.3689 133.454M84.1556 170.698C88.3779 172.916 90.7661 173.564 95.0545 173.774M95.0545 173.774C96.5952 170.99 96.8627 169.312 96.4839 166.151M95.0545 173.774H103.69M103.69 173.774C104.977 170.451 104.995 168.824 104.345 166.151M103.69 173.774C106.192 173.828 107.456 173.557 109.348 172.285M109.348 172.285C111.678 166.774 109.875 164.863 105.894 161.744L111.552 121.9M109.348 172.285C118.028 173.669 122.837 174.127 131.206 173.774C149.903 161.917 146.452 157.694 147.584 146.974C142.2 134.399 137.674 134.839 128.228 142.447L127.791 143.4M124.356 150.904C125.333 147.929 126.028 146.279 127.791 143.4M127.791 143.4C125.713 140.28 123.642 137.802 122.034 137.326M117.924 134.824C119.588 135.497 119.711 135.36 122.034 137.326M122.034 137.326C120.237 123.905 117.07 114.945 112.147 99.4474C99.9004 107.98 89.8731 113.86 77.7235 115.23C65.5739 116.6 35.0808 102.068 35.0808 102.068C30.1258 115.011 28.0823 122.975 26.2069 136.492M26.2069 136.492L19.816 142.09M26.2069 136.492L30.3163 134.884" stroke="#7E4438" stroke-width="1.5" stroke-linecap="round" stroke-linejoin="round"/>
<path d="M121.915 136.313C119.112 122.286 116.759 115.745 113.279 103.736C109.926 102.228 104.674 105.198 94.2802 111.657C86.7635 117.182 83.9978 121.784 81.9519 133.395L82.3688 133.037V148.105C86.0589 157.45 93.0859 158.526 106.37 158.587L111.313 121.245L112.028 121.781L107.68 151.56C113.317 150.541 115.354 148.372 117.984 143.341C119.746 140.491 121.216 139.18 123.642 138.398L117.984 135.122L117.388 134.586L117.984 134.288L121.915 136.313Z" fill="#FFAB4B"/>
<path d="M26.4451 136.849L24.4202 138.576C27.1204 140.698 28.566 142.221 30.8523 146.378C33.9633 149.396 35.8388 150.872 39.9645 152.215C37.3343 138.168 36.9688 129.033 36.8675 121.067H37.5822C37.8148 135.889 38.6417 143.63 42.049 157.754C47.4492 158.987 52.8288 159.242 56.9382 158.051C61.0476 156.86 63.6488 154.035 66.8246 149.833L66.3482 133.454C66.3482 133.454 64.5316 120.734 56.9382 114.992C49.3448 109.25 44.7149 105.982 35.2595 102.425C30.3625 115.101 28.546 122.732 26.6833 135.777L30.3163 134.646V135.122L26.4451 136.849Z" fill="#FFAB4B" stroke="#FFAB4B" stroke-width="1.5"/>
<path d="M23.6459 150.904C22.7158 147.292 21.4163 144.331 19.816 142.09M38.2374 172.285L23.6459 173.774C13.3285 173.159 8.75784 169.714 2.50327 158.706C-0.38065 148.568 0.424987 139.078 8.99495 137.326C13.2805 136.449 17.0105 138.162 19.816 142.09M38.2374 172.285C35.4913 167.086 37.68 165.034 43.1806 161.744C38.1335 146.095 37.6036 137.18 37.2249 121.245M38.2374 172.285C40.7695 173.291 42.3172 173.569 45.2055 173.774M45.2055 173.774C43.9834 171.257 43.5536 169.704 44.193 166.151M45.2055 173.774H54.3772M54.3772 173.774C52.4144 171.196 51.8339 169.573 52.3523 166.151M54.3772 173.774C58.3133 173.239 60.8904 172.525 63.1916 170.698M66.5864 133.931C67.3892 146.236 67.6697 153.263 66.5864 166.985C65.433 168.582 64.3471 169.78 63.1916 170.698M63.1916 170.698C71.6456 172.688 76.252 172.802 84.1556 170.698M84.1556 170.698L81.5947 166.151L82.3689 133.454M84.1556 170.698C88.3779 172.916 90.7661 173.564 95.0545 173.774M95.0545 173.774C96.5952 170.99 96.8627 169.312 96.4839 166.151M95.0545 173.774H103.69M103.69 173.774C104.977 170.451 104.995 168.824 104.345 166.151M103.69 173.774C106.192 173.828 107.456 173.557 109.348 172.285M109.348 172.285C111.678 166.774 109.875 164.863 105.894 161.744L111.552 121.9M109.348 172.285C118.028 173.669 122.837 174.127 131.206 173.774C149.903 161.917 146.452 157.694 147.584 146.974C142.2 134.399 137.674 134.839 128.228 142.447L127.791 143.4M124.356 150.904C125.333 147.929 126.028 146.279 127.791 143.4M127.791 143.4C125.713 140.28 123.642 137.802 122.034 137.326M117.924 134.824C119.588 135.497 119.711 135.36 122.034 137.326M122.034 137.326C120.237 123.905 117.07 114.945 112.147 99.4474C99.9004 107.98 89.8731 113.86 77.7235 115.23C65.5739 116.6 35.0808 102.068 35.0808 102.068C30.1258 115.011 28.0823 122.975 26.2069 136.492M26.2069 136.492L19.816 142.09M26.2069 136.492L30.3163 134.884" stroke="#7E4438" stroke-width="1.5" stroke-linecap="round" stroke-linejoin="round"/>
<path d="M114.53 99.7407C81.2971 120.586 78.5028 121.158 43.6572 106.828C33.6673 102.72 25.7832 100.61 27.4577 88.6631H25.9092C25.9763 85.5425 26.3884 83.7797 27.4577 80.6229C29.3771 75.7714 29.5695 72.9836 28.9466 67.9373C24.7044 65.5045 22.3746 63.8555 18.5242 59.1229C10.3587 46.3733 7.18692 38.3525 5.65991 21.483C7.42963 12.7113 9.67753 10.3245 15.3677 9.45252C27.3583 9.60045 35.4809 14.3005 52.8885 32.3223C66.5427 26.1496 73.6142 25.5329 84.5727 26.9622L81.6544 29.9401C84.8873 29.3013 86.6999 29.3579 89.9328 29.9401C96.64 18.0119 101.273 12.7809 110.778 5.52177C123.545 -2.27287 128.507 -0.176804 132.695 13.2642C135.401 27.7873 132.199 38.308 118.997 61.6243C120.307 68.5329 121.799 71.5683 125.012 77.526L123.761 76.7517C124.798 86.5786 120.734 91.2384 114.53 99.7407Z" fill="#FEFEFE"/>
<path d="M116.316 13.2642C107.732 18.6224 105.053 23.5581 102.797 34.645C110.139 40.2532 113.67 44.1861 117.269 54.8348L118.997 61.6243M118.997 61.6243C120.307 68.5329 121.799 71.5683 125.012 77.526L123.761 76.7517C124.798 86.5786 120.734 91.2384 114.53 99.7407C81.2971 120.586 78.5028 121.158 43.6572 106.828C33.6673 102.72 25.7832 100.61 27.4577 88.6631H25.9092C25.9763 85.5425 26.3884 83.7797 27.4577 80.6229C29.3771 75.7714 29.5695 72.9836 28.9466 67.9373M118.997 61.6243C132.199 38.308 135.401 27.7873 132.695 13.2642C128.507 -0.176804 123.545 -2.27287 110.778 5.52177C101.273 12.7809 96.64 18.0119 89.9328 29.9401M89.9328 29.9401L93.9827 32.3223M89.9328 29.9401C86.6999 29.3579 84.8873 29.3013 81.6544 29.9401L84.5727 26.9622C73.6142 25.5329 66.5427 26.1496 52.8885 32.3223M52.8885 32.3223L49.3746 35.4193M52.8885 32.3223C35.4809 14.3005 27.3583 9.60045 15.3677 9.45252C9.67753 10.3245 7.42963 12.7113 5.65991 21.483C7.18692 38.3525 10.3587 46.3733 18.5242 59.1229C22.3746 63.8555 24.7044 65.5045 28.9466 67.9373M28.9466 67.9373C30.538 53.8288 33.4308 48.2244 41.2153 41.2558C36.5642 29.512 32.9152 25.8116 25.9092 20.5896" stroke="#793A30" stroke-width="1.5" stroke-linecap="round"/>
<path d="M124.297 76.3944C124.297 76.3944 123.674 77.7719 123.55 78.2038C123.586 78.2516 123.597 78.2845 123.582 78.3002C123.52 78.3687 123.517 78.3211 123.55 78.2038C122.868 77.2782 113.144 70.7478 104.762 74.429C94.876 74.1312 90.3902 69.3072 89.0394 61.267C88.4817 48.6972 79.5699 30.7739 81.1779 30.2379C85.7042 29.5232 89.635 29.3445 93.5062 31.9281C92.2885 31.0738 91.7938 30.2746 90.1114 29.7614C96.9009 17.85 102.685 11.4548 113.339 4.15198C112.569 8.24801 112.727 11.5122 112.862 15.2891C107.323 20.6492 105.179 24.9006 102.618 34.5259C112.712 42.5567 115.932 48.7254 118.758 62.1603L124.297 76.3944Z" fill="#FFAB4B"/>
<path d="M49.3152 82.231C49.3152 82.7901 32.0437 86.1018 30.0187 99.1451C26.624 97.5966 27.5769 89.52 27.5769 88.9609C27.5769 88.6938 26.4453 88.6035 26.088 88.1866C26.5049 83.7199 29.0658 76.7517 29.2445 73.5952C30.0747 73.5952 26.7431 57.9318 35.9744 46.7946C37.4903 44.9658 39.4448 42.6612 41.1559 41.0772C41.8041 40.4771 33.4135 23.4483 25.4924 20.5896C25.9093 16.8971 25.5557 11.9332 25.9093 11.6561C26.5973 11.1171 35.4384 15.7656 41.1559 21.5426C43.4786 23.627 51.5154 29.7494 52.7099 32.5606C50.2085 34.109 49.2986 35.2655 49.6129 35.062C49.3747 35.7766 48.8401 35.8107 49.6129 35.3597C51.5468 31.5518 63.2514 28.2129 68.7902 27.3196C69.0426 28.0261 64.2484 40.744 63.4301 51.7381C66.3484 67.5206 65.6747 70.3724 64.7999 72.4042C62.775 80.1466 49.3152 82.0909 49.3152 82.231Z" fill="#FFAB4B"/>
<path d="M113.16 4.44976C126.156 -3.68341 129.538 4.44974 132.278 12.9068C133.326 18.1192 134.042 20.8425 133.29 25.9498C132.994 33.0331 127.605 48.4379 118.997 61.1479C117.739 55.8248 116.994 52.9379 114.589 47.9262C109.688 40.3474 107.432 38.3752 102.976 34.5855C105.854 23.6991 107.145 19.6368 116.376 13.2642C115.748 13.2642 112.803 15.3487 112.803 15.3487C112.542 11.2744 112.658 8.22998 113.16 4.44976Z" fill="#FF8D8D"/>
<path d="M41.2154 41.0773C34.4565 47.081 31.6863 52.0952 28.6489 67.8778C17.9882 60.4928 13.3121 53.717 8.22093 36.6105C4.29018 21.7213 5.68301 17.21 10.0076 11.3584C15.7199 8.8851 19.9549 9.06185 25.9093 11.3584C26.9879 14.5535 26.5988 16.7074 26.3262 20.0537C26.3262 20.0537 26.3262 20.569 26.0483 20.6469C26.109 20.845 26.0284 20.8875 26.0284 20.8875C32.3918 25.0688 36.0159 30.1106 41.2154 41.0773Z" fill="#FF8D8D"/>
<path d="M116.316 13.2642C107.732 18.6224 105.053 23.5581 102.797 34.645C110.139 40.2532 113.67 44.1861 117.269 54.8348L118.997 61.6243M118.997 61.6243C120.307 68.5329 121.799 71.5683 125.012 77.526L123.761 76.7517C124.798 86.5786 120.734 91.2384 114.53 99.7407C81.2971 120.586 78.5028 121.158 43.6572 106.828C33.6673 102.72 25.7832 100.61 27.4577 88.6631H25.9092C25.9763 85.5425 26.3884 83.7797 27.4577 80.6229C29.3771 75.7714 29.5695 72.9836 28.9466 67.9373M118.997 61.6243C132.199 38.308 135.401 27.7873 132.695 13.2642C128.507 -0.176804 123.545 -2.27287 110.778 5.52177C101.273 12.7809 96.64 18.0119 89.9328 29.9401M89.9328 29.9401L93.9827 32.3223M89.9328 29.9401C86.6999 29.3579 84.8873 29.3013 81.6544 29.9401L84.5727 26.9622C73.6142 25.5329 66.5427 26.1496 52.8885 32.3223M52.8885 32.3223L49.3746 35.4193M52.8885 32.3223C35.4809 14.3005 27.3583 9.60045 15.3677 9.45252C9.67753 10.3245 7.42963 12.7113 5.65991 21.483C7.18692 38.3525 10.3587 46.3733 18.5242 59.1229C22.3746 63.8555 24.7044 65.5045 28.9466 67.9373M28.9466 67.9373C30.538 53.8288 33.4308 48.2244 41.2153 41.2558C36.5642 29.512 32.9152 25.8116 25.9092 20.5896" stroke="#793A30" stroke-width="1.5" stroke-linecap="round"/>
<path d="M79.8957 77.0834L79.852 77.0783H79.808C77.8879 77.0783 76.113 76.1811 74.8051 74.951C73.4735 73.6986 72.7561 72.2298 72.7561 71.2175C72.7561 70.1996 73.4791 68.6838 74.814 67.386C76.1262 66.1104 77.8987 65.178 79.808 65.178C84.5945 65.178 86.86 68.9917 86.86 71.2175C86.86 72.299 86.2674 73.9229 85.0608 75.2071C83.8806 76.4631 82.1563 77.3493 79.8957 77.0834Z" fill="#361915" stroke="#361915" stroke-width="1.5"/>
<path d="M93.2678 63.2964C97.4448 56.522 99.4172 56.0789 104.822 55.9709" stroke="#361915" stroke-width="1.5" stroke-linecap="round"/>
<path d="M62.2388 70.6815C56.881 64.2613 54.6498 64.2775 48.6598 65.5596" stroke="#361915" stroke-width="1.5" stroke-linecap="round"/>
<path d="M82.8456 97.1247C87.4542 96.6056 90.1806 93.7628 92.3747 90.0374C93.5411 87.2664 93.72 85.5766 94.0353 82.5988L94.0423 82.5333L95.8885 77.3518C95.7283 76.9311 95.5494 76.8393 95.0547 76.9349C91.5583 82.2044 88.6722 83.5949 81.8331 80.9252C77.7237 85.3325 73.8038 85.3139 68.552 81.8782C68.1652 81.5673 67.3517 80.7479 66.9439 80.3892C66.454 80.2798 66.3268 80.4252 66.2292 80.8657C69.2373 83.6084 69.1854 85.1836 71.232 91.169C74.1648 94.8798 77.7806 97.6952 82.8456 97.1247Z" fill="#361915" stroke="#361915" stroke-width="1.5" stroke-linecap="round"/>
<path d="M92.3747 90.0374C85.0257 89.0418 80.767 89.2423 72.6018 92.7175C72.6018 92.7175 76.7112 98.1312 83.4411 97.0651C90.1711 95.999 92.3747 90.0374 92.3747 90.0374Z" fill="#FF8D8D" stroke="#FF8D8D" stroke-width="1.5" stroke-linecap="round"/>
</svg>
