<svg width="597" height="177" viewBox="0 0 597 177" fill="none" xmlns="http://www.w3.org/2000/svg">
<path d="M302.46 42.3069C302.338 42.1839 302.23 42.0542 302.1 41.9358C296.954 37.2633 287.274 38.7679 280.714 35.4576C274.053 32.096 270.687 23.9196 262.842 23.8473C254.041 23.7668 250.551 34.0462 242.157 36.1894C238.572 37.1046 234.544 36.375 231.043 37.4824C224.962 39.405 222.308 46.2237 215.866 47.077C208.566 48.0435 203.898 40.7948 197.063 38.5026C188.519 35.6365 179.049 41.3537 174.59 47.9235C170.132 54.4933 168.326 62.2301 162.698 68.1799C156.414 74.8256 146.251 78.2693 136.222 80.2642C115.7 84.3472 94.2418 83.5267 73.1369 82.6817C77.6684 88.1373 72.716 95.3085 68.122 100.73C57.236 113.578 47.7686 127.216 39.8696 141.427C34.0463 151.905 28.2999 165.508 28.4874 177C123.584 177 215.866 177 306.687 177L302.46 42.3069Z" fill="#BEDB52"/>
<path d="M86.3162 78.8531C86.3162 78.8531 74.8945 80.9396 75.5946 93.8705C80.8392 91.7802 89.9813 87.2531 86.3162 78.8531Z" fill="#BEDB52"/>
<path d="M165.703 59.1523C165.703 59.1523 154.637 62.2531 157.1 75.0409C162.028 72.4923 170.494 67.1707 165.703 59.1523Z" fill="#BEDB52"/>
<path d="M137.96 72.0428C137.96 72.0428 126.539 74.1287 127.239 87.0603C132.483 84.9693 141.626 80.4421 137.96 72.0428Z" fill="#BEDB52"/>
<path d="M106.981 75.6752C106.981 75.6752 95.5593 77.761 96.2594 90.6927C101.504 88.6024 110.646 84.0752 106.981 75.6752Z" fill="#BEDB52"/>
<path d="M78.1609 80.0588C78.1609 80.0588 66.7392 82.1454 67.4394 95.0763C72.683 92.986 81.8251 88.4588 78.1609 80.0588Z" fill="#BEDB52"/>
<path d="M125.991 85.1694C125.991 85.1694 114.466 85.2067 110.636 73.3355C116.322 74.3475 126.54 76.9147 125.991 85.1694Z" fill="#BEDB52"/>
<path d="M90.2617 84.7691C90.2617 84.7691 80.165 80.2613 83.9265 68.3752C88.2909 71.4999 95.6845 77.7686 90.2617 84.7691Z" fill="#BEDB52"/>
<path d="M91.7307 81.5489C91.7307 81.5489 86.2657 73.3188 97.3768 64.9903C98.9517 69.5354 100.968 78.0554 91.7307 81.5489Z" fill="#BEDB52"/>
<path d="M92.8444 89.5562C92.8444 89.5562 87.3793 81.3261 98.4904 72.9976C100.065 77.5427 102.082 86.0627 92.8444 89.5562Z" fill="#BEDB52"/>
<path d="M83.8509 86.2921C83.8509 86.2921 72.3264 86.3294 68.4958 74.4582C74.1814 75.4694 84.3985 78.0367 83.8509 86.2921Z" fill="#BEDB52"/>
<path d="M250.588 28.5027C250.588 28.5027 239.166 30.5893 239.866 43.5202C245.111 41.4299 254.253 36.9027 250.588 28.5027Z" fill="#BEDB52"/>
<path d="M219.608 32.1359C219.608 32.1359 208.187 34.2225 208.887 47.1534C214.131 45.0631 223.274 40.5359 219.608 32.1359Z" fill="#BEDB52"/>
<path d="M190.788 36.5191C190.788 36.5191 179.366 38.605 180.067 51.5366C185.311 49.4463 194.452 44.9191 190.788 36.5191Z" fill="#BEDB52"/>
<path d="M238.619 41.6297C238.619 41.6297 227.094 41.667 223.264 29.7958C228.95 30.8078 239.167 33.375 238.619 41.6297Z" fill="#BEDB52"/>
<path d="M202.889 41.229C202.889 41.229 192.792 36.7212 196.554 24.8351C200.918 27.9598 208.312 34.2292 202.889 41.229Z" fill="#BEDB52"/>
<path d="M204.358 38.0096C204.358 38.0096 198.893 29.7802 210.004 21.451C211.579 25.9961 213.596 34.516 204.358 38.0096Z" fill="#BEDB52"/>
<path d="M205.472 46.0173C205.472 46.0173 200.007 37.7872 211.118 29.4587C212.692 34.0038 214.709 42.5238 205.472 46.0173Z" fill="#BEDB52"/>
<path d="M196.478 42.7528C196.478 42.7528 184.953 42.7901 181.123 30.9189C186.809 31.9301 197.026 34.4974 196.478 42.7528Z" fill="#BEDB52"/>
<path d="M298.845 24.6088C298.845 24.6088 287.424 26.6947 288.124 39.6263C293.368 37.5353 302.51 33.0081 298.845 24.6088Z" fill="#BEDB52"/>
<path d="M265.702 20.7808C265.702 20.7808 254.28 22.8667 254.98 35.7983C260.225 33.7073 269.367 29.1801 265.702 20.7808Z" fill="#BEDB52"/>
<path d="M236.882 25.1633C236.882 25.1633 225.46 27.2491 226.16 40.1808C231.405 38.0904 240.547 33.5633 236.882 25.1633Z" fill="#BEDB52"/>
<path d="M286.419 40.0229C286.419 40.0229 277.181 34.4345 282.917 23.0798C286.711 26.6598 292.974 33.6923 286.419 40.0229Z" fill="#BEDB52"/>
<path d="M271.886 33.0912C271.886 33.0912 262.647 27.5029 268.383 16.1481C272.178 19.7281 278.441 26.7606 271.886 33.0912Z" fill="#BEDB52"/>
<path d="M249.047 30.8098C249.047 30.8098 238.95 26.302 242.712 14.4159C247.076 17.5405 254.47 23.8092 249.047 30.8098Z" fill="#BEDB52"/>
<path d="M250.452 26.6539C250.452 26.6539 244.987 18.4245 256.098 10.0953C257.674 14.6403 259.689 23.1603 250.452 26.6539Z" fill="#BEDB52"/>
<path d="M251.565 34.6615C251.565 34.6615 246.1 26.4321 257.211 18.1029C258.787 22.6479 260.803 31.1679 251.565 34.6615Z" fill="#BEDB52"/>
<path d="M246.524 35.1751C246.524 35.1751 234.999 35.2124 231.169 23.3411C236.854 24.3524 247.071 26.9197 246.524 35.1751Z" fill="#BEDB52"/>
<path d="M90.1541 83.2151C90.1541 83.2151 83.1666 90.8342 94.0866 100.273C96.3854 95.9158 99.683 87.6499 90.1541 83.2151Z" fill="#BEDB52"/>
<path d="M61.9383 97.8277C61.9383 97.8277 54.9507 105.447 65.8707 114.886C68.1705 110.528 71.4672 102.262 61.9383 97.8277Z" fill="#BEDB52"/>
<path d="M43.5991 116.385C43.5991 116.385 36.6116 124.004 47.5316 133.443C49.8305 129.086 53.1281 120.82 43.5991 116.385Z" fill="#BEDB52"/>
<path d="M93.1128 101.475C93.1128 101.475 81.6148 102.119 76.8425 90.4743C82.5979 91.1845 92.9988 93.2085 93.1128 101.475Z" fill="#BEDB52"/>
<path d="M76.52 103.898C76.52 103.898 65.0221 104.541 60.2507 92.8968C66.0043 93.607 76.4061 95.6309 76.52 103.898Z" fill="#BEDB52"/>
<path d="M57.3629 114.238C57.3629 114.238 46.0827 116.155 39.3865 105.151C45.2071 105.215 55.8524 106.062 57.3629 114.238Z" fill="#BEDB52"/>
<path d="M55.0897 110.343C55.0897 110.343 44.3323 106.989 46.0689 94.7989C50.9156 97.4138 59.2905 102.811 55.0897 110.343Z" fill="#BEDB52"/>
<path d="M62.3675 115.828C62.3675 115.828 51.6101 112.474 53.3467 100.285C58.1934 102.9 66.5683 108.296 62.3675 115.828Z" fill="#BEDB52"/>
<path d="M58.956 118.883C58.956 118.883 50.2439 125.003 37.8005 118.022C42.9266 115.785 52.7394 112.332 58.956 118.883Z" fill="#BEDB52"/>
<path d="M59.7076 112.029C59.7076 112.029 55.0713 120.748 68.3775 127.894C69.3781 123.225 70.2399 114.565 59.7076 112.029Z" fill="#BEDB52"/>
<path d="M36.3994 131.52C36.3994 131.52 31.7631 140.239 45.0692 147.384C46.0698 142.714 46.9316 134.055 36.3994 131.52Z" fill="#BEDB52"/>
<path d="M23.8217 153.003C23.8217 153.003 19.1854 161.722 32.4916 168.868C33.4913 164.198 34.3531 155.539 23.8217 153.003Z" fill="#BEDB52"/>
<path d="M67.7711 129.245C67.7711 129.245 56.7647 132.019 48.8152 121.579C54.6165 121.196 65.3133 121.222 67.7711 129.245Z" fill="#BEDB52"/>
<path d="M52.3121 134.703C52.3121 134.703 41.3057 137.477 33.3562 127.036C39.1575 126.653 49.8543 126.68 52.3121 134.703Z" fill="#BEDB52"/>
<path d="M36.6061 148.343C36.6061 148.343 26.1731 152.315 16.533 142.858C22.2149 141.833 32.8142 140.67 36.6061 148.343Z" fill="#BEDB52"/>
<path d="M33.2872 144.977C33.2872 144.977 21.8665 143.722 20.0959 131.536C25.5546 133.175 35.2369 136.863 33.2872 144.977Z" fill="#BEDB52"/>
<path d="M41.9279 148.956C41.9279 148.956 30.5071 147.701 28.7366 135.515C34.1943 137.154 43.8767 140.842 41.9279 148.956Z" fill="#BEDB52"/>
<path d="M39.4755 152.566C39.4755 152.566 32.7351 160.148 18.6443 155.68C22.9967 152.544 31.5655 147.352 39.4755 152.566Z" fill="#BEDB52"/>
<path d="M152.359 77.6569C152.359 77.6569 140.834 77.6942 137.004 65.823C142.689 66.835 152.907 69.4022 152.359 77.6569Z" fill="#BEDB52"/>
<path d="M162.379 78.209C162.379 78.209 150.854 78.2462 147.024 66.375C152.71 67.387 162.927 69.9535 162.379 78.209Z" fill="#BEDB52"/>
<path d="M148.974 52.434C148.974 52.434 137.553 54.5206 138.253 67.4515C143.497 65.3611 152.64 60.834 148.974 52.434Z" fill="#BEDB52"/>
<path d="M161.877 49.6764C161.877 49.6764 150.455 51.763 151.155 64.6939C156.4 62.6036 165.542 58.0764 161.877 49.6764Z" fill="#BEDB52"/>
<path d="M159.851 49.5634C159.851 49.5634 150.723 55.2702 138.791 47.7257C144.065 45.7293 154.105 42.7358 159.851 49.5634Z" fill="#BEDB52"/>
<path d="M176.856 55.7949C176.856 55.7949 165.332 55.8321 161.501 43.9609C167.187 44.9729 177.404 47.5402 176.856 55.7949Z" fill="#BEDB52"/>
<path d="M175.411 55.0303C175.309 54.9677 165.032 48.7892 155.795 50.0456C151.99 50.5643 148.851 52.2805 146.467 55.1458L145.832 54.7985C148.339 51.7856 151.649 49.9807 155.67 49.433C165.233 48.1304 175.441 54.2717 175.871 54.534L175.411 55.0303Z" fill="#BEDB52"/>
<path d="M47.641 85.8733C47.641 85.8733 36.3341 83.4104 29.5359 95.1206C35.3777 95.2495 46.0671 94.6921 47.641 85.8733Z" fill="#BEDB52"/>
<path d="M60.6441 88.3017C60.6441 88.3017 49.3373 85.8388 42.5391 97.5491C48.3808 97.678 59.0702 97.1198 60.6441 88.3017Z" fill="#BEDB52"/>
<path d="M58.9157 87.436C58.9157 87.436 47.562 89.0434 41.3279 77.8623C47.1421 78.0851 57.7461 79.2238 58.9157 87.436Z" fill="#BEDB52"/>
<path d="M70.3942 99.3701C70.3942 99.3701 60.1716 95.0538 63.5905 83.1006C68.0421 86.1411 75.614 92.269 70.3942 99.3701Z" fill="#BEDB52"/>
<path d="M69.5536 98.1476C69.4985 98.0537 63.9461 88.7065 55.0484 86.3331C51.3824 85.3561 47.6199 85.6907 43.8656 87.3279L43.5027 86.7809C47.449 85.0602 51.4155 84.7115 55.2882 85.7443C64.5002 88.1998 70.013 97.4881 70.2436 97.8823L69.5536 98.1476Z" fill="#BEDB52"/>
<path d="M18.1051 123.038C18.1051 123.038 6.79825 120.575 0 132.286C5.84177 132.414 16.5311 131.856 18.1051 123.038Z" fill="#BEDB52"/>
<path d="M31.108 125.466C31.108 125.466 19.8012 123.003 13.0029 134.713C18.8447 134.842 29.5341 134.284 31.108 125.466Z" fill="#BEDB52"/>
<path d="M29.3797 124.601C29.3797 124.601 18.026 126.208 11.7919 115.027C17.6061 115.25 28.2101 116.389 29.3797 124.601Z" fill="#BEDB52"/>
<path d="M40.8574 136.534C40.8574 136.534 30.6347 132.218 34.0536 120.265C38.5062 123.306 46.078 129.434 40.8574 136.534Z" fill="#BEDB52"/>
<path d="M40.0175 135.311C39.9633 135.218 34.41 125.87 25.5123 123.497C21.8463 122.52 18.0838 122.855 14.3304 124.492L13.9675 123.945C17.9147 122.224 21.8803 121.875 25.754 122.908C34.9659 125.364 40.4788 134.652 40.7094 135.046L40.0175 135.311Z" fill="#BEDB52"/>
<path d="M231.003 14.3407C231.003 14.3407 226.314 6.89608 237.5 -9.91821e-05C238.708 4.05534 240.077 11.6237 231.003 14.3407Z" fill="#BEDB52"/>
<path d="M235.967 22.9762C235.967 22.9762 231.277 15.5316 242.463 8.63538C243.672 12.6916 245.041 20.2592 235.967 22.9762Z" fill="#BEDB52"/>
<path d="M234.732 21.9276C234.732 21.9276 234.355 13.7035 221.341 11.4C222.644 15.4205 225.798 22.6177 234.732 21.9276Z" fill="#BEDB52"/>
<path d="M249.507 27.7557C249.507 27.7557 243.05 21.4072 230.986 25.9888C235.031 28.5404 242.926 32.7046 249.507 27.7557Z" fill="#BEDB52"/>
<path d="M248.055 27.3933C247.945 27.3724 237.002 25.2091 232.85 19.43C231.141 17.049 230.806 14.3595 231.855 11.4376L231.208 11.2848C230.105 14.3566 230.462 17.1906 232.27 19.7064C236.566 25.6897 247.439 27.8367 247.9 27.9254L248.055 27.3933Z" fill="#BEDB52"/>
<path d="M277.906 22.2003C277.906 22.2003 273.216 14.7549 284.402 7.85872C285.611 11.9156 286.98 19.4833 277.906 22.2003Z" fill="#BEDB52"/>
<path d="M282.869 30.8359C282.869 30.8359 278.179 23.3905 289.366 16.495C290.574 20.5512 291.943 28.1189 282.869 30.8359Z" fill="#BEDB52"/>
<path d="M281.634 29.7881C281.634 29.7881 281.257 21.5639 268.243 19.2605C269.546 23.2802 272.701 30.4774 281.634 29.7881Z" fill="#BEDB52"/>
<path d="M296.409 35.6157C296.409 35.6157 289.952 29.2673 277.888 33.8488C281.933 36.3997 289.828 40.5639 296.409 35.6157Z" fill="#BEDB52"/>
<path d="M294.957 35.2529C294.848 35.2321 283.905 33.0687 279.753 27.2896C278.044 24.9087 277.708 22.2192 278.758 19.2972L278.111 19.1445C277.007 22.2162 277.366 25.0503 279.172 27.5661C283.468 33.5494 294.342 35.6963 294.803 35.785L294.957 35.2529Z" fill="#BEDB52"/>
<path d="M71.0412 65.0735C71.0412 65.0735 66.3516 57.6281 77.5381 50.7326C78.7463 54.7881 80.1144 62.3564 71.0412 65.0735Z" fill="#BEDB52"/>
<path d="M76.0045 73.709C76.0045 73.709 71.315 66.2643 82.5005 59.3681C83.7096 63.4243 85.0777 70.992 76.0045 73.709Z" fill="#BEDB52"/>
<path d="M74.7689 72.6604C74.7689 72.6604 74.3921 64.4363 61.3782 62.1328C62.682 66.1532 65.8353 73.3505 74.7689 72.6604Z" fill="#BEDB52"/>
<path d="M89.544 78.488C89.544 78.488 83.0866 72.1396 71.0227 76.7211C75.0682 79.2728 82.9635 83.437 89.544 78.488Z" fill="#BEDB52"/>
<path d="M88.0914 78.1257C87.9821 78.1048 77.0391 75.9415 72.887 70.1623C71.178 67.7814 70.8427 65.0919 71.892 62.17L71.2451 62.0172C70.1416 65.0889 70.5 67.923 72.3064 70.4388C76.6027 76.4221 87.4758 78.5691 87.9371 78.6577L88.0914 78.1257Z" fill="#BEDB52"/>
<path d="M294.227 42.3069C294.349 42.1839 294.457 42.0542 294.588 41.9358C299.733 37.2633 309.413 38.7679 315.973 35.4576C322.634 32.096 326.001 23.9196 333.845 23.8473C342.646 23.7668 346.136 34.0462 354.53 36.1894C358.115 37.1046 362.144 36.375 365.644 37.4824C371.725 39.405 374.379 46.2237 380.821 47.077C388.121 48.0435 392.79 40.7948 399.625 38.5026C408.169 35.6365 417.639 41.3537 422.097 47.9235C426.555 54.4933 428.361 62.2301 433.989 68.1799C440.273 74.8256 450.436 78.2693 460.465 80.2642C480.988 84.3472 502.445 83.5267 523.55 82.6817C519.019 88.1373 523.971 95.3085 528.565 100.73C539.451 113.578 548.919 127.216 556.818 141.427C562.641 151.905 568.387 165.508 568.2 177C473.104 177 380.821 177 290 177L294.227 42.3069Z" fill="#BEDB52"/>
<path d="M510.371 78.8531C510.371 78.8531 521.793 80.9396 521.093 93.8705C515.848 91.7802 506.706 87.2531 510.371 78.8531Z" fill="#BEDB52"/>
<path d="M430.984 59.1523C430.984 59.1523 442.05 62.2531 439.587 75.0409C434.659 72.4923 426.194 67.1707 430.984 59.1523Z" fill="#BEDB52"/>
<path d="M458.727 72.0428C458.727 72.0428 470.148 74.1287 469.448 87.0603C464.204 84.9693 455.062 80.4421 458.727 72.0428Z" fill="#BEDB52"/>
<path d="M489.706 75.6752C489.706 75.6752 501.128 77.761 500.428 90.6927C495.183 88.6024 486.041 84.0752 489.706 75.6752Z" fill="#BEDB52"/>
<path d="M518.526 80.0588C518.526 80.0588 529.948 82.1454 529.248 95.0763C524.004 92.986 514.862 88.4588 518.526 80.0588Z" fill="#BEDB52"/>
<path d="M470.696 85.1694C470.696 85.1694 482.221 85.2067 486.051 73.3355C480.365 74.3475 470.148 76.9147 470.696 85.1694Z" fill="#BEDB52"/>
<path d="M506.426 84.7691C506.426 84.7691 516.522 80.2613 512.761 68.3752C508.396 71.4999 501.003 77.7686 506.426 84.7691Z" fill="#BEDB52"/>
<path d="M504.956 81.5489C504.956 81.5489 510.422 73.3188 499.31 64.9903C497.736 69.5354 495.719 78.0554 504.956 81.5489Z" fill="#BEDB52"/>
<path d="M503.843 89.5562C503.843 89.5562 509.308 81.3261 498.197 72.9976C496.622 77.5427 494.605 86.0627 503.843 89.5562Z" fill="#BEDB52"/>
<path d="M512.836 86.2921C512.836 86.2921 524.361 86.3294 528.191 74.4582C522.506 75.4694 512.289 78.0367 512.836 86.2921Z" fill="#BEDB52"/>
<path d="M346.1 28.5027C346.1 28.5027 357.521 30.5893 356.821 43.5202C351.577 41.4299 342.434 36.9027 346.1 28.5027Z" fill="#BEDB52"/>
<path d="M377.079 32.1359C377.079 32.1359 388.5 34.2225 387.8 47.1534C382.556 45.0631 373.414 40.5359 377.079 32.1359Z" fill="#BEDB52"/>
<path d="M405.899 36.5191C405.899 36.5191 417.321 38.605 416.621 51.5366C411.376 49.4463 402.235 44.9191 405.899 36.5191Z" fill="#BEDB52"/>
<path d="M358.068 41.6297C358.068 41.6297 369.593 41.667 373.423 29.7958C367.737 30.8078 357.52 33.375 358.068 41.6297Z" fill="#BEDB52"/>
<path d="M393.798 41.229C393.798 41.229 403.895 36.7212 400.133 24.8351C395.769 27.9598 388.375 34.2292 393.798 41.229Z" fill="#BEDB52"/>
<path d="M392.329 38.0096C392.329 38.0096 397.794 29.7802 386.683 21.451C385.108 25.9961 383.091 34.516 392.329 38.0096Z" fill="#BEDB52"/>
<path d="M391.216 46.0173C391.216 46.0173 396.681 37.7872 385.57 29.4587C383.995 34.0038 381.978 42.5238 391.216 46.0173Z" fill="#BEDB52"/>
<path d="M400.209 42.7528C400.209 42.7528 411.735 42.7901 415.564 30.9189C409.879 31.9301 399.661 34.4974 400.209 42.7528Z" fill="#BEDB52"/>
<path d="M297.842 24.6088C297.842 24.6088 309.264 26.6947 308.564 39.6263C303.319 37.5353 294.177 33.0081 297.842 24.6088Z" fill="#BEDB52"/>
<path d="M330.985 20.7808C330.985 20.7808 342.407 22.8667 341.707 35.7983C336.462 33.7073 327.32 29.1801 330.985 20.7808Z" fill="#BEDB52"/>
<path d="M359.805 25.1633C359.805 25.1633 371.227 27.2491 370.527 40.1808C365.282 38.0904 356.14 33.5633 359.805 25.1633Z" fill="#BEDB52"/>
<path d="M310.268 40.0229C310.268 40.0229 319.506 34.4345 313.77 23.0798C309.977 26.6598 303.713 33.6923 310.268 40.0229Z" fill="#BEDB52"/>
<path d="M324.801 33.0912C324.801 33.0912 334.04 27.5029 328.304 16.1481C324.509 19.7281 318.246 26.7606 324.801 33.0912Z" fill="#BEDB52"/>
<path d="M347.64 30.8098C347.64 30.8098 357.737 26.302 353.975 14.4159C349.611 17.5405 342.218 23.8092 347.64 30.8098Z" fill="#BEDB52"/>
<path d="M346.235 26.6539C346.235 26.6539 351.7 18.4245 340.589 10.0953C339.014 14.6403 336.998 23.1603 346.235 26.6539Z" fill="#BEDB52"/>
<path d="M345.122 34.6615C345.122 34.6615 350.587 26.4321 339.476 18.1029C337.9 22.6479 335.884 31.1679 345.122 34.6615Z" fill="#BEDB52"/>
<path d="M350.163 35.1751C350.163 35.1751 361.688 35.2124 365.518 23.3411C359.833 24.3524 349.616 26.9197 350.163 35.1751Z" fill="#BEDB52"/>
<path d="M506.533 83.2151C506.533 83.2151 513.521 90.8342 502.601 100.273C500.302 95.9158 497.004 87.6499 506.533 83.2151Z" fill="#BEDB52"/>
<path d="M534.749 97.8277C534.749 97.8277 541.736 105.447 530.816 114.886C528.517 110.528 525.22 102.262 534.749 97.8277Z" fill="#BEDB52"/>
<path d="M553.088 116.385C553.088 116.385 560.076 124.004 549.156 133.443C546.857 129.086 543.559 120.82 553.088 116.385Z" fill="#BEDB52"/>
<path d="M503.574 101.475C503.574 101.475 515.072 102.119 519.845 90.4743C514.089 91.1845 503.688 93.2085 503.574 101.475Z" fill="#BEDB52"/>
<path d="M520.167 103.898C520.167 103.898 531.665 104.541 536.436 92.8968C530.683 93.607 520.281 95.6309 520.167 103.898Z" fill="#BEDB52"/>
<path d="M539.324 114.238C539.324 114.238 550.604 116.155 557.301 105.151C551.48 105.215 540.835 106.062 539.324 114.238Z" fill="#BEDB52"/>
<path d="M541.598 110.343C541.598 110.343 552.355 106.989 550.618 94.7989C545.772 97.4138 537.397 102.811 541.598 110.343Z" fill="#BEDB52"/>
<path d="M534.32 115.828C534.32 115.828 545.077 112.474 543.341 100.285C538.494 102.9 530.119 108.296 534.32 115.828Z" fill="#BEDB52"/>
<path d="M537.731 118.883C537.731 118.883 546.443 125.003 558.887 118.022C553.761 115.785 543.948 112.332 537.731 118.883Z" fill="#BEDB52"/>
<path d="M536.98 112.029C536.98 112.029 541.616 120.748 528.31 127.894C527.309 123.225 526.447 114.565 536.98 112.029Z" fill="#BEDB52"/>
<path d="M560.288 131.52C560.288 131.52 564.924 140.239 551.618 147.384C550.617 142.714 549.756 134.055 560.288 131.52Z" fill="#BEDB52"/>
<path d="M572.865 153.003C572.865 153.003 577.502 161.722 564.196 168.868C563.196 164.198 562.334 155.539 572.865 153.003Z" fill="#BEDB52"/>
<path d="M528.916 129.245C528.916 129.245 539.922 132.019 547.872 121.579C542.071 121.196 531.374 121.222 528.916 129.245Z" fill="#BEDB52"/>
<path d="M544.375 134.703C544.375 134.703 555.381 137.477 563.331 127.036C557.53 126.653 546.833 126.68 544.375 134.703Z" fill="#BEDB52"/>
<path d="M560.081 148.343C560.081 148.343 570.514 152.315 580.154 142.858C574.472 141.833 563.873 140.67 560.081 148.343Z" fill="#BEDB52"/>
<path d="M563.4 144.977C563.4 144.977 574.821 143.722 576.591 131.536C571.133 133.175 561.45 136.863 563.4 144.977Z" fill="#BEDB52"/>
<path d="M554.759 148.956C554.759 148.956 566.18 147.701 567.951 135.515C562.493 137.154 552.811 140.842 554.759 148.956Z" fill="#BEDB52"/>
<path d="M557.212 152.566C557.212 152.566 563.952 160.148 578.043 155.68C573.691 152.544 565.122 147.352 557.212 152.566Z" fill="#BEDB52"/>
<path d="M444.328 77.6569C444.328 77.6569 455.853 77.6942 459.683 65.823C453.998 66.835 443.78 69.4022 444.328 77.6569Z" fill="#BEDB52"/>
<path d="M434.308 78.209C434.308 78.209 445.833 78.2462 449.663 66.375C443.977 67.387 433.76 69.9535 434.308 78.209Z" fill="#BEDB52"/>
<path d="M447.713 52.434C447.713 52.434 459.134 54.5206 458.434 67.4515C453.19 65.3611 444.048 60.834 447.713 52.434Z" fill="#BEDB52"/>
<path d="M434.81 49.6764C434.81 49.6764 446.232 51.763 445.532 64.6939C440.287 62.6036 431.145 58.0764 434.81 49.6764Z" fill="#BEDB52"/>
<path d="M436.836 49.5634C436.836 49.5634 445.965 55.2702 457.896 47.7257C452.622 45.7293 442.582 42.7358 436.836 49.5634Z" fill="#BEDB52"/>
<path d="M419.831 55.7949C419.831 55.7949 431.355 55.8321 435.186 43.9609C429.5 44.9729 419.283 47.5402 419.831 55.7949Z" fill="#BEDB52"/>
<path d="M421.276 55.0303C421.378 54.9677 431.655 48.7892 440.893 50.0456C444.697 50.5643 447.836 52.2805 450.22 55.1458L450.855 54.7985C448.349 51.7856 445.038 49.9807 441.017 49.433C431.455 48.1304 421.247 54.2717 420.817 54.534L421.276 55.0303Z" fill="#BEDB52"/>
<path d="M549.046 85.8733C549.046 85.8733 560.353 83.4104 567.151 95.1206C561.31 95.2495 550.62 94.6921 549.046 85.8733Z" fill="#BEDB52"/>
<path d="M536.043 88.3017C536.043 88.3017 547.35 85.8388 554.148 97.5491C548.306 97.678 537.617 97.1198 536.043 88.3017Z" fill="#BEDB52"/>
<path d="M537.771 87.436C537.771 87.436 549.125 89.0434 555.359 77.8623C549.545 78.0851 538.941 79.2238 537.771 87.436Z" fill="#BEDB52"/>
<path d="M526.293 99.3701C526.293 99.3701 536.516 95.0538 533.097 83.1006C528.645 86.1411 521.073 92.269 526.293 99.3701Z" fill="#BEDB52"/>
<path d="M527.134 98.1476C527.189 98.0537 532.741 88.7065 541.639 86.3331C545.305 85.3561 549.067 85.6907 552.822 87.3279L553.185 86.7809C549.238 85.0602 545.272 84.7115 541.399 85.7443C532.187 88.1998 526.674 97.4881 526.444 97.8823L527.134 98.1476Z" fill="#BEDB52"/>
<path d="M578.582 123.038C578.582 123.038 589.889 120.575 596.687 132.286C590.845 132.414 580.156 131.856 578.582 123.038Z" fill="#BEDB52"/>
<path d="M565.579 125.466C565.579 125.466 576.886 123.003 583.684 134.713C577.842 134.842 567.153 134.284 565.579 125.466Z" fill="#BEDB52"/>
<path d="M567.307 124.601C567.307 124.601 578.661 126.208 584.895 115.027C579.081 115.25 568.477 116.389 567.307 124.601Z" fill="#BEDB52"/>
<path d="M555.83 136.534C555.83 136.534 566.052 132.218 562.634 120.265C558.181 123.306 550.609 129.434 555.83 136.534Z" fill="#BEDB52"/>
<path d="M556.67 135.311C556.724 135.218 562.277 125.87 571.175 123.497C574.841 122.52 578.603 122.855 582.357 124.492L582.72 123.945C578.772 122.224 574.807 121.875 570.933 122.908C561.721 125.364 556.208 134.652 555.978 135.046L556.67 135.311Z" fill="#BEDB52"/>
<path d="M365.684 14.3407C365.684 14.3407 370.373 6.89608 359.187 -9.91821e-05C357.979 4.05534 356.61 11.6237 365.684 14.3407Z" fill="#BEDB52"/>
<path d="M360.721 22.9762C360.721 22.9762 365.41 15.5316 354.224 8.63538C353.015 12.6916 351.646 20.2592 360.721 22.9762Z" fill="#BEDB52"/>
<path d="M361.955 21.9276C361.955 21.9276 362.332 13.7035 375.346 11.4C374.043 15.4205 370.889 22.6177 361.955 21.9276Z" fill="#BEDB52"/>
<path d="M347.18 27.7557C347.18 27.7557 353.637 21.4072 365.701 25.9888C361.656 28.5404 353.761 32.7046 347.18 27.7557Z" fill="#BEDB52"/>
<path d="M348.632 27.3933C348.743 27.3724 359.685 25.2091 363.837 19.43C365.546 17.049 365.881 14.3595 364.832 11.4376L365.479 11.2848C366.582 14.3566 366.225 17.1906 364.418 19.7064C360.121 25.6897 349.248 27.8367 348.787 27.9254L348.632 27.3933Z" fill="#BEDB52"/>
<path d="M318.781 22.2003C318.781 22.2003 323.471 14.7549 312.285 7.85872C311.076 11.9156 309.707 19.4833 318.781 22.2003Z" fill="#BEDB52"/>
<path d="M313.818 30.8359C313.818 30.8359 318.508 23.3905 307.321 16.495C306.113 20.5512 304.744 28.1189 313.818 30.8359Z" fill="#BEDB52"/>
<path d="M315.053 29.7881C315.053 29.7881 315.43 21.5639 328.444 19.2605C327.141 23.2802 323.987 30.4774 315.053 29.7881Z" fill="#BEDB52"/>
<path d="M300.278 35.6157C300.278 35.6157 306.735 29.2673 318.799 33.8488C314.754 36.3997 306.859 40.5639 300.278 35.6157Z" fill="#BEDB52"/>
<path d="M301.73 35.2529C301.839 35.2321 312.782 33.0687 316.934 27.2896C318.643 24.9087 318.979 22.2192 317.93 19.2972L318.576 19.1445C319.68 22.2162 319.322 25.0503 317.515 27.5661C313.219 33.5494 302.346 35.6963 301.884 35.785L301.73 35.2529Z" fill="#BEDB52"/>
<path d="M525.646 65.0735C525.646 65.0735 530.336 57.6281 519.149 50.7326C517.941 54.7881 516.573 62.3564 525.646 65.0735Z" fill="#BEDB52"/>
<path d="M520.683 73.709C520.683 73.709 525.372 66.2643 514.187 59.3681C512.978 63.4243 511.609 70.992 520.683 73.709Z" fill="#BEDB52"/>
<path d="M521.918 72.6604C521.918 72.6604 522.295 64.4363 535.309 62.1328C534.005 66.1532 530.852 73.3505 521.918 72.6604Z" fill="#BEDB52"/>
<path d="M507.143 78.488C507.143 78.488 513.601 72.1396 525.664 76.7211C521.619 79.2728 513.724 83.437 507.143 78.488Z" fill="#BEDB52"/>
<path d="M508.596 78.1257C508.705 78.1048 519.648 75.9415 523.8 70.1623C525.509 67.7814 525.845 65.0919 524.795 62.17L525.442 62.0172C526.546 65.0889 526.187 67.923 524.381 70.4388C520.085 76.4221 509.211 78.5691 508.75 78.6577L508.596 78.1257Z" fill="#BEDB52"/>
</svg>
