<svg width="68" height="62" viewBox="0 0 68 62" fill="none" xmlns="http://www.w3.org/2000/svg">
<path d="M57.0391 52.2351C39.7951 63.0512 38.3452 63.3485 20.2643 55.9126C15.0807 53.7808 10.9897 52.6861 11.8586 46.4871H11.0551C11.0899 44.8679 11.3038 43.9532 11.8586 42.3152C12.8546 39.7978 12.9544 38.3513 12.6312 35.7328C10.43 34.4705 9.22104 33.6148 7.22312 31.1591C2.98618 24.5435 1.34038 20.3817 0.548035 11.6283C1.46632 7.07683 2.63272 5.83837 5.58526 5.38589C11.807 5.46265 16.0217 7.90144 25.0543 17.2527C32.1393 14.0498 35.8086 13.7298 41.4948 14.4714L39.9805 16.0166C41.658 15.6851 42.5985 15.7145 44.2761 16.0166C47.7563 9.82724 50.1604 7.11292 55.0922 3.34628C61.717 -0.698245 64.2916 0.389373 66.4645 7.3637C67.8689 14.8995 66.2073 20.3586 59.3568 32.4571C60.0367 36.0419 60.8111 37.6169 62.478 40.7082L61.8291 40.3065C62.367 45.4055 60.2582 47.8234 57.0391 52.2351Z" fill="#FEFEFE"/>
<path d="M57.9662 7.3637C53.5117 10.144 52.1218 12.7051 50.9511 18.4579C54.7608 21.3679 56.5927 23.4087 58.4606 28.9341L59.3568 32.4571M59.3568 32.4571C60.0367 36.0419 60.8111 37.6169 62.478 40.7082L61.8291 40.3065C62.367 45.4055 60.2582 47.8234 57.0391 52.2351C39.7951 63.0512 38.3452 63.3485 20.2643 55.9126C15.0807 53.7808 10.9897 52.6861 11.8586 46.4871H11.0551C11.0899 44.8679 11.3038 43.9532 11.8586 42.3152C12.8546 39.7978 12.9544 38.3513 12.6312 35.7328M59.3568 32.4571C66.2073 20.3586 67.8689 14.8995 66.4645 7.3637C64.2916 0.389373 61.717 -0.698245 55.0922 3.34628C50.1604 7.11292 47.7563 9.82724 44.2761 16.0166M44.2761 16.0166L46.3775 17.2527M44.2761 16.0166C42.5985 15.7145 41.658 15.6851 39.9805 16.0166L41.4948 14.4714C35.8086 13.7298 32.1393 14.0498 25.0543 17.2527M25.0543 17.2527L23.231 18.8597M25.0543 17.2527C16.0217 7.90144 11.807 5.46265 5.58526 5.38589C2.63272 5.83837 1.46632 7.07683 0.548035 11.6283C1.34038 20.3817 2.98618 24.5435 7.22312 31.1591C9.22104 33.6148 10.43 34.4705 12.6312 35.7328M12.6312 35.7328C13.4569 28.4121 14.9579 25.5041 18.9972 21.8882C16.5838 15.7945 14.6904 13.8744 11.0551 11.1648" stroke="#793A30" stroke-linecap="round"/>
<path d="M62.1071 40.1211C62.1071 40.1211 61.7838 40.8358 61.7196 41.06C61.7379 41.0848 61.7437 41.1018 61.7363 41.11C61.7039 41.1455 61.7022 41.1208 61.7196 41.06C61.3654 40.5797 56.3201 37.1911 51.9708 39.1013C46.8409 38.9468 44.5133 36.4436 43.8124 32.2717C43.523 25.7494 38.8988 16.4492 39.7332 16.1711C42.0818 15.8003 44.1214 15.7076 46.1301 17.0481C45.4983 16.6048 45.2416 16.1902 44.3687 15.9239C47.8916 9.74323 50.8927 6.42484 56.4209 2.6355C56.0215 4.76087 56.1035 6.45463 56.1737 8.4144C53.2997 11.1957 52.1871 13.4016 50.8583 18.3961C56.0959 22.5632 57.7664 25.764 59.2331 32.7352L62.1071 40.1211Z" fill="#FFAB4B"/>
<path d="M23.2002 43.1497C23.2002 43.4399 14.2383 45.1583 13.1876 51.9262C11.4261 51.1227 11.9205 46.9319 11.9205 46.6418C11.9205 46.5032 11.3334 46.4564 11.148 46.24C11.3643 43.9223 12.6931 40.3066 12.7858 38.6688C13.2166 38.6688 11.4879 30.5412 16.2779 24.7623C17.0644 23.8134 18.0786 22.6175 18.9665 21.7956C19.3028 21.4843 14.9491 12.6482 10.8389 11.1649C11.0553 9.24888 10.8717 6.67321 11.0553 6.52943C11.4122 6.24972 15.9998 8.66176 18.9665 11.6594C20.1717 12.741 24.3419 15.9178 24.9617 17.3765C23.6638 18.1799 23.1916 18.78 23.3547 18.6744C23.2311 19.0452 22.9537 19.0629 23.3547 18.8289C24.3582 16.853 30.4316 15.1205 33.3056 14.657C33.4365 15.0236 30.9489 21.6227 30.5243 27.3274C32.0385 35.5167 31.689 36.9965 31.235 38.0507C30.1843 42.0682 23.2002 43.077 23.2002 43.1497Z" fill="#FFAB4B"/>
<path d="M56.3282 2.79C63.0715 -1.43019 64.8266 2.78999 66.2481 7.17826C66.7921 9.88287 67.1635 11.296 66.7735 13.9461C66.6197 17.6215 63.8236 25.6148 59.3567 32.2099C58.704 29.4478 58.3174 27.9498 57.0699 25.3493C54.5265 21.4168 53.3558 20.3934 51.0438 18.427C52.5373 12.7782 53.207 10.6703 57.997 7.36368C57.6711 7.36368 56.1428 8.44529 56.1428 8.44529C56.0076 6.3312 56.0677 4.7515 56.3282 2.79Z" fill="#FF8D8D"/>
<path d="M18.9972 21.7954C15.49 24.9107 14.0526 27.5125 12.4766 35.7019C6.94491 31.8699 4.51853 28.354 1.87678 19.4777C-0.162827 11.7519 0.559894 9.41103 2.80388 6.37473C5.7679 5.09138 7.96536 5.18309 11.055 6.37474C11.6147 8.03264 11.4128 9.15025 11.2714 10.8866C11.2714 10.8866 11.2714 11.154 11.1272 11.1944C11.1587 11.2972 11.1168 11.3193 11.1168 11.3193C14.4187 13.4889 16.2992 16.105 18.9972 21.7954Z" fill="#FF8D8D"/>
<path d="M57.9662 7.3637C53.5117 10.144 52.1218 12.7051 50.9511 18.4579C54.7608 21.3679 56.5927 23.4087 58.4606 28.9341L59.3568 32.4571M59.3568 32.4571C60.0367 36.0419 60.8111 37.6169 62.478 40.7082L61.8291 40.3065C62.367 45.4055 60.2582 47.8234 57.0391 52.2351C39.7951 63.0512 38.3452 63.3485 20.2643 55.9126C15.0807 53.7808 10.9897 52.6861 11.8586 46.4871H11.0551C11.0899 44.8679 11.3038 43.9532 11.8586 42.3152C12.8546 39.7978 12.9544 38.3513 12.6312 35.7328M59.3568 32.4571C66.2073 20.3586 67.8689 14.8995 66.4645 7.3637C64.2916 0.389373 61.717 -0.698245 55.0922 3.34628C50.1604 7.11292 47.7563 9.82724 44.2761 16.0166M44.2761 16.0166L46.3775 17.2527M44.2761 16.0166C42.5985 15.7145 41.658 15.6851 39.9805 16.0166L41.4948 14.4714C35.8086 13.7298 32.1393 14.0498 25.0543 17.2527M25.0543 17.2527L23.231 18.8597M25.0543 17.2527C16.0217 7.90144 11.807 5.46265 5.58526 5.38589C2.63272 5.83837 1.46632 7.07683 0.548035 11.6283C1.34038 20.3817 2.98618 24.5435 7.22312 31.1591C9.22104 33.6148 10.43 34.4705 12.6312 35.7328M12.6312 35.7328C13.4569 28.4121 14.9579 25.5041 18.9972 21.8882C16.5838 15.7945 14.6904 13.8744 11.0551 11.1648" stroke="#793A30" stroke-linecap="round"/>
<path d="M57.0391 52.2351C39.7951 63.0512 38.3452 63.3485 20.2643 55.9126C15.0807 53.7808 10.9897 52.6861 11.8586 46.4871H11.0551C11.0899 44.8679 11.3038 43.9532 11.8586 42.3152C12.8546 39.7978 12.9544 38.3513 12.6312 35.7328C10.43 34.4705 9.22104 33.6148 7.22312 31.1591C2.98618 24.5435 1.34038 20.3817 0.548035 11.6283C1.46632 7.07683 2.63272 5.83837 5.58526 5.38589C11.807 5.46265 16.0217 7.90144 25.0543 17.2527C32.1393 14.0498 35.8086 13.7298 41.4948 14.4714L39.9805 16.0166C41.658 15.6851 42.5985 15.7145 44.2761 16.0166C47.7563 9.82724 50.1604 7.11292 55.0922 3.34628C61.717 -0.698245 64.2916 0.389373 66.4645 7.3637C67.8689 14.8995 66.2073 20.3586 59.3568 32.4571C60.0367 36.0419 60.8111 37.6169 62.478 40.7082L61.8291 40.3065C62.367 45.4055 60.2582 47.8234 57.0391 52.2351Z" fill="#FEFEFE"/>
<path d="M57.9662 7.3637C53.5117 10.144 52.1218 12.7051 50.9511 18.4579C54.7608 21.3679 56.5927 23.4087 58.4606 28.9341L59.3568 32.4571M59.3568 32.4571C60.0367 36.0419 60.8111 37.6169 62.478 40.7082L61.8291 40.3065C62.367 45.4055 60.2582 47.8234 57.0391 52.2351C39.7951 63.0512 38.3452 63.3485 20.2643 55.9126C15.0807 53.7808 10.9897 52.6861 11.8586 46.4871H11.0551C11.0899 44.8679 11.3038 43.9532 11.8586 42.3152C12.8546 39.7978 12.9544 38.3513 12.6312 35.7328M59.3568 32.4571C66.2073 20.3586 67.8689 14.8995 66.4645 7.3637C64.2916 0.389373 61.717 -0.698245 55.0922 3.34628C50.1604 7.11292 47.7563 9.82724 44.2761 16.0166M44.2761 16.0166L46.3775 17.2527M44.2761 16.0166C42.5985 15.7145 41.658 15.6851 39.9805 16.0166L41.4948 14.4714C35.8086 13.7298 32.1393 14.0498 25.0543 17.2527M25.0543 17.2527L23.231 18.8597M25.0543 17.2527C16.0217 7.90144 11.807 5.46265 5.58526 5.38589C2.63272 5.83837 1.46632 7.07683 0.548035 11.6283C1.34038 20.3817 2.98618 24.5435 7.22312 31.1591C9.22104 33.6148 10.43 34.4705 12.6312 35.7328M12.6312 35.7328C13.4569 28.4121 14.9579 25.5041 18.9972 21.8882C16.5838 15.7945 14.6904 13.8744 11.0551 11.1648" stroke="#793A30" stroke-linecap="round"/>
<path d="M62.1071 40.1211C62.1071 40.1211 61.7838 40.8358 61.7196 41.06C61.7379 41.0848 61.7437 41.1018 61.7363 41.11C61.7039 41.1455 61.7022 41.1208 61.7196 41.06C61.3654 40.5797 56.3201 37.1911 51.9708 39.1013C46.8409 38.9468 44.5133 36.4436 43.8124 32.2717C43.523 25.7494 38.8988 16.4492 39.7332 16.1711C42.0818 15.8003 44.1214 15.7076 46.1301 17.0481C45.4983 16.6048 45.2416 16.1902 44.3687 15.9239C47.8916 9.74323 50.8927 6.42484 56.4209 2.6355C56.0215 4.76087 56.1035 6.45463 56.1737 8.4144C53.2997 11.1957 52.1871 13.4016 50.8583 18.3961C56.0959 22.5632 57.7664 25.764 59.2331 32.7352L62.1071 40.1211Z" fill="#FFAB4B"/>
<path d="M23.2002 43.1497C23.2002 43.4399 14.2383 45.1583 13.1876 51.9262C11.4261 51.1227 11.9205 46.9319 11.9205 46.6418C11.9205 46.5032 11.3334 46.4564 11.148 46.24C11.3643 43.9223 12.6931 40.3066 12.7858 38.6688C13.2166 38.6688 11.4879 30.5412 16.2779 24.7623C17.0644 23.8134 18.0786 22.6175 18.9665 21.7956C19.3028 21.4843 14.9491 12.6482 10.8389 11.1649C11.0553 9.24888 10.8717 6.67321 11.0553 6.52943C11.4122 6.24972 15.9998 8.66176 18.9665 11.6594C20.1717 12.741 24.3419 15.9178 24.9617 17.3765C23.6638 18.1799 23.1916 18.78 23.3547 18.6744C23.2311 19.0452 22.9537 19.0629 23.3547 18.8289C24.3582 16.853 30.4316 15.1205 33.3056 14.657C33.4365 15.0236 30.9489 21.6227 30.5243 27.3274C32.0385 35.5167 31.689 36.9965 31.235 38.0507C30.1843 42.0682 23.2002 43.077 23.2002 43.1497Z" fill="#FFAB4B"/>
<path d="M56.3282 2.79C63.0715 -1.43019 64.8266 2.78999 66.2481 7.17826C66.7921 9.88287 67.1635 11.296 66.7735 13.9461C66.6197 17.6215 63.8236 25.6148 59.3567 32.2099C58.704 29.4478 58.3174 27.9498 57.0699 25.3493C54.5265 21.4168 53.3558 20.3934 51.0438 18.427C52.5373 12.7782 53.207 10.6703 57.997 7.36368C57.6711 7.36368 56.1428 8.44529 56.1428 8.44529C56.0076 6.3312 56.0677 4.7515 56.3282 2.79Z" fill="#FF8D8D"/>
<path d="M18.9972 21.7954C15.49 24.9107 14.0526 27.5125 12.4766 35.7019C6.94491 31.8699 4.51853 28.354 1.87678 19.4777C-0.162827 11.7519 0.559894 9.41103 2.80388 6.37473C5.7679 5.09138 7.96536 5.18309 11.055 6.37474C11.6147 8.03264 11.4128 9.15025 11.2714 10.8866C11.2714 10.8866 11.2714 11.154 11.1272 11.1944C11.1587 11.2972 11.1168 11.3193 11.1168 11.3193C14.4187 13.4889 16.2992 16.105 18.9972 21.7954Z" fill="#FF8D8D"/>
<path d="M57.9662 7.3637C53.5117 10.144 52.1218 12.7051 50.9511 18.4579C54.7608 21.3679 56.5927 23.4087 58.4606 28.9341L59.3568 32.4571M59.3568 32.4571C60.0367 36.0419 60.8111 37.6169 62.478 40.7082L61.8291 40.3065C62.367 45.4055 60.2582 47.8234 57.0391 52.2351C39.7951 63.0512 38.3452 63.3485 20.2643 55.9126C15.0807 53.7808 10.9897 52.6861 11.8586 46.4871H11.0551C11.0899 44.8679 11.3038 43.9532 11.8586 42.3152C12.8546 39.7978 12.9544 38.3513 12.6312 35.7328M59.3568 32.4571C66.2073 20.3586 67.8689 14.8995 66.4645 7.3637C64.2916 0.389373 61.717 -0.698245 55.0922 3.34628C50.1604 7.11292 47.7563 9.82724 44.2761 16.0166M44.2761 16.0166L46.3775 17.2527M44.2761 16.0166C42.5985 15.7145 41.658 15.6851 39.9805 16.0166L41.4948 14.4714C35.8086 13.7298 32.1393 14.0498 25.0543 17.2527M25.0543 17.2527L23.231 18.8597M25.0543 17.2527C16.0217 7.90144 11.807 5.46265 5.58526 5.38589C2.63272 5.83837 1.46632 7.07683 0.548035 11.6283C1.34038 20.3817 2.98618 24.5435 7.22312 31.1591C9.22104 33.6148 10.43 34.4705 12.6312 35.7328M12.6312 35.7328C13.4569 28.4121 14.9579 25.5041 18.9972 21.8882C16.5838 15.7945 14.6904 13.8744 11.0551 11.1648" stroke="#793A30" stroke-linecap="round"/>
<path d="M31.8223 46.613C33.6363 49.5949 34.8199 49.8888 38.4356 47.571C42.3469 49.2937 44.1218 47.911 44.3381 44.8516" stroke="#20120F" stroke-linecap="round"/>
<path d="M42.144 43.0592C42.144 44.783 40.8195 46.5822 38.652 46.5822C36.4844 46.5822 34.2946 44.783 34.2946 43.0592C34.2946 41.3354 36.0518 39.938 38.2193 39.938C40.3869 39.938 42.144 41.3354 42.144 43.0592Z" fill="#361814"/>
<path d="M11.5187 35.797C10.3931 34.1982 10.232 33.3216 11.1479 31.8105C19.6828 28.1967 24.3909 27.1784 32.502 29.1219C35.725 27.7052 37.4934 27.4922 40.5677 28.3493C43.7362 26.5554 46.1015 25.8112 49.8695 25.2282C54.6206 24.493 60.8711 25.0427 61.86 25.908C62.8489 26.7734 63.176 27.9676 63.1271 29.0292C63.0781 30.0907 61.7364 30.4816 61.7364 30.4816C62.3315 32.9785 61.8843 34.4864 60.7784 37.2185C58.2499 42.0582 55.6408 42.9944 49.8696 42.9974C45.207 42.7394 39.3987 33.772 39.6406 32.1504C39.8825 30.5289 40.1659 31.2851 40.0732 30.7598C39.9805 30.2344 34.2944 30.5435 34.1398 31.4087C33.9853 32.274 34.9124 32.7376 34.9124 32.7376C33.5539 41.1104 28.6017 46.5251 23.0456 46.5822C16.95 46.0649 14.7156 43.4086 12.1677 35.797H11.5187Z" fill="#FEC2C4" stroke="#783F31" stroke-linecap="round"/>
<path d="M59.9442 32.1505C59.9442 33.3276 59.941 35.8108 58.9244 37.6821C57.6713 39.989 55.1407 41.6068 52.342 41.6068C49.795 41.6068 46.5901 40.5197 44.5235 38.3311C42.4773 36.164 41.5568 32.9019 41.5568 31.5942C41.5568 30.2404 42.3536 29.1473 45.018 27.9785C47.5265 26.8781 51.8617 26.217 54.3198 26.217C59.3889 26.217 59.9442 29.5221 59.9442 32.1505Z" fill="#361814"/>
<path d="M32.224 34.3755C32.224 35.5173 31.7228 39.0852 29.9372 41.4215C28.0127 43.9395 24.7367 45.1917 23.0458 45.1917C19.3065 45.4698 17.8976 43.8184 16.1235 41.4215C14.4199 39.1199 14.3929 35.8158 14.3929 34.6537C14.3929 32.2813 15.938 29.7203 23.8184 29.1838C31.0806 28.6894 32.224 32.0032 32.224 34.3755Z" fill="#361814"/>
</svg>
