<svg width="38" height="38" viewBox="0 0 38 38" fill="none" xmlns="http://www.w3.org/2000/svg">
<rect width="37.9997" height="38" rx="18.9999" fill="#FFAB4B"/>
<path d="M27.7936 27.1401C21.1834 31.2863 20.6276 31.4003 13.6966 28.5498C11.7095 27.7326 10.1413 27.313 10.4744 24.9367H10.1664C10.1797 24.316 10.2617 23.9654 10.4744 23.3375C10.8562 22.3725 10.8944 21.818 10.7705 20.8143C9.92675 20.3303 9.46332 20.0024 8.69746 19.061C7.07329 16.525 6.4424 14.9296 6.13867 11.5742C6.49068 9.82945 6.9378 9.35471 8.06961 9.18126C10.4546 9.21068 12.0703 10.1456 15.5327 13.7302C18.2486 12.5024 19.6552 12.3797 21.8349 12.6641L21.2545 13.2564C21.8975 13.1293 22.258 13.1406 22.9011 13.2564C24.2352 10.8838 25.1567 9.84329 27.0473 8.39941C29.5868 6.84901 30.5737 7.26593 31.4067 9.93942C31.945 12.8282 31.3081 14.9208 28.682 19.5585C28.9427 20.9327 29.2395 21.5365 29.8785 22.7215L29.6297 22.5675C29.8359 24.5221 29.0276 25.449 27.7936 27.1401Z" fill="#FEFEFE"/>
<path d="M28.149 9.93942C26.4414 11.0052 25.9086 11.987 25.4599 14.1922C26.9202 15.3077 27.6225 16.09 28.3385 18.2081L28.682 19.5586M28.682 19.5586C28.9427 20.9327 29.2395 21.5365 29.8785 22.7215L29.6297 22.5675C29.8359 24.5221 29.0276 25.449 27.7936 27.1401C21.1834 31.2863 20.6276 31.4003 13.6966 28.5498C11.7095 27.7326 10.1413 27.313 10.4744 24.9367H10.1664C10.1797 24.316 10.2617 23.9654 10.4744 23.3375C10.8562 22.3725 10.8944 21.818 10.7705 20.8143M28.682 19.5586C31.3081 14.9208 31.945 12.8282 31.4067 9.93942C30.5737 7.26593 29.5868 6.84901 27.0473 8.39941C25.1567 9.84329 24.2352 10.8838 22.9011 13.2564M22.9011 13.2564L23.7066 13.7302M22.9011 13.2564C22.258 13.1406 21.8975 13.1293 21.2545 13.2564L21.8349 12.6641C19.6552 12.3797 18.2486 12.5024 15.5327 13.7302M15.5327 13.7302L14.8338 14.3462M15.5327 13.7302C12.0703 10.1456 10.4546 9.21068 8.06961 9.18126C6.9378 9.35471 6.49068 9.82945 6.13867 11.5742C6.4424 14.9296 7.07329 16.525 8.69746 19.061C9.46332 20.0024 9.92675 20.3303 10.7705 20.8143M10.7705 20.8143C11.0871 18.008 11.6625 16.8932 13.2109 15.5071C12.2857 13.1712 11.5599 12.4352 10.1664 11.3965" stroke="#793A30" stroke-width="0.5" stroke-linecap="round"/>
<path d="M30.0621 22.5717C30.0621 22.5717 29.9368 22.8487 29.912 22.9355C29.919 22.9451 29.9213 22.9517 29.9184 22.9549C29.9058 22.9687 29.9052 22.9591 29.912 22.9355C29.7747 22.7494 27.8198 21.4365 26.1346 22.1766C24.147 22.1167 23.2451 21.1468 22.9735 19.5304C22.8614 17.0032 21.0697 13.3997 21.393 13.2919C22.303 13.1483 23.0933 13.1123 23.8716 13.6318C23.6267 13.46 23.5273 13.2993 23.1891 13.1962C24.5541 10.8014 25.7169 9.5156 27.8589 8.04736C27.7041 8.87087 27.7359 9.52714 27.7631 10.2865C26.6495 11.3641 26.2184 12.2189 25.7036 14.1541C27.733 15.7687 28.3802 17.0089 28.9485 19.71L30.0621 22.5717Z" fill="#FFAB4B"/>
<path d="M14.8667 23.7149C14.8667 23.8274 11.3943 24.4932 10.9872 27.1155C10.3047 26.8042 10.4962 25.1804 10.4962 25.068C10.4962 25.0143 10.2687 24.9961 10.1969 24.9123C10.2807 24.0143 10.7956 22.6133 10.8315 21.9787C10.9984 21.9787 10.3286 18.8296 12.1846 16.5905C12.4893 16.2228 12.8823 15.7594 13.2263 15.441C13.3566 15.3203 11.6697 11.8967 10.0771 11.3219C10.161 10.5795 10.0899 9.58155 10.161 9.52584C10.2993 9.41746 12.0768 10.352 13.2263 11.5135C13.6933 11.9326 15.3091 13.1635 15.5492 13.7287C15.0463 14.04 14.8634 14.2725 14.9266 14.2316C14.8787 14.3753 14.7712 14.3821 14.9266 14.2915C15.3154 13.5259 17.6686 12.8546 18.7822 12.675C18.8329 12.817 17.8691 15.374 17.7045 17.5843C18.2913 20.7574 18.1558 21.3308 17.9799 21.7393C17.5728 23.2959 14.8667 23.6868 14.8667 23.7149Z" fill="#FFAB4B"/>
<path d="M27.8898 8.17568C30.5026 6.54051 31.1827 8.17568 31.7335 9.87598C31.9442 10.9239 32.0881 11.4715 31.937 12.4983C31.8774 13.9224 30.7941 17.0195 29.0633 19.5749C28.8104 18.5047 28.6606 17.9242 28.1772 16.9167C27.1917 15.3929 26.7381 14.9964 25.8423 14.2345C26.421 12.0458 26.6805 11.229 28.5364 9.94783C28.4102 9.94783 27.818 10.3669 27.818 10.3669C27.7656 9.54778 27.7889 8.9357 27.8898 8.17568Z" fill="#FF8D8D"/>
<path d="M13.1872 15.4766C11.8283 16.6837 11.2713 17.6918 10.6607 20.8649C8.51732 19.3801 7.57719 18.0179 6.5536 14.5786C5.76332 11.5851 6.04335 10.6781 6.91282 9.50164C8.06127 9.00439 8.91271 9.03992 10.1099 9.50165C10.3267 10.144 10.2485 10.5771 10.1937 11.2499C10.1937 11.2499 10.1937 11.3534 10.1378 11.3691C10.15 11.4089 10.1338 11.4175 10.1338 11.4175C11.4132 12.2581 12.1418 13.2718 13.1872 15.4766Z" fill="#FF8D8D"/>
<path d="M28.0103 9.93942C26.3028 11.0052 25.7699 11.987 25.3212 14.1922C26.7816 15.3077 27.4838 16.09 28.1998 18.2081L28.5434 19.5586M28.5434 19.5586C28.804 20.9327 29.1008 21.5365 29.7398 22.7215L29.4911 22.5675C29.6973 24.5221 28.8889 25.449 27.6549 27.1401C21.0447 31.2863 20.4889 31.4003 13.5579 28.5498C11.5708 27.7326 10.0026 27.313 10.3357 24.9367H10.0277C10.0411 24.316 10.123 23.9654 10.3357 23.3375C10.7175 22.3725 10.7558 21.818 10.6319 20.8143M28.5434 19.5586C31.1694 14.9208 31.8063 12.8282 31.268 9.93942C30.435 7.26593 29.4481 6.84901 26.9086 8.39941C25.0181 9.84329 24.0965 10.8838 22.7624 13.2564M22.7624 13.2564L23.568 13.7302M22.7624 13.2564C22.1194 13.1406 21.7588 13.1293 21.1158 13.2564L21.6962 12.6641C19.5165 12.3797 18.11 12.5024 15.3941 13.7302M15.3941 13.7302L14.6951 14.3462M15.3941 13.7302C11.9316 10.1456 10.316 9.21068 7.93093 9.18126C6.79913 9.35471 6.35201 9.82945 6 11.5742C6.30373 14.9296 6.93462 16.525 8.55878 19.061C9.32465 20.0024 9.78807 20.3303 10.6319 20.8143M10.6319 20.8143C10.9484 18.008 11.5238 16.8932 13.0722 15.5071C12.147 13.1712 11.4213 12.4352 10.0277 11.3965" stroke="#793A30" stroke-width="0.5" stroke-linecap="round"/>
<path d="M27.7936 27.1401C21.1834 31.2863 20.6276 31.4003 13.6966 28.5498C11.7095 27.7326 10.1413 27.313 10.4744 24.9367H10.1664C10.1797 24.316 10.2617 23.9654 10.4744 23.3375C10.8562 22.3725 10.8944 21.818 10.7705 20.8143C9.92675 20.3303 9.46332 20.0024 8.69746 19.061C7.07329 16.525 6.4424 14.9296 6.13867 11.5742C6.49068 9.82945 6.9378 9.35471 8.06961 9.18126C10.4546 9.21068 12.0703 10.1456 15.5327 13.7302C18.2486 12.5024 19.6552 12.3797 21.8349 12.6641L21.2545 13.2564C21.8975 13.1293 22.258 13.1406 22.9011 13.2564C24.2352 10.8838 25.1567 9.84329 27.0473 8.39941C29.5868 6.84901 30.5737 7.26593 31.4067 9.93942C31.945 12.8282 31.3081 14.9208 28.682 19.5585C28.9427 20.9327 29.2395 21.5365 29.8785 22.7215L29.6297 22.5675C29.8359 24.5221 29.0276 25.449 27.7936 27.1401Z" fill="#FEFEFE"/>
<path d="M28.149 9.93942C26.4414 11.0052 25.9086 11.987 25.4599 14.1922C26.9202 15.3077 27.6225 16.09 28.3385 18.2081L28.682 19.5586M28.682 19.5586C28.9427 20.9327 29.2395 21.5365 29.8785 22.7215L29.6297 22.5675C29.8359 24.5221 29.0276 25.449 27.7936 27.1401C21.1834 31.2863 20.6276 31.4003 13.6966 28.5498C11.7095 27.7326 10.1413 27.313 10.4744 24.9367H10.1664C10.1797 24.316 10.2617 23.9654 10.4744 23.3375C10.8562 22.3725 10.8944 21.818 10.7705 20.8143M28.682 19.5586C31.3081 14.9208 31.945 12.8282 31.4067 9.93942C30.5737 7.26593 29.5868 6.84901 27.0473 8.39941C25.1567 9.84329 24.2352 10.8838 22.9011 13.2564M22.9011 13.2564L23.7066 13.7302M22.9011 13.2564C22.258 13.1406 21.8975 13.1293 21.2545 13.2564L21.8349 12.6641C19.6552 12.3797 18.2486 12.5024 15.5327 13.7302M15.5327 13.7302L14.8338 14.3462M15.5327 13.7302C12.0703 10.1456 10.4546 9.21068 8.06961 9.18126C6.9378 9.35471 6.49068 9.82945 6.13867 11.5742C6.4424 14.9296 7.07329 16.525 8.69746 19.061C9.46332 20.0024 9.92675 20.3303 10.7705 20.8143M10.7705 20.8143C11.0871 18.008 11.6625 16.8932 13.2109 15.5071C12.2857 13.1712 11.5599 12.4352 10.1664 11.3965" stroke="#793A30" stroke-width="0.5" stroke-linecap="round"/>
<path d="M30.0621 22.5717C30.0621 22.5717 29.9368 22.8487 29.912 22.9355C29.919 22.9451 29.9213 22.9517 29.9184 22.9549C29.9058 22.9687 29.9052 22.9591 29.912 22.9355C29.7747 22.7494 27.8198 21.4365 26.1346 22.1766C24.147 22.1167 23.2451 21.1468 22.9735 19.5304C22.8614 17.0032 21.0697 13.3997 21.393 13.2919C22.303 13.1483 23.0933 13.1123 23.8716 13.6318C23.6267 13.46 23.5273 13.2993 23.1891 13.1962C24.5541 10.8014 25.7169 9.5156 27.8589 8.04736C27.7041 8.87087 27.7359 9.52714 27.7631 10.2865C26.6495 11.3641 26.2184 12.2189 25.7036 14.1541C27.733 15.7687 28.3802 17.0089 28.9485 19.71L30.0621 22.5717Z" fill="#FFAB4B"/>
<path d="M14.8667 23.7149C14.8667 23.8274 11.3943 24.4932 10.9872 27.1155C10.3047 26.8042 10.4962 25.1804 10.4962 25.068C10.4962 25.0143 10.2687 24.9961 10.1969 24.9123C10.2807 24.0143 10.7956 22.6133 10.8315 21.9787C10.9984 21.9787 10.3286 18.8296 12.1846 16.5905C12.4893 16.2228 12.8823 15.7594 13.2263 15.441C13.3566 15.3203 11.6697 11.8967 10.0771 11.3219C10.161 10.5795 10.0899 9.58155 10.161 9.52584C10.2993 9.41746 12.0768 10.352 13.2263 11.5135C13.6933 11.9326 15.3091 13.1635 15.5492 13.7287C15.0463 14.04 14.8634 14.2725 14.9266 14.2316C14.8787 14.3753 14.7712 14.3821 14.9266 14.2915C15.3154 13.5259 17.6686 12.8546 18.7822 12.675C18.8329 12.817 17.8691 15.374 17.7045 17.5843C18.2913 20.7574 18.1558 21.3308 17.9799 21.7393C17.5728 23.2959 14.8667 23.6868 14.8667 23.7149Z" fill="#FFAB4B"/>
<path d="M27.8898 8.17568C30.5026 6.54051 31.1827 8.17568 31.7335 9.87598C31.9442 10.9239 32.0881 11.4715 31.937 12.4983C31.8774 13.9224 30.7941 17.0195 29.0633 19.5749C28.8104 18.5047 28.6606 17.9242 28.1772 16.9167C27.1917 15.3929 26.7381 14.9964 25.8423 14.2345C26.421 12.0458 26.6805 11.229 28.5364 9.94783C28.4102 9.94783 27.818 10.3669 27.818 10.3669C27.7656 9.54778 27.7889 8.9357 27.8898 8.17568Z" fill="#FF8D8D"/>
<path d="M13.1872 15.4766C11.8283 16.6837 11.2713 17.6918 10.6607 20.8649C8.51732 19.3801 7.57719 18.0179 6.5536 14.5786C5.76332 11.5851 6.04335 10.6781 6.91282 9.50164C8.06127 9.00439 8.91271 9.03992 10.1099 9.50165C10.3267 10.144 10.2485 10.5771 10.1937 11.2499C10.1937 11.2499 10.1937 11.3534 10.1378 11.3691C10.15 11.4089 10.1338 11.4175 10.1338 11.4175C11.4132 12.2581 12.1418 13.2718 13.1872 15.4766Z" fill="#FF8D8D"/>
<path d="M28.0103 9.93942C26.3028 11.0052 25.7699 11.987 25.3212 14.1922C26.7816 15.3077 27.4838 16.09 28.1998 18.2081L28.5434 19.5586M28.5434 19.5586C28.804 20.9327 29.1008 21.5365 29.7398 22.7215L29.4911 22.5675C29.6973 24.5221 28.8889 25.449 27.6549 27.1401C21.0447 31.2863 20.4889 31.4003 13.5579 28.5498C11.5708 27.7326 10.0026 27.313 10.3357 24.9367H10.0277C10.0411 24.316 10.123 23.9654 10.3357 23.3375C10.7175 22.3725 10.7558 21.818 10.6319 20.8143M28.5434 19.5586C31.1694 14.9208 31.8063 12.8282 31.268 9.93942C30.435 7.26593 29.4481 6.84901 26.9086 8.39941C25.0181 9.84329 24.0965 10.8838 22.7624 13.2564M22.7624 13.2564L23.568 13.7302M22.7624 13.2564C22.1194 13.1406 21.7588 13.1293 21.1158 13.2564L21.6962 12.6641C19.5165 12.3797 18.11 12.5024 15.3941 13.7302M15.3941 13.7302L14.6951 14.3462M15.3941 13.7302C11.9316 10.1456 10.316 9.21068 7.93093 9.18126C6.79913 9.35471 6.35201 9.82945 6 11.5742C6.30373 14.9296 6.93462 16.525 8.55878 19.061C9.32465 20.0024 9.78807 20.3303 10.6319 20.8143M10.6319 20.8143C10.9484 18.008 11.5238 16.8932 13.0722 15.5071C12.147 13.1712 11.4213 12.4352 10.0277 11.3965" stroke="#793A30" stroke-width="0.5" stroke-linecap="round"/>
<path d="M21.0973 22.5477L21.0828 22.5459H21.0681C20.713 22.5459 20.3794 22.3796 20.1302 22.1452C19.8731 21.9034 19.7495 21.6324 19.7495 21.4668C19.7495 21.2994 19.875 21.0187 20.1332 20.7677C20.3838 20.524 20.7166 20.3518 21.0681 20.3518C21.9703 20.3518 22.3867 21.0686 22.3867 21.4668C22.3867 21.6555 22.2798 21.9585 22.0519 22.201C21.8328 22.4342 21.516 22.5969 21.0973 22.5477Z" fill="#361814" stroke="#361814" stroke-width="0.5"/>
<path d="M23.8284 19.907C24.6682 18.545 25.0647 18.4559 26.1513 18.4342" stroke="#361814" stroke-width="0.5" stroke-linecap="round"/>
<path d="M17.4683 21.3663C16.3911 20.0755 15.9425 20.0788 14.7382 20.3366" stroke="#361814" stroke-width="0.5" stroke-linecap="round"/>
<path d="M21.6818 26.621C22.6084 26.5166 23.1565 25.9451 23.5976 25.1961C23.8321 24.639 23.8681 24.2992 23.9315 23.7005L23.9329 23.6874L24.3041 22.6456C24.2719 22.561 24.2359 22.5426 24.1364 22.5618C23.4335 23.6212 22.8532 23.9008 21.4782 23.3641C20.652 24.2501 19.8639 24.2464 18.808 23.5557C18.7303 23.4932 18.5667 23.3284 18.4848 23.2563C18.3862 23.2343 18.3607 23.2635 18.3411 23.3521C18.9458 23.9035 18.9354 24.2202 19.3469 25.4236C19.9365 26.1696 20.6635 26.7357 21.6818 26.621Z" fill="#361814" stroke="#361814" stroke-width="0.5" stroke-linecap="round"/>
<path d="M23.6006 25.1949C22.1231 24.9947 21.2669 25.035 19.6252 25.7337C19.6252 25.7337 20.4514 26.8222 21.8045 26.6078C23.1576 26.3935 23.6006 25.1949 23.6006 25.1949Z" fill="#FF8D8D" stroke="#FF8D8D" stroke-width="0.5" stroke-linecap="round"/>
</svg>
