<svg width="13" height="13" viewBox="0 0 13 13" fill="none" xmlns="http://www.w3.org/2000/svg">
<path id="Vector" fill-rule="evenodd" clip-rule="evenodd" d="M0.78 1.32286V9.96286H12.22V1.32286H0.78ZM0 1.18571C0 1.00385 0.0684819 0.829438 0.190381 0.700841C0.312279 0.572245 0.477609 0.5 0.65 0.5H12.35C12.5224 0.5 12.6877 0.572245 12.8096 0.700841C12.9315 0.829438 13 1.00385 13 1.18571V10.1C13 10.2819 12.9315 10.4563 12.8096 10.5849C12.6877 10.7135 12.5224 10.7857 12.35 10.7857H0.65C0.477609 10.7857 0.312279 10.7135 0.190381 10.5849C0.0684819 10.4563 0 10.2819 0 10.1V1.18571ZM3.9 12.0886C3.9 11.8616 4.0729 11.6771 4.29065 11.6771H8.71C8.9258 11.6771 9.10065 11.8678 9.10065 12.0886V12.5H3.9V12.0886Z" fill="#9B3B11"/>
</svg>
